%TF.GenerationSoftware,KiCad,Pcbnew,(5.1.9)-1*%
%TF.CreationDate,2021-04-17T17:11:03+05:30*%
%TF.ProjectId,pihat,70696861-742e-46b6-9963-61645f706362,rev?*%
%TF.SameCoordinates,Original*%
%TF.FileFunction,Paste,Top*%
%TF.FilePolarity,Positive*%
%FSLAX46Y46*%
G04 Gerber Fmt 4.6, Leading zero omitted, Abs format (unit mm)*
G04 Created by KiCad (PCBNEW (5.1.9)-1) date 2021-04-17 17:11:03*
%MOMM*%
%LPD*%
G01*
G04 APERTURE LIST*
G04 APERTURE END LIST*
%TO.C,D1*%
G36*
G01*
X233290001Y-38746750D02*
X233290001Y-37834250D01*
G75*
G02*
X233533751Y-37590500I243750J0D01*
G01*
X234021251Y-37590500D01*
G75*
G02*
X234265001Y-37834250I0J-243750D01*
G01*
X234265001Y-38746750D01*
G75*
G02*
X234021251Y-38990500I-243750J0D01*
G01*
X233533751Y-38990500D01*
G75*
G02*
X233290001Y-38746750I0J243750D01*
G01*
G37*
G36*
G01*
X235165001Y-38746750D02*
X235165001Y-37834250D01*
G75*
G02*
X235408751Y-37590500I243750J0D01*
G01*
X235896251Y-37590500D01*
G75*
G02*
X236140001Y-37834250I0J-243750D01*
G01*
X236140001Y-38746750D01*
G75*
G02*
X235896251Y-38990500I-243750J0D01*
G01*
X235408751Y-38990500D01*
G75*
G02*
X235165001Y-38746750I0J243750D01*
G01*
G37*
%TD*%
%TO.C,D2*%
G36*
G01*
X233290001Y-43191750D02*
X233290001Y-42279250D01*
G75*
G02*
X233533751Y-42035500I243750J0D01*
G01*
X234021251Y-42035500D01*
G75*
G02*
X234265001Y-42279250I0J-243750D01*
G01*
X234265001Y-43191750D01*
G75*
G02*
X234021251Y-43435500I-243750J0D01*
G01*
X233533751Y-43435500D01*
G75*
G02*
X233290001Y-43191750I0J243750D01*
G01*
G37*
G36*
G01*
X235165001Y-43191750D02*
X235165001Y-42279250D01*
G75*
G02*
X235408751Y-42035500I243750J0D01*
G01*
X235896251Y-42035500D01*
G75*
G02*
X236140001Y-42279250I0J-243750D01*
G01*
X236140001Y-43191750D01*
G75*
G02*
X235896251Y-43435500I-243750J0D01*
G01*
X235408751Y-43435500D01*
G75*
G02*
X235165001Y-43191750I0J243750D01*
G01*
G37*
%TD*%
%TO.C,R1*%
G36*
G01*
X220332000Y-37983000D02*
X220332000Y-39233000D01*
G75*
G02*
X220082000Y-39483000I-250000J0D01*
G01*
X219157000Y-39483000D01*
G75*
G02*
X218907000Y-39233000I0J250000D01*
G01*
X218907000Y-37983000D01*
G75*
G02*
X219157000Y-37733000I250000J0D01*
G01*
X220082000Y-37733000D01*
G75*
G02*
X220332000Y-37983000I0J-250000D01*
G01*
G37*
G36*
G01*
X223307000Y-37983000D02*
X223307000Y-39233000D01*
G75*
G02*
X223057000Y-39483000I-250000J0D01*
G01*
X222132000Y-39483000D01*
G75*
G02*
X221882000Y-39233000I0J250000D01*
G01*
X221882000Y-37983000D01*
G75*
G02*
X222132000Y-37733000I250000J0D01*
G01*
X223057000Y-37733000D01*
G75*
G02*
X223307000Y-37983000I0J-250000D01*
G01*
G37*
%TD*%
%TO.C,R2*%
G36*
G01*
X226050000Y-37996500D02*
X224800000Y-37996500D01*
G75*
G02*
X224550000Y-37746500I0J250000D01*
G01*
X224550000Y-36821500D01*
G75*
G02*
X224800000Y-36571500I250000J0D01*
G01*
X226050000Y-36571500D01*
G75*
G02*
X226300000Y-36821500I0J-250000D01*
G01*
X226300000Y-37746500D01*
G75*
G02*
X226050000Y-37996500I-250000J0D01*
G01*
G37*
G36*
G01*
X226050000Y-40971500D02*
X224800000Y-40971500D01*
G75*
G02*
X224550000Y-40721500I0J250000D01*
G01*
X224550000Y-39796500D01*
G75*
G02*
X224800000Y-39546500I250000J0D01*
G01*
X226050000Y-39546500D01*
G75*
G02*
X226300000Y-39796500I0J-250000D01*
G01*
X226300000Y-40721500D01*
G75*
G02*
X226050000Y-40971500I-250000J0D01*
G01*
G37*
%TD*%
%TO.C,R3*%
G36*
G01*
X227960500Y-39360000D02*
X227960500Y-38110000D01*
G75*
G02*
X228210500Y-37860000I250000J0D01*
G01*
X229135500Y-37860000D01*
G75*
G02*
X229385500Y-38110000I0J-250000D01*
G01*
X229385500Y-39360000D01*
G75*
G02*
X229135500Y-39610000I-250000J0D01*
G01*
X228210500Y-39610000D01*
G75*
G02*
X227960500Y-39360000I0J250000D01*
G01*
G37*
G36*
G01*
X230935500Y-39360000D02*
X230935500Y-38110000D01*
G75*
G02*
X231185500Y-37860000I250000J0D01*
G01*
X232110500Y-37860000D01*
G75*
G02*
X232360500Y-38110000I0J-250000D01*
G01*
X232360500Y-39360000D01*
G75*
G02*
X232110500Y-39610000I-250000J0D01*
G01*
X231185500Y-39610000D01*
G75*
G02*
X230935500Y-39360000I0J250000D01*
G01*
G37*
%TD*%
%TO.C,R4*%
G36*
G01*
X228087500Y-43424000D02*
X228087500Y-42174000D01*
G75*
G02*
X228337500Y-41924000I250000J0D01*
G01*
X229262500Y-41924000D01*
G75*
G02*
X229512500Y-42174000I0J-250000D01*
G01*
X229512500Y-43424000D01*
G75*
G02*
X229262500Y-43674000I-250000J0D01*
G01*
X228337500Y-43674000D01*
G75*
G02*
X228087500Y-43424000I0J250000D01*
G01*
G37*
G36*
G01*
X231062500Y-43424000D02*
X231062500Y-42174000D01*
G75*
G02*
X231312500Y-41924000I250000J0D01*
G01*
X232237500Y-41924000D01*
G75*
G02*
X232487500Y-42174000I0J-250000D01*
G01*
X232487500Y-43424000D01*
G75*
G02*
X232237500Y-43674000I-250000J0D01*
G01*
X231312500Y-43674000D01*
G75*
G02*
X231062500Y-43424000I0J250000D01*
G01*
G37*
%TD*%
M02*
