M48
INCH,TZ
T1C0.0315
T2C0.0394
T3C0.0400
%
G90
G05
T1
X88650Y-16800
X89550Y-14550
X91400Y-16000
T2
X85600Y-12350
X85600Y-13350
X86600Y-12350
X86600Y-13350
X87600Y-12350
X87600Y-13350
X88600Y-12350
X88600Y-13350
X89550Y-18500
X89600Y-12350
X89600Y-13350
X90550Y-18500
X90600Y-12350
X90600Y-13350
X91550Y-18500
X91600Y-12350
X91600Y-13350
X92550Y-18500
X92600Y-12350
X92600Y-13350
T3
X86160Y-16390
X86160Y-18950
X87940Y-16390
X87940Y-18950
T0
M30
