%TF.GenerationSoftware,KiCad,Pcbnew,(5.1.9)-1*%
%TF.CreationDate,2021-04-22T14:42:40+05:30*%
%TF.ProjectId,arduinoclone,61726475-696e-46f6-936c-6f6e652e6b69,v1*%
%TF.SameCoordinates,Original*%
%TF.FileFunction,Legend,Top*%
%TF.FilePolarity,Positive*%
%FSLAX46Y46*%
G04 Gerber Fmt 4.6, Leading zero omitted, Abs format (unit mm)*
G04 Created by KiCad (PCBNEW (5.1.9)-1) date 2021-04-22 14:42:40*
%MOMM*%
%LPD*%
G01*
G04 APERTURE LIST*
%ADD10C,0.120000*%
%ADD11C,0.150000*%
G04 APERTURE END LIST*
D10*
%TO.C,U1*%
X149509600Y-102905000D02*
X152269600Y-102905000D01*
X152269600Y-102905000D02*
X152269600Y-102160000D01*
X149509600Y-102905000D02*
X146749600Y-102905000D01*
X146749600Y-102905000D02*
X146749600Y-102160000D01*
X149509600Y-96485000D02*
X152269600Y-96485000D01*
X152269600Y-96485000D02*
X152269600Y-97230000D01*
X149509600Y-96485000D02*
X146749600Y-96485000D01*
X146749600Y-96485000D02*
X146749600Y-97230000D01*
X146749600Y-97230000D02*
X145059600Y-97230000D01*
%TO.C,BT1*%
X120894800Y-81931200D02*
X120894800Y-84591200D01*
X123494800Y-81931200D02*
X120894800Y-81931200D01*
X123494800Y-84591200D02*
X120894800Y-84591200D01*
X123494800Y-81931200D02*
X123494800Y-84591200D01*
X124764800Y-81931200D02*
X126094800Y-81931200D01*
X126094800Y-81931200D02*
X126094800Y-83261200D01*
%TO.C,C1*%
X129269748Y-84682400D02*
X129792252Y-84682400D01*
X129269748Y-83262400D02*
X129792252Y-83262400D01*
%TO.C,C2*%
X135583452Y-84682400D02*
X135060948Y-84682400D01*
X135583452Y-83262400D02*
X135060948Y-83262400D01*
%TO.C,C3*%
X123603652Y-88441600D02*
X123081148Y-88441600D01*
X123603652Y-87021600D02*
X123081148Y-87021600D01*
%TO.C,D1*%
X131089800Y-97744400D02*
X128229800Y-97744400D01*
X128229800Y-97744400D02*
X128229800Y-99664400D01*
X128229800Y-99664400D02*
X131089800Y-99664400D01*
%TO.C,J1*%
X121301200Y-107146400D02*
X121301200Y-104546400D01*
X121301200Y-107146400D02*
X129041200Y-107146400D01*
X129041200Y-107146400D02*
X129041200Y-101946400D01*
X123901200Y-101946400D02*
X129041200Y-101946400D01*
X123901200Y-104546400D02*
X123901200Y-101946400D01*
X121301200Y-104546400D02*
X123901200Y-104546400D01*
X121301200Y-101946400D02*
X122631200Y-101946400D01*
X121301200Y-103276400D02*
X121301200Y-101946400D01*
%TO.C,J2*%
X136448800Y-107248000D02*
X136448800Y-104588000D01*
X136448800Y-107248000D02*
X156828800Y-107248000D01*
X156828800Y-107248000D02*
X156828800Y-104588000D01*
X136448800Y-104588000D02*
X156828800Y-104588000D01*
X133848800Y-104588000D02*
X135178800Y-104588000D01*
X133848800Y-105918000D02*
X133848800Y-104588000D01*
%TO.C,J3*%
X152460000Y-79044800D02*
X152460000Y-80374800D01*
X152460000Y-80374800D02*
X151130000Y-80374800D01*
X149860000Y-80374800D02*
X142180000Y-80374800D01*
X142180000Y-77714800D02*
X142180000Y-80374800D01*
X149860000Y-77714800D02*
X142180000Y-77714800D01*
X149860000Y-77714800D02*
X149860000Y-80374800D01*
%TO.C,J4*%
X157082800Y-90779600D02*
X154422800Y-90779600D01*
X157082800Y-90779600D02*
X157082800Y-83099600D01*
X157082800Y-83099600D02*
X154422800Y-83099600D01*
X154422800Y-90779600D02*
X154422800Y-83099600D01*
X154422800Y-93379600D02*
X154422800Y-92049600D01*
X155752800Y-93379600D02*
X154422800Y-93379600D01*
%TO.C,R1*%
X123021348Y-97588000D02*
X123543852Y-97588000D01*
X123021348Y-99008000D02*
X123543852Y-99008000D01*
%TO.C,R2*%
X138304200Y-78952348D02*
X138304200Y-79474852D01*
X139724200Y-78952348D02*
X139724200Y-79474852D01*
D11*
%TO.C,U2*%
X130193600Y-88229600D02*
X128443600Y-88229600D01*
X130193600Y-93534600D02*
X135693600Y-93534600D01*
X130193600Y-88024600D02*
X135693600Y-88024600D01*
X130193600Y-93534600D02*
X130193600Y-93234600D01*
X135693600Y-93534600D02*
X135693600Y-93234600D01*
X135693600Y-88024600D02*
X135693600Y-88324600D01*
X130193600Y-88024600D02*
X130193600Y-88229600D01*
%TO.C,U3*%
X135680000Y-96711400D02*
X135680000Y-96916400D01*
X141180000Y-96711400D02*
X141180000Y-97011400D01*
X141180000Y-102221400D02*
X141180000Y-101921400D01*
X135680000Y-102221400D02*
X135680000Y-101921400D01*
X135680000Y-96711400D02*
X141180000Y-96711400D01*
X135680000Y-102221400D02*
X141180000Y-102221400D01*
X135680000Y-96916400D02*
X133930000Y-96916400D01*
D10*
%TO.C,Y1*%
X122843200Y-92471200D02*
X123943200Y-92471200D01*
X122843200Y-94371200D02*
X123943200Y-94371200D01*
X121443200Y-92521200D02*
X121443200Y-94321200D01*
%TO.C,Y2*%
X129320000Y-81048000D02*
X136570000Y-81048000D01*
X136570000Y-81048000D02*
X136570000Y-77448000D01*
X136570000Y-77448000D02*
X129320000Y-77448000D01*
D11*
%TO.C,U4*%
X142137400Y-84592000D02*
X140712400Y-84592000D01*
X149387400Y-84367000D02*
X149062400Y-84367000D01*
X149387400Y-91617000D02*
X149062400Y-91617000D01*
X142137400Y-91617000D02*
X142462400Y-91617000D01*
X142137400Y-84367000D02*
X142462400Y-84367000D01*
X142137400Y-91617000D02*
X142137400Y-91292000D01*
X149387400Y-91617000D02*
X149387400Y-91292000D01*
X149387400Y-84367000D02*
X149387400Y-84692000D01*
X142137400Y-84367000D02*
X142137400Y-84592000D01*
%TO.C,U1*%
X148747695Y-95097380D02*
X148747695Y-95906904D01*
X148795314Y-96002142D01*
X148842933Y-96049761D01*
X148938171Y-96097380D01*
X149128647Y-96097380D01*
X149223885Y-96049761D01*
X149271504Y-96002142D01*
X149319123Y-95906904D01*
X149319123Y-95097380D01*
X150319123Y-96097380D02*
X149747695Y-96097380D01*
X150033409Y-96097380D02*
X150033409Y-95097380D01*
X149938171Y-95240238D01*
X149842933Y-95335476D01*
X149747695Y-95383095D01*
%TO.C,BT1*%
X127023371Y-84046914D02*
X127070990Y-83904057D01*
X127118609Y-83856438D01*
X127213847Y-83808819D01*
X127356704Y-83808819D01*
X127451942Y-83856438D01*
X127499561Y-83904057D01*
X127547180Y-83999295D01*
X127547180Y-84380247D01*
X126547180Y-84380247D01*
X126547180Y-84046914D01*
X126594800Y-83951676D01*
X126642419Y-83904057D01*
X126737657Y-83856438D01*
X126832895Y-83856438D01*
X126928133Y-83904057D01*
X126975752Y-83951676D01*
X127023371Y-84046914D01*
X127023371Y-84380247D01*
X126547180Y-83523104D02*
X126547180Y-82951676D01*
X127547180Y-83237390D02*
X126547180Y-83237390D01*
X127547180Y-82094533D02*
X127547180Y-82665961D01*
X127547180Y-82380247D02*
X126547180Y-82380247D01*
X126690038Y-82475485D01*
X126785276Y-82570723D01*
X126832895Y-82665961D01*
%TO.C,C1*%
X129364333Y-82679542D02*
X129316714Y-82727161D01*
X129173857Y-82774780D01*
X129078619Y-82774780D01*
X128935761Y-82727161D01*
X128840523Y-82631923D01*
X128792904Y-82536685D01*
X128745285Y-82346209D01*
X128745285Y-82203352D01*
X128792904Y-82012876D01*
X128840523Y-81917638D01*
X128935761Y-81822400D01*
X129078619Y-81774780D01*
X129173857Y-81774780D01*
X129316714Y-81822400D01*
X129364333Y-81870019D01*
X130316714Y-82774780D02*
X129745285Y-82774780D01*
X130031000Y-82774780D02*
X130031000Y-81774780D01*
X129935761Y-81917638D01*
X129840523Y-82012876D01*
X129745285Y-82060495D01*
%TO.C,C2*%
X135155533Y-85979542D02*
X135107914Y-86027161D01*
X134965057Y-86074780D01*
X134869819Y-86074780D01*
X134726961Y-86027161D01*
X134631723Y-85931923D01*
X134584104Y-85836685D01*
X134536485Y-85646209D01*
X134536485Y-85503352D01*
X134584104Y-85312876D01*
X134631723Y-85217638D01*
X134726961Y-85122400D01*
X134869819Y-85074780D01*
X134965057Y-85074780D01*
X135107914Y-85122400D01*
X135155533Y-85170019D01*
X135536485Y-85170019D02*
X135584104Y-85122400D01*
X135679342Y-85074780D01*
X135917438Y-85074780D01*
X136012676Y-85122400D01*
X136060295Y-85170019D01*
X136107914Y-85265257D01*
X136107914Y-85360495D01*
X136060295Y-85503352D01*
X135488866Y-86074780D01*
X136107914Y-86074780D01*
%TO.C,C3*%
X123175733Y-89738742D02*
X123128114Y-89786361D01*
X122985257Y-89833980D01*
X122890019Y-89833980D01*
X122747161Y-89786361D01*
X122651923Y-89691123D01*
X122604304Y-89595885D01*
X122556685Y-89405409D01*
X122556685Y-89262552D01*
X122604304Y-89072076D01*
X122651923Y-88976838D01*
X122747161Y-88881600D01*
X122890019Y-88833980D01*
X122985257Y-88833980D01*
X123128114Y-88881600D01*
X123175733Y-88929219D01*
X123509066Y-88833980D02*
X124128114Y-88833980D01*
X123794780Y-89214933D01*
X123937638Y-89214933D01*
X124032876Y-89262552D01*
X124080495Y-89310171D01*
X124128114Y-89405409D01*
X124128114Y-89643504D01*
X124080495Y-89738742D01*
X124032876Y-89786361D01*
X123937638Y-89833980D01*
X123651923Y-89833980D01*
X123556685Y-89786361D01*
X123509066Y-89738742D01*
%TO.C,D1*%
X129351704Y-97506780D02*
X129351704Y-96506780D01*
X129589800Y-96506780D01*
X129732657Y-96554400D01*
X129827895Y-96649638D01*
X129875514Y-96744876D01*
X129923133Y-96935352D01*
X129923133Y-97078209D01*
X129875514Y-97268685D01*
X129827895Y-97363923D01*
X129732657Y-97459161D01*
X129589800Y-97506780D01*
X129351704Y-97506780D01*
X130875514Y-97506780D02*
X130304085Y-97506780D01*
X130589800Y-97506780D02*
X130589800Y-96506780D01*
X130494561Y-96649638D01*
X130399323Y-96744876D01*
X130304085Y-96792495D01*
%TO.C,J1*%
X119313580Y-104879733D02*
X120027866Y-104879733D01*
X120170723Y-104927352D01*
X120265961Y-105022590D01*
X120313580Y-105165447D01*
X120313580Y-105260685D01*
X120313580Y-103879733D02*
X120313580Y-104451161D01*
X120313580Y-104165447D02*
X119313580Y-104165447D01*
X119456438Y-104260685D01*
X119551676Y-104355923D01*
X119599295Y-104451161D01*
%TO.C,J2*%
X131861180Y-106251333D02*
X132575466Y-106251333D01*
X132718323Y-106298952D01*
X132813561Y-106394190D01*
X132861180Y-106537047D01*
X132861180Y-106632285D01*
X131956419Y-105822761D02*
X131908800Y-105775142D01*
X131861180Y-105679904D01*
X131861180Y-105441809D01*
X131908800Y-105346571D01*
X131956419Y-105298952D01*
X132051657Y-105251333D01*
X132146895Y-105251333D01*
X132289752Y-105298952D01*
X132861180Y-105870380D01*
X132861180Y-105251333D01*
%TO.C,J3*%
X153352380Y-79378133D02*
X154066666Y-79378133D01*
X154209523Y-79425752D01*
X154304761Y-79520990D01*
X154352380Y-79663847D01*
X154352380Y-79759085D01*
X153352380Y-78997180D02*
X153352380Y-78378133D01*
X153733333Y-78711466D01*
X153733333Y-78568609D01*
X153780952Y-78473371D01*
X153828571Y-78425752D01*
X153923809Y-78378133D01*
X154161904Y-78378133D01*
X154257142Y-78425752D01*
X154304761Y-78473371D01*
X154352380Y-78568609D01*
X154352380Y-78854323D01*
X154304761Y-78949561D01*
X154257142Y-78997180D01*
%TO.C,J4*%
X155419466Y-94271980D02*
X155419466Y-94986266D01*
X155371847Y-95129123D01*
X155276609Y-95224361D01*
X155133752Y-95271980D01*
X155038514Y-95271980D01*
X156324228Y-94605314D02*
X156324228Y-95271980D01*
X156086133Y-94224361D02*
X155848038Y-94938647D01*
X156467085Y-94938647D01*
%TO.C,R1*%
X123115933Y-97100380D02*
X122782600Y-96624190D01*
X122544504Y-97100380D02*
X122544504Y-96100380D01*
X122925457Y-96100380D01*
X123020695Y-96148000D01*
X123068314Y-96195619D01*
X123115933Y-96290857D01*
X123115933Y-96433714D01*
X123068314Y-96528952D01*
X123020695Y-96576571D01*
X122925457Y-96624190D01*
X122544504Y-96624190D01*
X124068314Y-97100380D02*
X123496885Y-97100380D01*
X123782600Y-97100380D02*
X123782600Y-96100380D01*
X123687361Y-96243238D01*
X123592123Y-96338476D01*
X123496885Y-96386095D01*
%TO.C,R2*%
X141116580Y-79380266D02*
X140640390Y-79713600D01*
X141116580Y-79951695D02*
X140116580Y-79951695D01*
X140116580Y-79570742D01*
X140164200Y-79475504D01*
X140211819Y-79427885D01*
X140307057Y-79380266D01*
X140449914Y-79380266D01*
X140545152Y-79427885D01*
X140592771Y-79475504D01*
X140640390Y-79570742D01*
X140640390Y-79951695D01*
X140211819Y-78999314D02*
X140164200Y-78951695D01*
X140116580Y-78856457D01*
X140116580Y-78618361D01*
X140164200Y-78523123D01*
X140211819Y-78475504D01*
X140307057Y-78427885D01*
X140402295Y-78427885D01*
X140545152Y-78475504D01*
X141116580Y-79046933D01*
X141116580Y-78427885D01*
%TO.C,U2*%
X132181695Y-86551980D02*
X132181695Y-87361504D01*
X132229314Y-87456742D01*
X132276933Y-87504361D01*
X132372171Y-87551980D01*
X132562647Y-87551980D01*
X132657885Y-87504361D01*
X132705504Y-87456742D01*
X132753123Y-87361504D01*
X132753123Y-86551980D01*
X133181695Y-86647219D02*
X133229314Y-86599600D01*
X133324552Y-86551980D01*
X133562647Y-86551980D01*
X133657885Y-86599600D01*
X133705504Y-86647219D01*
X133753123Y-86742457D01*
X133753123Y-86837695D01*
X133705504Y-86980552D01*
X133134076Y-87551980D01*
X133753123Y-87551980D01*
%TO.C,U3*%
X137668095Y-95238780D02*
X137668095Y-96048304D01*
X137715714Y-96143542D01*
X137763333Y-96191161D01*
X137858571Y-96238780D01*
X138049047Y-96238780D01*
X138144285Y-96191161D01*
X138191904Y-96143542D01*
X138239523Y-96048304D01*
X138239523Y-95238780D01*
X138620476Y-95238780D02*
X139239523Y-95238780D01*
X138906190Y-95619733D01*
X139049047Y-95619733D01*
X139144285Y-95667352D01*
X139191904Y-95714971D01*
X139239523Y-95810209D01*
X139239523Y-96048304D01*
X139191904Y-96143542D01*
X139144285Y-96191161D01*
X139049047Y-96238780D01*
X138763333Y-96238780D01*
X138668095Y-96191161D01*
X138620476Y-96143542D01*
%TO.C,Y1*%
X122917009Y-91447390D02*
X122917009Y-91923580D01*
X122583676Y-90923580D02*
X122917009Y-91447390D01*
X123250342Y-90923580D01*
X124107485Y-91923580D02*
X123536057Y-91923580D01*
X123821771Y-91923580D02*
X123821771Y-90923580D01*
X123726533Y-91066438D01*
X123631295Y-91161676D01*
X123536057Y-91209295D01*
%TO.C,Y2*%
X131543809Y-82024190D02*
X131543809Y-82500380D01*
X131210476Y-81500380D02*
X131543809Y-82024190D01*
X131877142Y-81500380D01*
X132162857Y-81595619D02*
X132210476Y-81548000D01*
X132305714Y-81500380D01*
X132543809Y-81500380D01*
X132639047Y-81548000D01*
X132686666Y-81595619D01*
X132734285Y-81690857D01*
X132734285Y-81786095D01*
X132686666Y-81928952D01*
X132115238Y-82500380D01*
X132734285Y-82500380D01*
%TO.C,U4*%
X145000495Y-81394380D02*
X145000495Y-82203904D01*
X145048114Y-82299142D01*
X145095733Y-82346761D01*
X145190971Y-82394380D01*
X145381447Y-82394380D01*
X145476685Y-82346761D01*
X145524304Y-82299142D01*
X145571923Y-82203904D01*
X145571923Y-81394380D01*
X146476685Y-81727714D02*
X146476685Y-82394380D01*
X146238590Y-81346761D02*
X146000495Y-82061047D01*
X146619542Y-82061047D01*
%TD*%
M02*
