%TF.GenerationSoftware,KiCad,Pcbnew,(5.1.9)-1*%
%TF.CreationDate,2021-04-22T14:42:39+05:30*%
%TF.ProjectId,arduinoclone,61726475-696e-46f6-936c-6f6e652e6b69,v1*%
%TF.SameCoordinates,Original*%
%TF.FileFunction,Copper,L2,Inr*%
%TF.FilePolarity,Positive*%
%FSLAX46Y46*%
G04 Gerber Fmt 4.6, Leading zero omitted, Abs format (unit mm)*
G04 Created by KiCad (PCBNEW (5.1.9)-1) date 2021-04-22 14:42:39*
%MOMM*%
%LPD*%
G01*
G04 APERTURE LIST*
%TA.AperFunction,ComponentPad*%
%ADD10R,1.700000X1.700000*%
%TD*%
%TA.AperFunction,ComponentPad*%
%ADD11O,1.700000X1.700000*%
%TD*%
%TA.AperFunction,ViaPad*%
%ADD12C,1.000000*%
%TD*%
%TA.AperFunction,ViaPad*%
%ADD13C,0.800000*%
%TD*%
%TA.AperFunction,Conductor*%
%ADD14C,0.250000*%
%TD*%
G04 APERTURE END LIST*
D10*
%TO.N,/VCC*%
%TO.C,BT1*%
X124764800Y-83261200D03*
D11*
%TO.N,GNDPWR*%
X122224800Y-83261200D03*
%TD*%
D10*
%TO.N,/MISO*%
%TO.C,J1*%
X122631200Y-103276400D03*
D11*
%TO.N,/SCK*%
X122631200Y-105816400D03*
%TO.N,/RESET*%
X125171200Y-103276400D03*
%TO.N,GNDPWR*%
X125171200Y-105816400D03*
%TO.N,/MOSI*%
X127711200Y-103276400D03*
%TO.N,/VCC*%
X127711200Y-105816400D03*
%TD*%
D10*
%TO.N,/D2*%
%TO.C,J2*%
X135178800Y-105918000D03*
D11*
%TO.N,/D3*%
X137718800Y-105918000D03*
%TO.N,/D4*%
X140258800Y-105918000D03*
%TO.N,/D5*%
X142798800Y-105918000D03*
%TO.N,/D6*%
X145338800Y-105918000D03*
%TO.N,/D7*%
X147878800Y-105918000D03*
%TO.N,/D8*%
X150418800Y-105918000D03*
%TO.N,GNDPWR*%
X152958800Y-105918000D03*
%TO.N,/VCC*%
X155498800Y-105918000D03*
%TD*%
%TO.N,/TX*%
%TO.C,J3*%
X143510000Y-79044800D03*
%TO.N,/RX*%
X146050000Y-79044800D03*
%TO.N,/VCC*%
X148590000Y-79044800D03*
D10*
%TO.N,GNDPWR*%
X151130000Y-79044800D03*
%TD*%
%TO.N,GNDPWR*%
%TO.C,J4*%
X155752800Y-92049600D03*
D11*
%TO.N,/VCC*%
X155752800Y-89509600D03*
%TO.N,/SDA*%
X155752800Y-86969600D03*
%TO.N,/SCK*%
X155752800Y-84429600D03*
%TD*%
D12*
%TO.N,/VCC*%
X148361400Y-90043000D03*
X132613400Y-86410800D03*
X139065000Y-88442800D03*
%TO.N,GNDPWR*%
X151892000Y-87376000D03*
X121374801Y-90158201D03*
D13*
%TO.N,Net-(C1-Pad1)*%
X133687200Y-82252200D03*
X143078200Y-89966800D03*
%TO.N,Net-(C2-Pad1)*%
X138785600Y-86725601D03*
X143799034Y-90659910D03*
%TO.N,/SCK*%
X154914600Y-100152200D03*
X144145000Y-103352600D03*
X138049000Y-100558600D03*
X140868400Y-92456000D03*
%TO.N,/MISO*%
X151104600Y-94843600D03*
X126542800Y-100558600D03*
%TO.N,/RESET*%
X146862800Y-85293200D03*
X130941409Y-96875600D03*
%TO.N,/MOSI*%
X130048000Y-100685600D03*
X150190200Y-94234000D03*
%TO.N,/D2*%
X145999200Y-87630000D03*
X137769600Y-103530400D03*
%TO.N,/D3*%
X139446000Y-103733600D03*
X139890001Y-84010001D03*
%TO.N,/D4*%
X140411200Y-100888800D03*
X144526000Y-85902800D03*
%TO.N,/D5*%
X143230600Y-95986600D03*
%TO.N,/D6*%
X144526000Y-96139000D03*
%TO.N,/D7*%
X145948400Y-95968599D03*
%TO.N,/D8*%
X147040600Y-95968599D03*
%TO.N,/SDA*%
X142417800Y-102895400D03*
X155639600Y-102495401D03*
X138430000Y-92684600D03*
X153619200Y-95453200D03*
%TO.N,Net-(U1-Pad1)*%
X127558800Y-94081600D03*
X151180800Y-97282000D03*
%TO.N,Net-(U1-Pad2)*%
X124917200Y-95707200D03*
X151028400Y-98501200D03*
%TO.N,/ADDS2*%
X131318000Y-90424000D03*
X134061200Y-95968599D03*
X147878800Y-85394800D03*
%TO.N,/ADDS1*%
X132435600Y-89611200D03*
X135890000Y-95968599D03*
X147878800Y-87071200D03*
%TD*%
D14*
%TO.N,Net-(C1-Pad1)*%
X133687200Y-82252200D02*
X135363600Y-82252200D01*
X135363600Y-82252200D02*
X143078200Y-89966800D01*
%TO.N,Net-(C2-Pad1)*%
X138785600Y-86725601D02*
X142751800Y-90691801D01*
X143767143Y-90691801D02*
X143799034Y-90659910D01*
X142751800Y-90691801D02*
X143767143Y-90691801D01*
%TO.N,/SCK*%
X154514601Y-85667799D02*
X155752800Y-84429600D01*
X154514601Y-99752201D02*
X154514601Y-85667799D01*
X154914600Y-100152200D02*
X154514601Y-99752201D01*
X144145000Y-103352600D02*
X154762200Y-103352600D01*
X154914600Y-103200200D02*
X154914600Y-100152200D01*
X154762200Y-103352600D02*
X154914600Y-103200200D01*
X137649001Y-100158601D02*
X137649001Y-95929399D01*
X138049000Y-100558600D02*
X137649001Y-100158601D01*
X137649001Y-95929399D02*
X141071600Y-92506800D01*
X141020800Y-92456000D02*
X140868400Y-92456000D01*
X141071600Y-92506800D02*
X141020800Y-92456000D01*
%TO.N,/ADDS2*%
X131717999Y-90823999D02*
X131717999Y-93516399D01*
X131318000Y-90424000D02*
X131717999Y-90823999D01*
X131717999Y-93516399D02*
X134061200Y-95859600D01*
X134061200Y-95859600D02*
X134061200Y-95968599D01*
X133339199Y-81527199D02*
X144265199Y-81527199D01*
X131318000Y-83548398D02*
X133339199Y-81527199D01*
X131318000Y-90424000D02*
X131318000Y-83548398D01*
X144265199Y-81527199D02*
X147980400Y-85242400D01*
X147878800Y-85344000D02*
X147878800Y-85394800D01*
X147980400Y-85242400D02*
X147878800Y-85344000D01*
%TO.N,/ADDS1*%
X132435600Y-89611200D02*
X132435600Y-92557600D01*
X132435600Y-92557600D02*
X135737600Y-95859600D01*
X135846599Y-95968599D02*
X135890000Y-95968599D01*
X135737600Y-95859600D02*
X135846599Y-95968599D01*
X144147035Y-91384911D02*
X147878800Y-87653146D01*
X134209311Y-91384911D02*
X144147035Y-91384911D01*
X132435600Y-89611200D02*
X134209311Y-91384911D01*
X147878800Y-87653146D02*
X147878800Y-87071200D01*
%TD*%
M02*
