M48
INCH,TZ
T1C0.0157
T2C0.0236
T3C0.0394
%
G90
G05
T1
X49180Y-37680
X49820Y-39590
X50220Y-37040
X51200Y-39640
X51552Y-38140
X51700Y-35600
X52140Y-35280
X52633Y-32383
X52780Y-37783
X53500Y-37783
X54240Y-40760
X54350Y-39590
X54500Y-36490
X54640Y-34144
X54900Y-40840
X55075Y-33075
X55280Y-39720
X55460Y-36400
X56070Y-40510
X56330Y-35420
X56390Y-37790
X56614Y-35693
X56750Y-40690
X56900Y-33820
X56900Y-37850
X57460Y-37783
X57480Y-34500
X57820Y-33580
X57890Y-37783
X58220Y-33620
X58220Y-34280
X59130Y-37100
X59460Y-38780
X59490Y-37340
X59520Y-38300
X60480Y-37580
X60990Y-39430
X61275Y-40353
T2
X47785Y-35495
X52210Y-34020
X54750Y-34820
X58410Y-35450
X59800Y-34400
T3
X48120Y-32780
X48280Y-40660
X48280Y-41660
X49120Y-32780
X49280Y-40660
X49280Y-41660
X50280Y-40660
X50280Y-41660
X53220Y-41700
X54220Y-41700
X55220Y-41700
X56220Y-41700
X56500Y-31120
X57220Y-41700
X57500Y-31120
X58220Y-41700
X58500Y-31120
X59220Y-41700
X59500Y-31120
X60220Y-41700
X61220Y-41700
X61320Y-33240
X61320Y-34240
X61320Y-35240
X61320Y-36240
T0
M30
