%TF.GenerationSoftware,KiCad,Pcbnew,(5.1.9)-1*%
%TF.CreationDate,2021-04-22T14:42:40+05:30*%
%TF.ProjectId,arduinoclone,61726475-696e-46f6-936c-6f6e652e6b69,v1*%
%TF.SameCoordinates,Original*%
%TF.FileFunction,Copper,L6,Bot*%
%TF.FilePolarity,Positive*%
%FSLAX46Y46*%
G04 Gerber Fmt 4.6, Leading zero omitted, Abs format (unit mm)*
G04 Created by KiCad (PCBNEW (5.1.9)-1) date 2021-04-22 14:42:40*
%MOMM*%
%LPD*%
G01*
G04 APERTURE LIST*
%TA.AperFunction,ComponentPad*%
%ADD10R,1.700000X1.700000*%
%TD*%
%TA.AperFunction,ComponentPad*%
%ADD11O,1.700000X1.700000*%
%TD*%
%TA.AperFunction,ViaPad*%
%ADD12C,1.000000*%
%TD*%
%TA.AperFunction,ViaPad*%
%ADD13C,0.800000*%
%TD*%
%TA.AperFunction,Conductor*%
%ADD14C,0.300000*%
%TD*%
%TA.AperFunction,Conductor*%
%ADD15C,0.250000*%
%TD*%
%TA.AperFunction,Conductor*%
%ADD16C,0.254000*%
%TD*%
%TA.AperFunction,Conductor*%
%ADD17C,0.100000*%
%TD*%
G04 APERTURE END LIST*
D10*
%TO.P,BT1,1*%
%TO.N,/VCC*%
X124764800Y-83261200D03*
D11*
%TO.P,BT1,2*%
%TO.N,GNDPWR*%
X122224800Y-83261200D03*
%TD*%
D10*
%TO.P,J1,1*%
%TO.N,/MISO*%
X122631200Y-103276400D03*
D11*
%TO.P,J1,2*%
%TO.N,/SCK*%
X122631200Y-105816400D03*
%TO.P,J1,3*%
%TO.N,/RESET*%
X125171200Y-103276400D03*
%TO.P,J1,4*%
%TO.N,GNDPWR*%
X125171200Y-105816400D03*
%TO.P,J1,5*%
%TO.N,/MOSI*%
X127711200Y-103276400D03*
%TO.P,J1,6*%
%TO.N,/VCC*%
X127711200Y-105816400D03*
%TD*%
D10*
%TO.P,J2,1*%
%TO.N,/D2*%
X135178800Y-105918000D03*
D11*
%TO.P,J2,2*%
%TO.N,/D3*%
X137718800Y-105918000D03*
%TO.P,J2,3*%
%TO.N,/D4*%
X140258800Y-105918000D03*
%TO.P,J2,4*%
%TO.N,/D5*%
X142798800Y-105918000D03*
%TO.P,J2,5*%
%TO.N,/D6*%
X145338800Y-105918000D03*
%TO.P,J2,6*%
%TO.N,/D7*%
X147878800Y-105918000D03*
%TO.P,J2,7*%
%TO.N,/D8*%
X150418800Y-105918000D03*
%TO.P,J2,8*%
%TO.N,GNDPWR*%
X152958800Y-105918000D03*
%TO.P,J2,9*%
%TO.N,/VCC*%
X155498800Y-105918000D03*
%TD*%
%TO.P,J3,4*%
%TO.N,/TX*%
X143510000Y-79044800D03*
%TO.P,J3,3*%
%TO.N,/RX*%
X146050000Y-79044800D03*
%TO.P,J3,2*%
%TO.N,/VCC*%
X148590000Y-79044800D03*
D10*
%TO.P,J3,1*%
%TO.N,GNDPWR*%
X151130000Y-79044800D03*
%TD*%
%TO.P,J4,1*%
%TO.N,GNDPWR*%
X155752800Y-92049600D03*
D11*
%TO.P,J4,2*%
%TO.N,/VCC*%
X155752800Y-89509600D03*
%TO.P,J4,3*%
%TO.N,/SDA*%
X155752800Y-86969600D03*
%TO.P,J4,4*%
%TO.N,/SCK*%
X155752800Y-84429600D03*
%TD*%
D12*
%TO.N,/VCC*%
X148361400Y-90043000D03*
X132613400Y-86410800D03*
X139065000Y-88442800D03*
%TO.N,GNDPWR*%
X151892000Y-87376000D03*
X121374801Y-90158201D03*
D13*
%TO.N,Net-(C1-Pad1)*%
X133687200Y-82252200D03*
X143078200Y-89966800D03*
%TO.N,Net-(C2-Pad1)*%
X138785600Y-86725601D03*
X143799034Y-90659910D03*
%TO.N,/SCK*%
X154914600Y-100152200D03*
X144145000Y-103352600D03*
X138049000Y-100558600D03*
X140868400Y-92456000D03*
%TO.N,/MISO*%
X151104600Y-94843600D03*
X126542800Y-100558600D03*
%TO.N,/RESET*%
X146862800Y-85293200D03*
X130941409Y-96875600D03*
%TO.N,/MOSI*%
X130048000Y-100685600D03*
X150190200Y-94234000D03*
%TO.N,/D2*%
X145999200Y-87630000D03*
X137769600Y-103530400D03*
%TO.N,/D3*%
X139446000Y-103733600D03*
X139890001Y-84010001D03*
%TO.N,/D4*%
X140411200Y-100888800D03*
X144526000Y-85902800D03*
%TO.N,/D5*%
X143230600Y-95986600D03*
%TO.N,/D6*%
X144526000Y-96139000D03*
%TO.N,/D7*%
X145948400Y-95968599D03*
%TO.N,/D8*%
X147040600Y-95968599D03*
%TO.N,/SDA*%
X142417800Y-102895400D03*
X155639600Y-102495401D03*
X138430000Y-92684600D03*
X153619200Y-95453200D03*
%TO.N,Net-(U1-Pad1)*%
X127558800Y-94081600D03*
X151180800Y-97282000D03*
%TO.N,Net-(U1-Pad2)*%
X124917200Y-95707200D03*
X151028400Y-98501200D03*
%TO.N,/ADDS2*%
X131318000Y-90424000D03*
X134061200Y-95968599D03*
X147878800Y-85394800D03*
%TO.N,/ADDS1*%
X132435600Y-89611200D03*
X135890000Y-95968599D03*
X147878800Y-87071200D03*
%TD*%
D14*
%TO.N,/VCC*%
X155219400Y-90043000D02*
X155752800Y-89509600D01*
X148361400Y-90043000D02*
X155219400Y-90043000D01*
X132613400Y-86410800D02*
X137033000Y-86410800D01*
X137033000Y-86410800D02*
X139065000Y-88442800D01*
%TO.N,GNDPWR*%
X151892000Y-79806800D02*
X151130000Y-79044800D01*
X124079000Y-81407000D02*
X122224800Y-83261200D01*
X151892000Y-81407000D02*
X124079000Y-81407000D01*
X151892000Y-87376000D02*
X151892000Y-81407000D01*
X151892000Y-81407000D02*
X151892000Y-79806800D01*
X123971199Y-107016401D02*
X125171200Y-105816400D01*
X122055199Y-107016401D02*
X123971199Y-107016401D01*
X121374801Y-106336003D02*
X122055199Y-107016401D01*
X122224800Y-83261200D02*
X121374801Y-84111199D01*
X157454600Y-93751400D02*
X155752800Y-92049600D01*
X157048200Y-107492800D02*
X157454600Y-107086400D01*
X157454600Y-107086400D02*
X157454600Y-93751400D01*
X154533600Y-107492800D02*
X157048200Y-107492800D01*
X152958800Y-105918000D02*
X154533600Y-107492800D01*
X121374801Y-90158201D02*
X121374801Y-106336003D01*
X121374801Y-84111199D02*
X121374801Y-90158201D01*
D15*
%TO.N,/RESET*%
X138198210Y-89618799D02*
X130941409Y-96875600D01*
X141971516Y-89618799D02*
X138198210Y-89618799D01*
X146297115Y-85293200D02*
X141971516Y-89618799D01*
X146862800Y-85293200D02*
X146297115Y-85293200D01*
%TD*%
D16*
%TO.N,GNDPWR*%
X153746200Y-81178400D02*
X153748640Y-81203176D01*
X153755867Y-81227001D01*
X153767603Y-81248957D01*
X153783397Y-81268203D01*
X153802643Y-81283997D01*
X153824599Y-81295733D01*
X153848424Y-81302960D01*
X153870555Y-81305372D01*
X158445601Y-81400685D01*
X158445600Y-107493200D01*
X120723502Y-107493200D01*
X120655816Y-102426400D01*
X121143128Y-102426400D01*
X121143128Y-104126400D01*
X121155388Y-104250882D01*
X121191698Y-104370580D01*
X121250663Y-104480894D01*
X121330015Y-104577585D01*
X121426706Y-104656937D01*
X121537020Y-104715902D01*
X121609580Y-104737913D01*
X121477725Y-104869768D01*
X121315210Y-105112989D01*
X121203268Y-105383242D01*
X121146200Y-105670140D01*
X121146200Y-105962660D01*
X121203268Y-106249558D01*
X121315210Y-106519811D01*
X121477725Y-106763032D01*
X121684568Y-106969875D01*
X121927789Y-107132390D01*
X122198042Y-107244332D01*
X122484940Y-107301400D01*
X122777460Y-107301400D01*
X123064358Y-107244332D01*
X123334611Y-107132390D01*
X123577832Y-106969875D01*
X123784675Y-106763032D01*
X123906395Y-106580866D01*
X123976022Y-106697755D01*
X124170931Y-106913988D01*
X124404280Y-107088041D01*
X124667101Y-107213225D01*
X124814310Y-107257876D01*
X125044200Y-107136555D01*
X125044200Y-105943400D01*
X125024200Y-105943400D01*
X125024200Y-105689400D01*
X125044200Y-105689400D01*
X125044200Y-105669400D01*
X125298200Y-105669400D01*
X125298200Y-105689400D01*
X125318200Y-105689400D01*
X125318200Y-105943400D01*
X125298200Y-105943400D01*
X125298200Y-107136555D01*
X125528090Y-107257876D01*
X125675299Y-107213225D01*
X125938120Y-107088041D01*
X126171469Y-106913988D01*
X126366378Y-106697755D01*
X126436005Y-106580866D01*
X126557725Y-106763032D01*
X126764568Y-106969875D01*
X127007789Y-107132390D01*
X127278042Y-107244332D01*
X127564940Y-107301400D01*
X127857460Y-107301400D01*
X128144358Y-107244332D01*
X128414611Y-107132390D01*
X128657832Y-106969875D01*
X128864675Y-106763032D01*
X129027190Y-106519811D01*
X129139132Y-106249558D01*
X129196200Y-105962660D01*
X129196200Y-105670140D01*
X129139132Y-105383242D01*
X129027190Y-105112989D01*
X128997130Y-105068000D01*
X133690728Y-105068000D01*
X133690728Y-106768000D01*
X133702988Y-106892482D01*
X133739298Y-107012180D01*
X133798263Y-107122494D01*
X133877615Y-107219185D01*
X133974306Y-107298537D01*
X134084620Y-107357502D01*
X134204318Y-107393812D01*
X134328800Y-107406072D01*
X136028800Y-107406072D01*
X136153282Y-107393812D01*
X136272980Y-107357502D01*
X136383294Y-107298537D01*
X136479985Y-107219185D01*
X136559337Y-107122494D01*
X136618302Y-107012180D01*
X136640313Y-106939620D01*
X136772168Y-107071475D01*
X137015389Y-107233990D01*
X137285642Y-107345932D01*
X137572540Y-107403000D01*
X137865060Y-107403000D01*
X138151958Y-107345932D01*
X138422211Y-107233990D01*
X138665432Y-107071475D01*
X138872275Y-106864632D01*
X138988800Y-106690240D01*
X139105325Y-106864632D01*
X139312168Y-107071475D01*
X139555389Y-107233990D01*
X139825642Y-107345932D01*
X140112540Y-107403000D01*
X140405060Y-107403000D01*
X140691958Y-107345932D01*
X140962211Y-107233990D01*
X141205432Y-107071475D01*
X141412275Y-106864632D01*
X141528800Y-106690240D01*
X141645325Y-106864632D01*
X141852168Y-107071475D01*
X142095389Y-107233990D01*
X142365642Y-107345932D01*
X142652540Y-107403000D01*
X142945060Y-107403000D01*
X143231958Y-107345932D01*
X143502211Y-107233990D01*
X143745432Y-107071475D01*
X143952275Y-106864632D01*
X144068800Y-106690240D01*
X144185325Y-106864632D01*
X144392168Y-107071475D01*
X144635389Y-107233990D01*
X144905642Y-107345932D01*
X145192540Y-107403000D01*
X145485060Y-107403000D01*
X145771958Y-107345932D01*
X146042211Y-107233990D01*
X146285432Y-107071475D01*
X146492275Y-106864632D01*
X146608800Y-106690240D01*
X146725325Y-106864632D01*
X146932168Y-107071475D01*
X147175389Y-107233990D01*
X147445642Y-107345932D01*
X147732540Y-107403000D01*
X148025060Y-107403000D01*
X148311958Y-107345932D01*
X148582211Y-107233990D01*
X148825432Y-107071475D01*
X149032275Y-106864632D01*
X149148800Y-106690240D01*
X149265325Y-106864632D01*
X149472168Y-107071475D01*
X149715389Y-107233990D01*
X149985642Y-107345932D01*
X150272540Y-107403000D01*
X150565060Y-107403000D01*
X150851958Y-107345932D01*
X151122211Y-107233990D01*
X151365432Y-107071475D01*
X151572275Y-106864632D01*
X151693995Y-106682466D01*
X151763622Y-106799355D01*
X151958531Y-107015588D01*
X152191880Y-107189641D01*
X152454701Y-107314825D01*
X152601910Y-107359476D01*
X152831800Y-107238155D01*
X152831800Y-106045000D01*
X152811800Y-106045000D01*
X152811800Y-105791000D01*
X152831800Y-105791000D01*
X152831800Y-104597845D01*
X153085800Y-104597845D01*
X153085800Y-105791000D01*
X153105800Y-105791000D01*
X153105800Y-106045000D01*
X153085800Y-106045000D01*
X153085800Y-107238155D01*
X153315690Y-107359476D01*
X153462899Y-107314825D01*
X153725720Y-107189641D01*
X153959069Y-107015588D01*
X154153978Y-106799355D01*
X154223605Y-106682466D01*
X154345325Y-106864632D01*
X154552168Y-107071475D01*
X154795389Y-107233990D01*
X155065642Y-107345932D01*
X155352540Y-107403000D01*
X155645060Y-107403000D01*
X155931958Y-107345932D01*
X156202211Y-107233990D01*
X156445432Y-107071475D01*
X156652275Y-106864632D01*
X156814790Y-106621411D01*
X156926732Y-106351158D01*
X156983800Y-106064260D01*
X156983800Y-105771740D01*
X156926732Y-105484842D01*
X156814790Y-105214589D01*
X156652275Y-104971368D01*
X156445432Y-104764525D01*
X156202211Y-104602010D01*
X155931958Y-104490068D01*
X155645060Y-104433000D01*
X155352540Y-104433000D01*
X155065642Y-104490068D01*
X154795389Y-104602010D01*
X154552168Y-104764525D01*
X154345325Y-104971368D01*
X154223605Y-105153534D01*
X154153978Y-105036645D01*
X153959069Y-104820412D01*
X153725720Y-104646359D01*
X153462899Y-104521175D01*
X153315690Y-104476524D01*
X153085800Y-104597845D01*
X152831800Y-104597845D01*
X152601910Y-104476524D01*
X152454701Y-104521175D01*
X152191880Y-104646359D01*
X151958531Y-104820412D01*
X151763622Y-105036645D01*
X151693995Y-105153534D01*
X151572275Y-104971368D01*
X151365432Y-104764525D01*
X151122211Y-104602010D01*
X150851958Y-104490068D01*
X150565060Y-104433000D01*
X150272540Y-104433000D01*
X149985642Y-104490068D01*
X149715389Y-104602010D01*
X149472168Y-104764525D01*
X149265325Y-104971368D01*
X149148800Y-105145760D01*
X149032275Y-104971368D01*
X148825432Y-104764525D01*
X148582211Y-104602010D01*
X148311958Y-104490068D01*
X148025060Y-104433000D01*
X147732540Y-104433000D01*
X147445642Y-104490068D01*
X147175389Y-104602010D01*
X146932168Y-104764525D01*
X146725325Y-104971368D01*
X146608800Y-105145760D01*
X146492275Y-104971368D01*
X146285432Y-104764525D01*
X146042211Y-104602010D01*
X145771958Y-104490068D01*
X145485060Y-104433000D01*
X145192540Y-104433000D01*
X144905642Y-104490068D01*
X144635389Y-104602010D01*
X144392168Y-104764525D01*
X144185325Y-104971368D01*
X144068800Y-105145760D01*
X143952275Y-104971368D01*
X143745432Y-104764525D01*
X143502211Y-104602010D01*
X143231958Y-104490068D01*
X142945060Y-104433000D01*
X142652540Y-104433000D01*
X142365642Y-104490068D01*
X142095389Y-104602010D01*
X141852168Y-104764525D01*
X141645325Y-104971368D01*
X141528800Y-105145760D01*
X141412275Y-104971368D01*
X141205432Y-104764525D01*
X140962211Y-104602010D01*
X140691958Y-104490068D01*
X140405060Y-104433000D01*
X140210311Y-104433000D01*
X140249937Y-104393374D01*
X140363205Y-104223856D01*
X140441226Y-104035498D01*
X140481000Y-103835539D01*
X140481000Y-103631661D01*
X140441226Y-103431702D01*
X140363205Y-103243344D01*
X140249937Y-103073826D01*
X140105774Y-102929663D01*
X139936256Y-102816395D01*
X139880889Y-102793461D01*
X141382800Y-102793461D01*
X141382800Y-102997339D01*
X141422574Y-103197298D01*
X141500595Y-103385656D01*
X141613863Y-103555174D01*
X141758026Y-103699337D01*
X141927544Y-103812605D01*
X142115902Y-103890626D01*
X142315861Y-103930400D01*
X142519739Y-103930400D01*
X142719698Y-103890626D01*
X142908056Y-103812605D01*
X143077574Y-103699337D01*
X143145235Y-103631676D01*
X143149774Y-103654498D01*
X143227795Y-103842856D01*
X143341063Y-104012374D01*
X143485226Y-104156537D01*
X143654744Y-104269805D01*
X143843102Y-104347826D01*
X144043061Y-104387600D01*
X144246939Y-104387600D01*
X144446898Y-104347826D01*
X144635256Y-104269805D01*
X144804774Y-104156537D01*
X144948937Y-104012374D01*
X145062205Y-103842856D01*
X145140226Y-103654498D01*
X145180000Y-103454539D01*
X145180000Y-103250661D01*
X145140226Y-103050702D01*
X145062205Y-102862344D01*
X144948937Y-102692826D01*
X144804774Y-102548663D01*
X144635256Y-102435395D01*
X144534022Y-102393462D01*
X154604600Y-102393462D01*
X154604600Y-102597340D01*
X154644374Y-102797299D01*
X154722395Y-102985657D01*
X154835663Y-103155175D01*
X154979826Y-103299338D01*
X155149344Y-103412606D01*
X155337702Y-103490627D01*
X155537661Y-103530401D01*
X155741539Y-103530401D01*
X155941498Y-103490627D01*
X156129856Y-103412606D01*
X156299374Y-103299338D01*
X156443537Y-103155175D01*
X156556805Y-102985657D01*
X156634826Y-102797299D01*
X156674600Y-102597340D01*
X156674600Y-102393462D01*
X156634826Y-102193503D01*
X156556805Y-102005145D01*
X156443537Y-101835627D01*
X156299374Y-101691464D01*
X156129856Y-101578196D01*
X155941498Y-101500175D01*
X155741539Y-101460401D01*
X155537661Y-101460401D01*
X155337702Y-101500175D01*
X155149344Y-101578196D01*
X154979826Y-101691464D01*
X154835663Y-101835627D01*
X154722395Y-102005145D01*
X154644374Y-102193503D01*
X154604600Y-102393462D01*
X144534022Y-102393462D01*
X144446898Y-102357374D01*
X144246939Y-102317600D01*
X144043061Y-102317600D01*
X143843102Y-102357374D01*
X143654744Y-102435395D01*
X143485226Y-102548663D01*
X143417565Y-102616324D01*
X143413026Y-102593502D01*
X143335005Y-102405144D01*
X143221737Y-102235626D01*
X143077574Y-102091463D01*
X142908056Y-101978195D01*
X142719698Y-101900174D01*
X142519739Y-101860400D01*
X142315861Y-101860400D01*
X142115902Y-101900174D01*
X141927544Y-101978195D01*
X141758026Y-102091463D01*
X141613863Y-102235626D01*
X141500595Y-102405144D01*
X141422574Y-102593502D01*
X141382800Y-102793461D01*
X139880889Y-102793461D01*
X139747898Y-102738374D01*
X139547939Y-102698600D01*
X139344061Y-102698600D01*
X139144102Y-102738374D01*
X138955744Y-102816395D01*
X138786226Y-102929663D01*
X138682375Y-103033514D01*
X138573537Y-102870626D01*
X138429374Y-102726463D01*
X138259856Y-102613195D01*
X138071498Y-102535174D01*
X137871539Y-102495400D01*
X137667661Y-102495400D01*
X137467702Y-102535174D01*
X137279344Y-102613195D01*
X137109826Y-102726463D01*
X136965663Y-102870626D01*
X136852395Y-103040144D01*
X136774374Y-103228502D01*
X136734600Y-103428461D01*
X136734600Y-103632339D01*
X136774374Y-103832298D01*
X136852395Y-104020656D01*
X136965663Y-104190174D01*
X137109826Y-104334337D01*
X137279344Y-104447605D01*
X137350643Y-104477138D01*
X137285642Y-104490068D01*
X137015389Y-104602010D01*
X136772168Y-104764525D01*
X136640313Y-104896380D01*
X136618302Y-104823820D01*
X136559337Y-104713506D01*
X136479985Y-104616815D01*
X136383294Y-104537463D01*
X136272980Y-104478498D01*
X136153282Y-104442188D01*
X136028800Y-104429928D01*
X134328800Y-104429928D01*
X134204318Y-104442188D01*
X134084620Y-104478498D01*
X133974306Y-104537463D01*
X133877615Y-104616815D01*
X133798263Y-104713506D01*
X133739298Y-104823820D01*
X133702988Y-104943518D01*
X133690728Y-105068000D01*
X128997130Y-105068000D01*
X128864675Y-104869768D01*
X128657832Y-104662925D01*
X128483440Y-104546400D01*
X128657832Y-104429875D01*
X128864675Y-104223032D01*
X129027190Y-103979811D01*
X129139132Y-103709558D01*
X129196200Y-103422660D01*
X129196200Y-103130140D01*
X129139132Y-102843242D01*
X129027190Y-102572989D01*
X128864675Y-102329768D01*
X128657832Y-102122925D01*
X128414611Y-101960410D01*
X128144358Y-101848468D01*
X127857460Y-101791400D01*
X127564940Y-101791400D01*
X127278042Y-101848468D01*
X127007789Y-101960410D01*
X126764568Y-102122925D01*
X126557725Y-102329768D01*
X126441200Y-102504160D01*
X126324675Y-102329768D01*
X126117832Y-102122925D01*
X125874611Y-101960410D01*
X125604358Y-101848468D01*
X125317460Y-101791400D01*
X125024940Y-101791400D01*
X124738042Y-101848468D01*
X124467789Y-101960410D01*
X124224568Y-102122925D01*
X124092713Y-102254780D01*
X124070702Y-102182220D01*
X124011737Y-102071906D01*
X123932385Y-101975215D01*
X123835694Y-101895863D01*
X123725380Y-101836898D01*
X123605682Y-101800588D01*
X123481200Y-101788328D01*
X121781200Y-101788328D01*
X121656718Y-101800588D01*
X121537020Y-101836898D01*
X121426706Y-101895863D01*
X121330015Y-101975215D01*
X121250663Y-102071906D01*
X121191698Y-102182220D01*
X121155388Y-102301918D01*
X121143128Y-102426400D01*
X120655816Y-102426400D01*
X120629503Y-100456661D01*
X125507800Y-100456661D01*
X125507800Y-100660539D01*
X125547574Y-100860498D01*
X125625595Y-101048856D01*
X125738863Y-101218374D01*
X125883026Y-101362537D01*
X126052544Y-101475805D01*
X126240902Y-101553826D01*
X126440861Y-101593600D01*
X126644739Y-101593600D01*
X126844698Y-101553826D01*
X127033056Y-101475805D01*
X127202574Y-101362537D01*
X127346737Y-101218374D01*
X127460005Y-101048856D01*
X127538026Y-100860498D01*
X127577800Y-100660539D01*
X127577800Y-100583661D01*
X129013000Y-100583661D01*
X129013000Y-100787539D01*
X129052774Y-100987498D01*
X129130795Y-101175856D01*
X129244063Y-101345374D01*
X129388226Y-101489537D01*
X129557744Y-101602805D01*
X129746102Y-101680826D01*
X129946061Y-101720600D01*
X130149939Y-101720600D01*
X130349898Y-101680826D01*
X130538256Y-101602805D01*
X130707774Y-101489537D01*
X130851937Y-101345374D01*
X130965205Y-101175856D01*
X131043226Y-100987498D01*
X131083000Y-100787539D01*
X131083000Y-100583661D01*
X131057739Y-100456661D01*
X137014000Y-100456661D01*
X137014000Y-100660539D01*
X137053774Y-100860498D01*
X137131795Y-101048856D01*
X137245063Y-101218374D01*
X137389226Y-101362537D01*
X137558744Y-101475805D01*
X137747102Y-101553826D01*
X137947061Y-101593600D01*
X138150939Y-101593600D01*
X138350898Y-101553826D01*
X138539256Y-101475805D01*
X138708774Y-101362537D01*
X138852937Y-101218374D01*
X138966205Y-101048856D01*
X139044226Y-100860498D01*
X139058873Y-100786861D01*
X139376200Y-100786861D01*
X139376200Y-100990739D01*
X139415974Y-101190698D01*
X139493995Y-101379056D01*
X139607263Y-101548574D01*
X139751426Y-101692737D01*
X139920944Y-101806005D01*
X140109302Y-101884026D01*
X140309261Y-101923800D01*
X140513139Y-101923800D01*
X140713098Y-101884026D01*
X140901456Y-101806005D01*
X141070974Y-101692737D01*
X141215137Y-101548574D01*
X141328405Y-101379056D01*
X141406426Y-101190698D01*
X141446200Y-100990739D01*
X141446200Y-100786861D01*
X141406426Y-100586902D01*
X141328405Y-100398544D01*
X141215137Y-100229026D01*
X141070974Y-100084863D01*
X141019189Y-100050261D01*
X153879600Y-100050261D01*
X153879600Y-100254139D01*
X153919374Y-100454098D01*
X153997395Y-100642456D01*
X154110663Y-100811974D01*
X154254826Y-100956137D01*
X154424344Y-101069405D01*
X154612702Y-101147426D01*
X154812661Y-101187200D01*
X155016539Y-101187200D01*
X155216498Y-101147426D01*
X155404856Y-101069405D01*
X155574374Y-100956137D01*
X155718537Y-100811974D01*
X155831805Y-100642456D01*
X155909826Y-100454098D01*
X155949600Y-100254139D01*
X155949600Y-100050261D01*
X155909826Y-99850302D01*
X155831805Y-99661944D01*
X155718537Y-99492426D01*
X155574374Y-99348263D01*
X155404856Y-99234995D01*
X155216498Y-99156974D01*
X155016539Y-99117200D01*
X154812661Y-99117200D01*
X154612702Y-99156974D01*
X154424344Y-99234995D01*
X154254826Y-99348263D01*
X154110663Y-99492426D01*
X153997395Y-99661944D01*
X153919374Y-99850302D01*
X153879600Y-100050261D01*
X141019189Y-100050261D01*
X140901456Y-99971595D01*
X140713098Y-99893574D01*
X140513139Y-99853800D01*
X140309261Y-99853800D01*
X140109302Y-99893574D01*
X139920944Y-99971595D01*
X139751426Y-100084863D01*
X139607263Y-100229026D01*
X139493995Y-100398544D01*
X139415974Y-100586902D01*
X139376200Y-100786861D01*
X139058873Y-100786861D01*
X139084000Y-100660539D01*
X139084000Y-100456661D01*
X139044226Y-100256702D01*
X138966205Y-100068344D01*
X138852937Y-99898826D01*
X138708774Y-99754663D01*
X138539256Y-99641395D01*
X138350898Y-99563374D01*
X138150939Y-99523600D01*
X137947061Y-99523600D01*
X137747102Y-99563374D01*
X137558744Y-99641395D01*
X137389226Y-99754663D01*
X137245063Y-99898826D01*
X137131795Y-100068344D01*
X137053774Y-100256702D01*
X137014000Y-100456661D01*
X131057739Y-100456661D01*
X131043226Y-100383702D01*
X130965205Y-100195344D01*
X130851937Y-100025826D01*
X130707774Y-99881663D01*
X130538256Y-99768395D01*
X130349898Y-99690374D01*
X130149939Y-99650600D01*
X129946061Y-99650600D01*
X129746102Y-99690374D01*
X129557744Y-99768395D01*
X129388226Y-99881663D01*
X129244063Y-100025826D01*
X129130795Y-100195344D01*
X129052774Y-100383702D01*
X129013000Y-100583661D01*
X127577800Y-100583661D01*
X127577800Y-100456661D01*
X127538026Y-100256702D01*
X127460005Y-100068344D01*
X127346737Y-99898826D01*
X127202574Y-99754663D01*
X127033056Y-99641395D01*
X126844698Y-99563374D01*
X126644739Y-99523600D01*
X126440861Y-99523600D01*
X126240902Y-99563374D01*
X126052544Y-99641395D01*
X125883026Y-99754663D01*
X125738863Y-99898826D01*
X125625595Y-100068344D01*
X125547574Y-100256702D01*
X125507800Y-100456661D01*
X120629503Y-100456661D01*
X120602019Y-98399261D01*
X149993400Y-98399261D01*
X149993400Y-98603139D01*
X150033174Y-98803098D01*
X150111195Y-98991456D01*
X150224463Y-99160974D01*
X150368626Y-99305137D01*
X150538144Y-99418405D01*
X150726502Y-99496426D01*
X150926461Y-99536200D01*
X151130339Y-99536200D01*
X151330298Y-99496426D01*
X151518656Y-99418405D01*
X151688174Y-99305137D01*
X151832337Y-99160974D01*
X151945605Y-98991456D01*
X152023626Y-98803098D01*
X152063400Y-98603139D01*
X152063400Y-98399261D01*
X152023626Y-98199302D01*
X151945605Y-98010944D01*
X151933573Y-97992938D01*
X151984737Y-97941774D01*
X152098005Y-97772256D01*
X152176026Y-97583898D01*
X152215800Y-97383939D01*
X152215800Y-97180061D01*
X152176026Y-96980102D01*
X152098005Y-96791744D01*
X151984737Y-96622226D01*
X151840574Y-96478063D01*
X151671056Y-96364795D01*
X151482698Y-96286774D01*
X151282739Y-96247000D01*
X151078861Y-96247000D01*
X150878902Y-96286774D01*
X150690544Y-96364795D01*
X150521026Y-96478063D01*
X150376863Y-96622226D01*
X150263595Y-96791744D01*
X150185574Y-96980102D01*
X150145800Y-97180061D01*
X150145800Y-97383939D01*
X150185574Y-97583898D01*
X150263595Y-97772256D01*
X150275627Y-97790262D01*
X150224463Y-97841426D01*
X150111195Y-98010944D01*
X150033174Y-98199302D01*
X149993400Y-98399261D01*
X120602019Y-98399261D01*
X120580303Y-96773661D01*
X129906409Y-96773661D01*
X129906409Y-96977539D01*
X129946183Y-97177498D01*
X130024204Y-97365856D01*
X130137472Y-97535374D01*
X130281635Y-97679537D01*
X130451153Y-97792805D01*
X130639511Y-97870826D01*
X130839470Y-97910600D01*
X131043348Y-97910600D01*
X131243307Y-97870826D01*
X131431665Y-97792805D01*
X131601183Y-97679537D01*
X131745346Y-97535374D01*
X131858614Y-97365856D01*
X131936635Y-97177498D01*
X131976409Y-96977539D01*
X131976409Y-96915401D01*
X133026461Y-95865350D01*
X133026200Y-95866660D01*
X133026200Y-96070538D01*
X133065974Y-96270497D01*
X133143995Y-96458855D01*
X133257263Y-96628373D01*
X133401426Y-96772536D01*
X133570944Y-96885804D01*
X133759302Y-96963825D01*
X133959261Y-97003599D01*
X134163139Y-97003599D01*
X134363098Y-96963825D01*
X134551456Y-96885804D01*
X134720974Y-96772536D01*
X134865137Y-96628373D01*
X134975600Y-96463053D01*
X135086063Y-96628373D01*
X135230226Y-96772536D01*
X135399744Y-96885804D01*
X135588102Y-96963825D01*
X135788061Y-97003599D01*
X135991939Y-97003599D01*
X136191898Y-96963825D01*
X136380256Y-96885804D01*
X136549774Y-96772536D01*
X136693937Y-96628373D01*
X136807205Y-96458855D01*
X136885226Y-96270497D01*
X136925000Y-96070538D01*
X136925000Y-95884661D01*
X142195600Y-95884661D01*
X142195600Y-96088539D01*
X142235374Y-96288498D01*
X142313395Y-96476856D01*
X142426663Y-96646374D01*
X142570826Y-96790537D01*
X142740344Y-96903805D01*
X142928702Y-96981826D01*
X143128661Y-97021600D01*
X143332539Y-97021600D01*
X143532498Y-96981826D01*
X143720856Y-96903805D01*
X143784541Y-96861252D01*
X143866226Y-96942937D01*
X144035744Y-97056205D01*
X144224102Y-97134226D01*
X144424061Y-97174000D01*
X144627939Y-97174000D01*
X144827898Y-97134226D01*
X145016256Y-97056205D01*
X145185774Y-96942937D01*
X145329119Y-96799592D01*
X145458144Y-96885804D01*
X145646502Y-96963825D01*
X145846461Y-97003599D01*
X146050339Y-97003599D01*
X146250298Y-96963825D01*
X146438656Y-96885804D01*
X146494500Y-96848490D01*
X146550344Y-96885804D01*
X146738702Y-96963825D01*
X146938661Y-97003599D01*
X147142539Y-97003599D01*
X147342498Y-96963825D01*
X147530856Y-96885804D01*
X147700374Y-96772536D01*
X147844537Y-96628373D01*
X147957805Y-96458855D01*
X148035826Y-96270497D01*
X148075600Y-96070538D01*
X148075600Y-95866660D01*
X148035826Y-95666701D01*
X147957805Y-95478343D01*
X147844537Y-95308825D01*
X147700374Y-95164662D01*
X147530856Y-95051394D01*
X147342498Y-94973373D01*
X147142539Y-94933599D01*
X146938661Y-94933599D01*
X146738702Y-94973373D01*
X146550344Y-95051394D01*
X146494500Y-95088708D01*
X146438656Y-95051394D01*
X146250298Y-94973373D01*
X146050339Y-94933599D01*
X145846461Y-94933599D01*
X145646502Y-94973373D01*
X145458144Y-95051394D01*
X145288626Y-95164662D01*
X145145281Y-95308007D01*
X145016256Y-95221795D01*
X144827898Y-95143774D01*
X144627939Y-95104000D01*
X144424061Y-95104000D01*
X144224102Y-95143774D01*
X144035744Y-95221795D01*
X143972059Y-95264348D01*
X143890374Y-95182663D01*
X143720856Y-95069395D01*
X143532498Y-94991374D01*
X143332539Y-94951600D01*
X143128661Y-94951600D01*
X142928702Y-94991374D01*
X142740344Y-95069395D01*
X142570826Y-95182663D01*
X142426663Y-95326826D01*
X142313395Y-95496344D01*
X142235374Y-95684702D01*
X142195600Y-95884661D01*
X136925000Y-95884661D01*
X136925000Y-95866660D01*
X136885226Y-95666701D01*
X136807205Y-95478343D01*
X136693937Y-95308825D01*
X136549774Y-95164662D01*
X136380256Y-95051394D01*
X136191898Y-94973373D01*
X135991939Y-94933599D01*
X135788061Y-94933599D01*
X135588102Y-94973373D01*
X135399744Y-95051394D01*
X135230226Y-95164662D01*
X135086063Y-95308825D01*
X134975600Y-95474145D01*
X134865137Y-95308825D01*
X134720974Y-95164662D01*
X134551456Y-95051394D01*
X134363098Y-94973373D01*
X134163139Y-94933599D01*
X133959261Y-94933599D01*
X133957951Y-94933860D01*
X134759750Y-94132061D01*
X149155200Y-94132061D01*
X149155200Y-94335939D01*
X149194974Y-94535898D01*
X149272995Y-94724256D01*
X149386263Y-94893774D01*
X149530426Y-95037937D01*
X149699944Y-95151205D01*
X149888302Y-95229226D01*
X150088261Y-95269000D01*
X150160531Y-95269000D01*
X150187395Y-95333856D01*
X150300663Y-95503374D01*
X150444826Y-95647537D01*
X150614344Y-95760805D01*
X150802702Y-95838826D01*
X151002661Y-95878600D01*
X151206539Y-95878600D01*
X151406498Y-95838826D01*
X151594856Y-95760805D01*
X151764374Y-95647537D01*
X151908537Y-95503374D01*
X152010175Y-95351261D01*
X152584200Y-95351261D01*
X152584200Y-95555139D01*
X152623974Y-95755098D01*
X152701995Y-95943456D01*
X152815263Y-96112974D01*
X152959426Y-96257137D01*
X153128944Y-96370405D01*
X153317302Y-96448426D01*
X153517261Y-96488200D01*
X153721139Y-96488200D01*
X153921098Y-96448426D01*
X154109456Y-96370405D01*
X154278974Y-96257137D01*
X154423137Y-96112974D01*
X154536405Y-95943456D01*
X154614426Y-95755098D01*
X154654200Y-95555139D01*
X154654200Y-95351261D01*
X154614426Y-95151302D01*
X154536405Y-94962944D01*
X154423137Y-94793426D01*
X154278974Y-94649263D01*
X154109456Y-94535995D01*
X153921098Y-94457974D01*
X153721139Y-94418200D01*
X153517261Y-94418200D01*
X153317302Y-94457974D01*
X153128944Y-94535995D01*
X152959426Y-94649263D01*
X152815263Y-94793426D01*
X152701995Y-94962944D01*
X152623974Y-95151302D01*
X152584200Y-95351261D01*
X152010175Y-95351261D01*
X152021805Y-95333856D01*
X152099826Y-95145498D01*
X152139600Y-94945539D01*
X152139600Y-94741661D01*
X152099826Y-94541702D01*
X152021805Y-94353344D01*
X151908537Y-94183826D01*
X151764374Y-94039663D01*
X151594856Y-93926395D01*
X151406498Y-93848374D01*
X151206539Y-93808600D01*
X151134269Y-93808600D01*
X151107405Y-93743744D01*
X150994137Y-93574226D01*
X150849974Y-93430063D01*
X150680456Y-93316795D01*
X150492098Y-93238774D01*
X150292139Y-93199000D01*
X150088261Y-93199000D01*
X149888302Y-93238774D01*
X149699944Y-93316795D01*
X149530426Y-93430063D01*
X149386263Y-93574226D01*
X149272995Y-93743744D01*
X149194974Y-93932102D01*
X149155200Y-94132061D01*
X134759750Y-94132061D01*
X136309150Y-92582661D01*
X137395000Y-92582661D01*
X137395000Y-92786539D01*
X137434774Y-92986498D01*
X137512795Y-93174856D01*
X137626063Y-93344374D01*
X137770226Y-93488537D01*
X137939744Y-93601805D01*
X138128102Y-93679826D01*
X138328061Y-93719600D01*
X138531939Y-93719600D01*
X138731898Y-93679826D01*
X138920256Y-93601805D01*
X139089774Y-93488537D01*
X139233937Y-93344374D01*
X139347205Y-93174856D01*
X139425226Y-92986498D01*
X139465000Y-92786539D01*
X139465000Y-92582661D01*
X139425226Y-92382702D01*
X139413363Y-92354061D01*
X139833400Y-92354061D01*
X139833400Y-92557939D01*
X139873174Y-92757898D01*
X139951195Y-92946256D01*
X140064463Y-93115774D01*
X140208626Y-93259937D01*
X140378144Y-93373205D01*
X140566502Y-93451226D01*
X140766461Y-93491000D01*
X140970339Y-93491000D01*
X141170298Y-93451226D01*
X141358656Y-93373205D01*
X141528174Y-93259937D01*
X141672337Y-93115774D01*
X141785605Y-92946256D01*
X141804930Y-92899600D01*
X154264728Y-92899600D01*
X154276988Y-93024082D01*
X154313298Y-93143780D01*
X154372263Y-93254094D01*
X154451615Y-93350785D01*
X154548306Y-93430137D01*
X154658620Y-93489102D01*
X154778318Y-93525412D01*
X154902800Y-93537672D01*
X155467050Y-93534600D01*
X155625800Y-93375850D01*
X155625800Y-92176600D01*
X155879800Y-92176600D01*
X155879800Y-93375850D01*
X156038550Y-93534600D01*
X156602800Y-93537672D01*
X156727282Y-93525412D01*
X156846980Y-93489102D01*
X156957294Y-93430137D01*
X157053985Y-93350785D01*
X157133337Y-93254094D01*
X157192302Y-93143780D01*
X157228612Y-93024082D01*
X157240872Y-92899600D01*
X157237800Y-92335350D01*
X157079050Y-92176600D01*
X155879800Y-92176600D01*
X155625800Y-92176600D01*
X154426550Y-92176600D01*
X154267800Y-92335350D01*
X154264728Y-92899600D01*
X141804930Y-92899600D01*
X141863626Y-92757898D01*
X141903400Y-92557939D01*
X141903400Y-92354061D01*
X141863626Y-92154102D01*
X141785605Y-91965744D01*
X141672337Y-91796226D01*
X141528174Y-91652063D01*
X141358656Y-91538795D01*
X141170298Y-91460774D01*
X140970339Y-91421000D01*
X140766461Y-91421000D01*
X140566502Y-91460774D01*
X140378144Y-91538795D01*
X140208626Y-91652063D01*
X140064463Y-91796226D01*
X139951195Y-91965744D01*
X139873174Y-92154102D01*
X139833400Y-92354061D01*
X139413363Y-92354061D01*
X139347205Y-92194344D01*
X139233937Y-92024826D01*
X139089774Y-91880663D01*
X138920256Y-91767395D01*
X138731898Y-91689374D01*
X138531939Y-91649600D01*
X138328061Y-91649600D01*
X138128102Y-91689374D01*
X137939744Y-91767395D01*
X137770226Y-91880663D01*
X137626063Y-92024826D01*
X137512795Y-92194344D01*
X137434774Y-92382702D01*
X137395000Y-92582661D01*
X136309150Y-92582661D01*
X138513013Y-90378799D01*
X141934194Y-90378799D01*
X141971516Y-90382475D01*
X142008838Y-90378799D01*
X142008849Y-90378799D01*
X142120502Y-90367802D01*
X142123631Y-90366853D01*
X142160995Y-90457056D01*
X142274263Y-90626574D01*
X142418426Y-90770737D01*
X142587944Y-90884005D01*
X142776302Y-90962026D01*
X142806376Y-90968008D01*
X142881829Y-91150166D01*
X142995097Y-91319684D01*
X143139260Y-91463847D01*
X143308778Y-91577115D01*
X143497136Y-91655136D01*
X143697095Y-91694910D01*
X143900973Y-91694910D01*
X144100932Y-91655136D01*
X144289290Y-91577115D01*
X144458808Y-91463847D01*
X144602971Y-91319684D01*
X144716239Y-91150166D01*
X144794260Y-90961808D01*
X144834034Y-90761849D01*
X144834034Y-90557971D01*
X144794260Y-90358012D01*
X144716239Y-90169654D01*
X144602971Y-90000136D01*
X144534047Y-89931212D01*
X147226400Y-89931212D01*
X147226400Y-90154788D01*
X147270017Y-90374067D01*
X147355576Y-90580624D01*
X147479788Y-90766520D01*
X147637880Y-90924612D01*
X147823776Y-91048824D01*
X148030333Y-91134383D01*
X148249612Y-91178000D01*
X148473188Y-91178000D01*
X148692467Y-91134383D01*
X148899024Y-91048824D01*
X149084920Y-90924612D01*
X149181532Y-90828000D01*
X154386301Y-90828000D01*
X154372263Y-90845106D01*
X154313298Y-90955420D01*
X154276988Y-91075118D01*
X154264728Y-91199600D01*
X154267800Y-91763850D01*
X154426550Y-91922600D01*
X155625800Y-91922600D01*
X155625800Y-91902600D01*
X155879800Y-91902600D01*
X155879800Y-91922600D01*
X157079050Y-91922600D01*
X157237800Y-91763850D01*
X157240872Y-91199600D01*
X157228612Y-91075118D01*
X157192302Y-90955420D01*
X157133337Y-90845106D01*
X157053985Y-90748415D01*
X156957294Y-90669063D01*
X156846980Y-90610098D01*
X156774420Y-90588087D01*
X156906275Y-90456232D01*
X157068790Y-90213011D01*
X157180732Y-89942758D01*
X157237800Y-89655860D01*
X157237800Y-89363340D01*
X157180732Y-89076442D01*
X157068790Y-88806189D01*
X156906275Y-88562968D01*
X156699432Y-88356125D01*
X156525040Y-88239600D01*
X156699432Y-88123075D01*
X156906275Y-87916232D01*
X157068790Y-87673011D01*
X157180732Y-87402758D01*
X157237800Y-87115860D01*
X157237800Y-86823340D01*
X157180732Y-86536442D01*
X157068790Y-86266189D01*
X156906275Y-86022968D01*
X156699432Y-85816125D01*
X156525040Y-85699600D01*
X156699432Y-85583075D01*
X156906275Y-85376232D01*
X157068790Y-85133011D01*
X157180732Y-84862758D01*
X157237800Y-84575860D01*
X157237800Y-84283340D01*
X157180732Y-83996442D01*
X157068790Y-83726189D01*
X156906275Y-83482968D01*
X156699432Y-83276125D01*
X156456211Y-83113610D01*
X156185958Y-83001668D01*
X155899060Y-82944600D01*
X155606540Y-82944600D01*
X155319642Y-83001668D01*
X155049389Y-83113610D01*
X154806168Y-83276125D01*
X154599325Y-83482968D01*
X154436810Y-83726189D01*
X154324868Y-83996442D01*
X154267800Y-84283340D01*
X154267800Y-84575860D01*
X154324868Y-84862758D01*
X154436810Y-85133011D01*
X154599325Y-85376232D01*
X154806168Y-85583075D01*
X154980560Y-85699600D01*
X154806168Y-85816125D01*
X154599325Y-86022968D01*
X154436810Y-86266189D01*
X154324868Y-86536442D01*
X154267800Y-86823340D01*
X154267800Y-87115860D01*
X154324868Y-87402758D01*
X154436810Y-87673011D01*
X154599325Y-87916232D01*
X154806168Y-88123075D01*
X154980560Y-88239600D01*
X154806168Y-88356125D01*
X154599325Y-88562968D01*
X154436810Y-88806189D01*
X154324868Y-89076442D01*
X154288754Y-89258000D01*
X149181532Y-89258000D01*
X149084920Y-89161388D01*
X148899024Y-89037176D01*
X148692467Y-88951617D01*
X148473188Y-88908000D01*
X148249612Y-88908000D01*
X148030333Y-88951617D01*
X147823776Y-89037176D01*
X147637880Y-89161388D01*
X147479788Y-89319480D01*
X147355576Y-89505376D01*
X147270017Y-89711933D01*
X147226400Y-89931212D01*
X144534047Y-89931212D01*
X144458808Y-89855973D01*
X144289290Y-89742705D01*
X144100932Y-89664684D01*
X144070858Y-89658702D01*
X143995405Y-89476544D01*
X143882137Y-89307026D01*
X143737974Y-89162863D01*
X143596670Y-89068447D01*
X144964200Y-87700917D01*
X144964200Y-87731939D01*
X145003974Y-87931898D01*
X145081995Y-88120256D01*
X145195263Y-88289774D01*
X145339426Y-88433937D01*
X145508944Y-88547205D01*
X145697302Y-88625226D01*
X145897261Y-88665000D01*
X146101139Y-88665000D01*
X146301098Y-88625226D01*
X146489456Y-88547205D01*
X146658974Y-88433937D01*
X146803137Y-88289774D01*
X146916405Y-88120256D01*
X146994426Y-87931898D01*
X147034200Y-87731939D01*
X147034200Y-87670117D01*
X147074863Y-87730974D01*
X147219026Y-87875137D01*
X147388544Y-87988405D01*
X147576902Y-88066426D01*
X147776861Y-88106200D01*
X147980739Y-88106200D01*
X148180698Y-88066426D01*
X148369056Y-87988405D01*
X148538574Y-87875137D01*
X148682737Y-87730974D01*
X148796005Y-87561456D01*
X148874026Y-87373098D01*
X148913800Y-87173139D01*
X148913800Y-86969261D01*
X148874026Y-86769302D01*
X148796005Y-86580944D01*
X148682737Y-86411426D01*
X148538574Y-86267263D01*
X148487296Y-86233000D01*
X148538574Y-86198737D01*
X148682737Y-86054574D01*
X148796005Y-85885056D01*
X148874026Y-85696698D01*
X148913800Y-85496739D01*
X148913800Y-85292861D01*
X148874026Y-85092902D01*
X148796005Y-84904544D01*
X148682737Y-84735026D01*
X148538574Y-84590863D01*
X148369056Y-84477595D01*
X148180698Y-84399574D01*
X147980739Y-84359800D01*
X147776861Y-84359800D01*
X147576902Y-84399574D01*
X147460503Y-84447788D01*
X147353056Y-84375995D01*
X147164698Y-84297974D01*
X146964739Y-84258200D01*
X146760861Y-84258200D01*
X146560902Y-84297974D01*
X146372544Y-84375995D01*
X146203026Y-84489263D01*
X146148076Y-84544213D01*
X146004868Y-84587654D01*
X145872839Y-84658226D01*
X145757114Y-84753199D01*
X145733316Y-84782197D01*
X145301212Y-85214301D01*
X145185774Y-85098863D01*
X145016256Y-84985595D01*
X144827898Y-84907574D01*
X144627939Y-84867800D01*
X144424061Y-84867800D01*
X144224102Y-84907574D01*
X144035744Y-84985595D01*
X143866226Y-85098863D01*
X143722063Y-85243026D01*
X143608795Y-85412544D01*
X143530774Y-85600902D01*
X143491000Y-85800861D01*
X143491000Y-86004739D01*
X143530774Y-86204698D01*
X143608795Y-86393056D01*
X143722063Y-86562574D01*
X143837501Y-86678012D01*
X141656715Y-88858799D01*
X140121203Y-88858799D01*
X140156383Y-88773867D01*
X140200000Y-88554588D01*
X140200000Y-88331012D01*
X140156383Y-88111733D01*
X140070824Y-87905176D01*
X139946612Y-87719280D01*
X139788520Y-87561188D01*
X139602624Y-87436976D01*
X139556883Y-87418029D01*
X139589537Y-87385375D01*
X139702805Y-87215857D01*
X139780826Y-87027499D01*
X139820600Y-86827540D01*
X139820600Y-86623662D01*
X139780826Y-86423703D01*
X139702805Y-86235345D01*
X139589537Y-86065827D01*
X139445374Y-85921664D01*
X139275856Y-85808396D01*
X139087498Y-85730375D01*
X138887539Y-85690601D01*
X138683661Y-85690601D01*
X138483702Y-85730375D01*
X138295344Y-85808396D01*
X138125826Y-85921664D01*
X137981663Y-86065827D01*
X137908172Y-86175815D01*
X137615347Y-85882990D01*
X137590764Y-85853036D01*
X137471233Y-85754938D01*
X137334860Y-85682046D01*
X137186887Y-85637159D01*
X137071561Y-85625800D01*
X137071553Y-85625800D01*
X137033000Y-85622003D01*
X136994447Y-85625800D01*
X133433532Y-85625800D01*
X133336920Y-85529188D01*
X133151024Y-85404976D01*
X132944467Y-85319417D01*
X132725188Y-85275800D01*
X132501612Y-85275800D01*
X132282333Y-85319417D01*
X132075776Y-85404976D01*
X131889880Y-85529188D01*
X131731788Y-85687280D01*
X131607576Y-85873176D01*
X131522017Y-86079733D01*
X131478400Y-86299012D01*
X131478400Y-86522588D01*
X131522017Y-86741867D01*
X131607576Y-86948424D01*
X131731788Y-87134320D01*
X131889880Y-87292412D01*
X132075776Y-87416624D01*
X132282333Y-87502183D01*
X132501612Y-87545800D01*
X132725188Y-87545800D01*
X132944467Y-87502183D01*
X133151024Y-87416624D01*
X133336920Y-87292412D01*
X133433532Y-87195800D01*
X136707843Y-87195800D01*
X137930000Y-88417958D01*
X137930000Y-88554588D01*
X137973617Y-88773867D01*
X138017356Y-88879463D01*
X137905963Y-88913253D01*
X137773934Y-88983825D01*
X137773932Y-88983826D01*
X137773933Y-88983826D01*
X137687206Y-89055000D01*
X137687202Y-89055004D01*
X137658209Y-89078798D01*
X137634415Y-89107791D01*
X130901608Y-95840600D01*
X130839470Y-95840600D01*
X130639511Y-95880374D01*
X130451153Y-95958395D01*
X130281635Y-96071663D01*
X130137472Y-96215826D01*
X130024204Y-96385344D01*
X129946183Y-96573702D01*
X129906409Y-96773661D01*
X120580303Y-96773661D01*
X120564694Y-95605261D01*
X123882200Y-95605261D01*
X123882200Y-95809139D01*
X123921974Y-96009098D01*
X123999995Y-96197456D01*
X124113263Y-96366974D01*
X124257426Y-96511137D01*
X124426944Y-96624405D01*
X124615302Y-96702426D01*
X124815261Y-96742200D01*
X125019139Y-96742200D01*
X125219098Y-96702426D01*
X125407456Y-96624405D01*
X125576974Y-96511137D01*
X125721137Y-96366974D01*
X125834405Y-96197456D01*
X125912426Y-96009098D01*
X125952200Y-95809139D01*
X125952200Y-95605261D01*
X125912426Y-95405302D01*
X125834405Y-95216944D01*
X125721137Y-95047426D01*
X125576974Y-94903263D01*
X125407456Y-94789995D01*
X125219098Y-94711974D01*
X125019139Y-94672200D01*
X124815261Y-94672200D01*
X124615302Y-94711974D01*
X124426944Y-94789995D01*
X124257426Y-94903263D01*
X124113263Y-95047426D01*
X123999995Y-95216944D01*
X123921974Y-95405302D01*
X123882200Y-95605261D01*
X120564694Y-95605261D01*
X120548000Y-94355596D01*
X120548000Y-93979661D01*
X126523800Y-93979661D01*
X126523800Y-94183539D01*
X126563574Y-94383498D01*
X126641595Y-94571856D01*
X126754863Y-94741374D01*
X126899026Y-94885537D01*
X127068544Y-94998805D01*
X127256902Y-95076826D01*
X127456861Y-95116600D01*
X127660739Y-95116600D01*
X127860698Y-95076826D01*
X128049056Y-94998805D01*
X128218574Y-94885537D01*
X128362737Y-94741374D01*
X128476005Y-94571856D01*
X128554026Y-94383498D01*
X128593800Y-94183539D01*
X128593800Y-93979661D01*
X128554026Y-93779702D01*
X128476005Y-93591344D01*
X128362737Y-93421826D01*
X128218574Y-93277663D01*
X128049056Y-93164395D01*
X127860698Y-93086374D01*
X127660739Y-93046600D01*
X127456861Y-93046600D01*
X127256902Y-93086374D01*
X127068544Y-93164395D01*
X126899026Y-93277663D01*
X126754863Y-93421826D01*
X126641595Y-93591344D01*
X126563574Y-93779702D01*
X126523800Y-93979661D01*
X120548000Y-93979661D01*
X120548000Y-90322061D01*
X130283000Y-90322061D01*
X130283000Y-90525939D01*
X130322774Y-90725898D01*
X130400795Y-90914256D01*
X130514063Y-91083774D01*
X130658226Y-91227937D01*
X130827744Y-91341205D01*
X131016102Y-91419226D01*
X131216061Y-91459000D01*
X131419939Y-91459000D01*
X131619898Y-91419226D01*
X131808256Y-91341205D01*
X131977774Y-91227937D01*
X132121937Y-91083774D01*
X132235205Y-90914256D01*
X132313226Y-90725898D01*
X132329253Y-90645323D01*
X132333661Y-90646200D01*
X132537539Y-90646200D01*
X132737498Y-90606426D01*
X132925856Y-90528405D01*
X133095374Y-90415137D01*
X133239537Y-90270974D01*
X133352805Y-90101456D01*
X133430826Y-89913098D01*
X133470600Y-89713139D01*
X133470600Y-89509261D01*
X133430826Y-89309302D01*
X133352805Y-89120944D01*
X133239537Y-88951426D01*
X133095374Y-88807263D01*
X132925856Y-88693995D01*
X132737498Y-88615974D01*
X132537539Y-88576200D01*
X132333661Y-88576200D01*
X132133702Y-88615974D01*
X131945344Y-88693995D01*
X131775826Y-88807263D01*
X131631663Y-88951426D01*
X131518395Y-89120944D01*
X131440374Y-89309302D01*
X131424347Y-89389877D01*
X131419939Y-89389000D01*
X131216061Y-89389000D01*
X131016102Y-89428774D01*
X130827744Y-89506795D01*
X130658226Y-89620063D01*
X130514063Y-89764226D01*
X130400795Y-89933744D01*
X130322774Y-90122102D01*
X130283000Y-90322061D01*
X120548000Y-90322061D01*
X120548000Y-83618091D01*
X120783319Y-83618091D01*
X120880643Y-83892452D01*
X121029622Y-84142555D01*
X121224531Y-84358788D01*
X121457880Y-84532841D01*
X121720701Y-84658025D01*
X121867910Y-84702676D01*
X122097800Y-84581355D01*
X122097800Y-83388200D01*
X120903986Y-83388200D01*
X120783319Y-83618091D01*
X120548000Y-83618091D01*
X120548000Y-82904309D01*
X120783319Y-82904309D01*
X120903986Y-83134200D01*
X122097800Y-83134200D01*
X122097800Y-81941045D01*
X122351800Y-81941045D01*
X122351800Y-83134200D01*
X122371800Y-83134200D01*
X122371800Y-83388200D01*
X122351800Y-83388200D01*
X122351800Y-84581355D01*
X122581690Y-84702676D01*
X122728899Y-84658025D01*
X122991720Y-84532841D01*
X123225069Y-84358788D01*
X123300834Y-84274734D01*
X123325298Y-84355380D01*
X123384263Y-84465694D01*
X123463615Y-84562385D01*
X123560306Y-84641737D01*
X123670620Y-84700702D01*
X123790318Y-84737012D01*
X123914800Y-84749272D01*
X125614800Y-84749272D01*
X125739282Y-84737012D01*
X125858980Y-84700702D01*
X125969294Y-84641737D01*
X126065985Y-84562385D01*
X126145337Y-84465694D01*
X126204302Y-84355380D01*
X126240612Y-84235682D01*
X126252872Y-84111200D01*
X126252872Y-83908062D01*
X138855001Y-83908062D01*
X138855001Y-84111940D01*
X138894775Y-84311899D01*
X138972796Y-84500257D01*
X139086064Y-84669775D01*
X139230227Y-84813938D01*
X139399745Y-84927206D01*
X139588103Y-85005227D01*
X139788062Y-85045001D01*
X139991940Y-85045001D01*
X140191899Y-85005227D01*
X140380257Y-84927206D01*
X140549775Y-84813938D01*
X140693938Y-84669775D01*
X140807206Y-84500257D01*
X140885227Y-84311899D01*
X140925001Y-84111940D01*
X140925001Y-83908062D01*
X140885227Y-83708103D01*
X140807206Y-83519745D01*
X140693938Y-83350227D01*
X140549775Y-83206064D01*
X140380257Y-83092796D01*
X140191899Y-83014775D01*
X139991940Y-82975001D01*
X139788062Y-82975001D01*
X139588103Y-83014775D01*
X139399745Y-83092796D01*
X139230227Y-83206064D01*
X139086064Y-83350227D01*
X138972796Y-83519745D01*
X138894775Y-83708103D01*
X138855001Y-83908062D01*
X126252872Y-83908062D01*
X126252872Y-82411200D01*
X126240612Y-82286718D01*
X126204302Y-82167020D01*
X126195344Y-82150261D01*
X132652200Y-82150261D01*
X132652200Y-82354139D01*
X132691974Y-82554098D01*
X132769995Y-82742456D01*
X132883263Y-82911974D01*
X133027426Y-83056137D01*
X133196944Y-83169405D01*
X133385302Y-83247426D01*
X133585261Y-83287200D01*
X133789139Y-83287200D01*
X133989098Y-83247426D01*
X134177456Y-83169405D01*
X134346974Y-83056137D01*
X134491137Y-82911974D01*
X134604405Y-82742456D01*
X134682426Y-82554098D01*
X134722200Y-82354139D01*
X134722200Y-82150261D01*
X134682426Y-81950302D01*
X134604405Y-81761944D01*
X134491137Y-81592426D01*
X134346974Y-81448263D01*
X134177456Y-81334995D01*
X133989098Y-81256974D01*
X133789139Y-81217200D01*
X133585261Y-81217200D01*
X133385302Y-81256974D01*
X133196944Y-81334995D01*
X133027426Y-81448263D01*
X132883263Y-81592426D01*
X132769995Y-81761944D01*
X132691974Y-81950302D01*
X132652200Y-82150261D01*
X126195344Y-82150261D01*
X126145337Y-82056706D01*
X126065985Y-81960015D01*
X125969294Y-81880663D01*
X125858980Y-81821698D01*
X125739282Y-81785388D01*
X125614800Y-81773128D01*
X123914800Y-81773128D01*
X123790318Y-81785388D01*
X123670620Y-81821698D01*
X123560306Y-81880663D01*
X123463615Y-81960015D01*
X123384263Y-82056706D01*
X123325298Y-82167020D01*
X123300834Y-82247666D01*
X123225069Y-82163612D01*
X122991720Y-81989559D01*
X122728899Y-81864375D01*
X122581690Y-81819724D01*
X122351800Y-81941045D01*
X122097800Y-81941045D01*
X121867910Y-81819724D01*
X121720701Y-81864375D01*
X121457880Y-81989559D01*
X121224531Y-82163612D01*
X121029622Y-82379845D01*
X120880643Y-82629948D01*
X120783319Y-82904309D01*
X120548000Y-82904309D01*
X120548000Y-81203800D01*
X121663408Y-81203800D01*
X121788213Y-81255496D01*
X122211970Y-81339787D01*
X122644030Y-81339787D01*
X123067787Y-81255496D01*
X123192592Y-81203800D01*
X125476000Y-81203800D01*
X125500776Y-81201360D01*
X125524601Y-81194133D01*
X125546557Y-81182397D01*
X125565803Y-81166603D01*
X125581597Y-81147357D01*
X125593333Y-81125401D01*
X125600560Y-81101576D01*
X125602911Y-81081559D01*
X125684774Y-78898540D01*
X142025000Y-78898540D01*
X142025000Y-79191060D01*
X142082068Y-79477958D01*
X142194010Y-79748211D01*
X142356525Y-79991432D01*
X142563368Y-80198275D01*
X142806589Y-80360790D01*
X143076842Y-80472732D01*
X143363740Y-80529800D01*
X143656260Y-80529800D01*
X143943158Y-80472732D01*
X144213411Y-80360790D01*
X144456632Y-80198275D01*
X144663475Y-79991432D01*
X144780000Y-79817040D01*
X144896525Y-79991432D01*
X145103368Y-80198275D01*
X145346589Y-80360790D01*
X145616842Y-80472732D01*
X145903740Y-80529800D01*
X146196260Y-80529800D01*
X146483158Y-80472732D01*
X146753411Y-80360790D01*
X146996632Y-80198275D01*
X147203475Y-79991432D01*
X147320000Y-79817040D01*
X147436525Y-79991432D01*
X147643368Y-80198275D01*
X147886589Y-80360790D01*
X148156842Y-80472732D01*
X148443740Y-80529800D01*
X148736260Y-80529800D01*
X149023158Y-80472732D01*
X149293411Y-80360790D01*
X149536632Y-80198275D01*
X149668487Y-80066420D01*
X149690498Y-80138980D01*
X149749463Y-80249294D01*
X149828815Y-80345985D01*
X149925506Y-80425337D01*
X150035820Y-80484302D01*
X150155518Y-80520612D01*
X150280000Y-80532872D01*
X150844250Y-80529800D01*
X151003000Y-80371050D01*
X151003000Y-79171800D01*
X151257000Y-79171800D01*
X151257000Y-80371050D01*
X151415750Y-80529800D01*
X151980000Y-80532872D01*
X152104482Y-80520612D01*
X152224180Y-80484302D01*
X152334494Y-80425337D01*
X152431185Y-80345985D01*
X152510537Y-80249294D01*
X152569502Y-80138980D01*
X152605812Y-80019282D01*
X152618072Y-79894800D01*
X152615000Y-79330550D01*
X152456250Y-79171800D01*
X151257000Y-79171800D01*
X151003000Y-79171800D01*
X150983000Y-79171800D01*
X150983000Y-78917800D01*
X151003000Y-78917800D01*
X151003000Y-77718550D01*
X151257000Y-77718550D01*
X151257000Y-78917800D01*
X152456250Y-78917800D01*
X152615000Y-78759050D01*
X152618072Y-78194800D01*
X152605812Y-78070318D01*
X152569502Y-77950620D01*
X152510537Y-77840306D01*
X152431185Y-77743615D01*
X152334494Y-77664263D01*
X152224180Y-77605298D01*
X152104482Y-77568988D01*
X151980000Y-77556728D01*
X151415750Y-77559800D01*
X151257000Y-77718550D01*
X151003000Y-77718550D01*
X150844250Y-77559800D01*
X150280000Y-77556728D01*
X150155518Y-77568988D01*
X150035820Y-77605298D01*
X149925506Y-77664263D01*
X149828815Y-77743615D01*
X149749463Y-77840306D01*
X149690498Y-77950620D01*
X149668487Y-78023180D01*
X149536632Y-77891325D01*
X149293411Y-77728810D01*
X149023158Y-77616868D01*
X148736260Y-77559800D01*
X148443740Y-77559800D01*
X148156842Y-77616868D01*
X147886589Y-77728810D01*
X147643368Y-77891325D01*
X147436525Y-78098168D01*
X147320000Y-78272560D01*
X147203475Y-78098168D01*
X146996632Y-77891325D01*
X146753411Y-77728810D01*
X146483158Y-77616868D01*
X146196260Y-77559800D01*
X145903740Y-77559800D01*
X145616842Y-77616868D01*
X145346589Y-77728810D01*
X145103368Y-77891325D01*
X144896525Y-78098168D01*
X144780000Y-78272560D01*
X144663475Y-78098168D01*
X144456632Y-77891325D01*
X144213411Y-77728810D01*
X143943158Y-77616868D01*
X143656260Y-77559800D01*
X143363740Y-77559800D01*
X143076842Y-77616868D01*
X142806589Y-77728810D01*
X142563368Y-77891325D01*
X142356525Y-78098168D01*
X142194010Y-78341389D01*
X142082068Y-78611642D01*
X142025000Y-78898540D01*
X125684774Y-78898540D01*
X125745980Y-77266400D01*
X153746200Y-77266400D01*
X153746200Y-81178400D01*
%TA.AperFunction,Conductor*%
D17*
G36*
X153746200Y-81178400D02*
G01*
X153748640Y-81203176D01*
X153755867Y-81227001D01*
X153767603Y-81248957D01*
X153783397Y-81268203D01*
X153802643Y-81283997D01*
X153824599Y-81295733D01*
X153848424Y-81302960D01*
X153870555Y-81305372D01*
X158445601Y-81400685D01*
X158445600Y-107493200D01*
X120723502Y-107493200D01*
X120655816Y-102426400D01*
X121143128Y-102426400D01*
X121143128Y-104126400D01*
X121155388Y-104250882D01*
X121191698Y-104370580D01*
X121250663Y-104480894D01*
X121330015Y-104577585D01*
X121426706Y-104656937D01*
X121537020Y-104715902D01*
X121609580Y-104737913D01*
X121477725Y-104869768D01*
X121315210Y-105112989D01*
X121203268Y-105383242D01*
X121146200Y-105670140D01*
X121146200Y-105962660D01*
X121203268Y-106249558D01*
X121315210Y-106519811D01*
X121477725Y-106763032D01*
X121684568Y-106969875D01*
X121927789Y-107132390D01*
X122198042Y-107244332D01*
X122484940Y-107301400D01*
X122777460Y-107301400D01*
X123064358Y-107244332D01*
X123334611Y-107132390D01*
X123577832Y-106969875D01*
X123784675Y-106763032D01*
X123906395Y-106580866D01*
X123976022Y-106697755D01*
X124170931Y-106913988D01*
X124404280Y-107088041D01*
X124667101Y-107213225D01*
X124814310Y-107257876D01*
X125044200Y-107136555D01*
X125044200Y-105943400D01*
X125024200Y-105943400D01*
X125024200Y-105689400D01*
X125044200Y-105689400D01*
X125044200Y-105669400D01*
X125298200Y-105669400D01*
X125298200Y-105689400D01*
X125318200Y-105689400D01*
X125318200Y-105943400D01*
X125298200Y-105943400D01*
X125298200Y-107136555D01*
X125528090Y-107257876D01*
X125675299Y-107213225D01*
X125938120Y-107088041D01*
X126171469Y-106913988D01*
X126366378Y-106697755D01*
X126436005Y-106580866D01*
X126557725Y-106763032D01*
X126764568Y-106969875D01*
X127007789Y-107132390D01*
X127278042Y-107244332D01*
X127564940Y-107301400D01*
X127857460Y-107301400D01*
X128144358Y-107244332D01*
X128414611Y-107132390D01*
X128657832Y-106969875D01*
X128864675Y-106763032D01*
X129027190Y-106519811D01*
X129139132Y-106249558D01*
X129196200Y-105962660D01*
X129196200Y-105670140D01*
X129139132Y-105383242D01*
X129027190Y-105112989D01*
X128997130Y-105068000D01*
X133690728Y-105068000D01*
X133690728Y-106768000D01*
X133702988Y-106892482D01*
X133739298Y-107012180D01*
X133798263Y-107122494D01*
X133877615Y-107219185D01*
X133974306Y-107298537D01*
X134084620Y-107357502D01*
X134204318Y-107393812D01*
X134328800Y-107406072D01*
X136028800Y-107406072D01*
X136153282Y-107393812D01*
X136272980Y-107357502D01*
X136383294Y-107298537D01*
X136479985Y-107219185D01*
X136559337Y-107122494D01*
X136618302Y-107012180D01*
X136640313Y-106939620D01*
X136772168Y-107071475D01*
X137015389Y-107233990D01*
X137285642Y-107345932D01*
X137572540Y-107403000D01*
X137865060Y-107403000D01*
X138151958Y-107345932D01*
X138422211Y-107233990D01*
X138665432Y-107071475D01*
X138872275Y-106864632D01*
X138988800Y-106690240D01*
X139105325Y-106864632D01*
X139312168Y-107071475D01*
X139555389Y-107233990D01*
X139825642Y-107345932D01*
X140112540Y-107403000D01*
X140405060Y-107403000D01*
X140691958Y-107345932D01*
X140962211Y-107233990D01*
X141205432Y-107071475D01*
X141412275Y-106864632D01*
X141528800Y-106690240D01*
X141645325Y-106864632D01*
X141852168Y-107071475D01*
X142095389Y-107233990D01*
X142365642Y-107345932D01*
X142652540Y-107403000D01*
X142945060Y-107403000D01*
X143231958Y-107345932D01*
X143502211Y-107233990D01*
X143745432Y-107071475D01*
X143952275Y-106864632D01*
X144068800Y-106690240D01*
X144185325Y-106864632D01*
X144392168Y-107071475D01*
X144635389Y-107233990D01*
X144905642Y-107345932D01*
X145192540Y-107403000D01*
X145485060Y-107403000D01*
X145771958Y-107345932D01*
X146042211Y-107233990D01*
X146285432Y-107071475D01*
X146492275Y-106864632D01*
X146608800Y-106690240D01*
X146725325Y-106864632D01*
X146932168Y-107071475D01*
X147175389Y-107233990D01*
X147445642Y-107345932D01*
X147732540Y-107403000D01*
X148025060Y-107403000D01*
X148311958Y-107345932D01*
X148582211Y-107233990D01*
X148825432Y-107071475D01*
X149032275Y-106864632D01*
X149148800Y-106690240D01*
X149265325Y-106864632D01*
X149472168Y-107071475D01*
X149715389Y-107233990D01*
X149985642Y-107345932D01*
X150272540Y-107403000D01*
X150565060Y-107403000D01*
X150851958Y-107345932D01*
X151122211Y-107233990D01*
X151365432Y-107071475D01*
X151572275Y-106864632D01*
X151693995Y-106682466D01*
X151763622Y-106799355D01*
X151958531Y-107015588D01*
X152191880Y-107189641D01*
X152454701Y-107314825D01*
X152601910Y-107359476D01*
X152831800Y-107238155D01*
X152831800Y-106045000D01*
X152811800Y-106045000D01*
X152811800Y-105791000D01*
X152831800Y-105791000D01*
X152831800Y-104597845D01*
X153085800Y-104597845D01*
X153085800Y-105791000D01*
X153105800Y-105791000D01*
X153105800Y-106045000D01*
X153085800Y-106045000D01*
X153085800Y-107238155D01*
X153315690Y-107359476D01*
X153462899Y-107314825D01*
X153725720Y-107189641D01*
X153959069Y-107015588D01*
X154153978Y-106799355D01*
X154223605Y-106682466D01*
X154345325Y-106864632D01*
X154552168Y-107071475D01*
X154795389Y-107233990D01*
X155065642Y-107345932D01*
X155352540Y-107403000D01*
X155645060Y-107403000D01*
X155931958Y-107345932D01*
X156202211Y-107233990D01*
X156445432Y-107071475D01*
X156652275Y-106864632D01*
X156814790Y-106621411D01*
X156926732Y-106351158D01*
X156983800Y-106064260D01*
X156983800Y-105771740D01*
X156926732Y-105484842D01*
X156814790Y-105214589D01*
X156652275Y-104971368D01*
X156445432Y-104764525D01*
X156202211Y-104602010D01*
X155931958Y-104490068D01*
X155645060Y-104433000D01*
X155352540Y-104433000D01*
X155065642Y-104490068D01*
X154795389Y-104602010D01*
X154552168Y-104764525D01*
X154345325Y-104971368D01*
X154223605Y-105153534D01*
X154153978Y-105036645D01*
X153959069Y-104820412D01*
X153725720Y-104646359D01*
X153462899Y-104521175D01*
X153315690Y-104476524D01*
X153085800Y-104597845D01*
X152831800Y-104597845D01*
X152601910Y-104476524D01*
X152454701Y-104521175D01*
X152191880Y-104646359D01*
X151958531Y-104820412D01*
X151763622Y-105036645D01*
X151693995Y-105153534D01*
X151572275Y-104971368D01*
X151365432Y-104764525D01*
X151122211Y-104602010D01*
X150851958Y-104490068D01*
X150565060Y-104433000D01*
X150272540Y-104433000D01*
X149985642Y-104490068D01*
X149715389Y-104602010D01*
X149472168Y-104764525D01*
X149265325Y-104971368D01*
X149148800Y-105145760D01*
X149032275Y-104971368D01*
X148825432Y-104764525D01*
X148582211Y-104602010D01*
X148311958Y-104490068D01*
X148025060Y-104433000D01*
X147732540Y-104433000D01*
X147445642Y-104490068D01*
X147175389Y-104602010D01*
X146932168Y-104764525D01*
X146725325Y-104971368D01*
X146608800Y-105145760D01*
X146492275Y-104971368D01*
X146285432Y-104764525D01*
X146042211Y-104602010D01*
X145771958Y-104490068D01*
X145485060Y-104433000D01*
X145192540Y-104433000D01*
X144905642Y-104490068D01*
X144635389Y-104602010D01*
X144392168Y-104764525D01*
X144185325Y-104971368D01*
X144068800Y-105145760D01*
X143952275Y-104971368D01*
X143745432Y-104764525D01*
X143502211Y-104602010D01*
X143231958Y-104490068D01*
X142945060Y-104433000D01*
X142652540Y-104433000D01*
X142365642Y-104490068D01*
X142095389Y-104602010D01*
X141852168Y-104764525D01*
X141645325Y-104971368D01*
X141528800Y-105145760D01*
X141412275Y-104971368D01*
X141205432Y-104764525D01*
X140962211Y-104602010D01*
X140691958Y-104490068D01*
X140405060Y-104433000D01*
X140210311Y-104433000D01*
X140249937Y-104393374D01*
X140363205Y-104223856D01*
X140441226Y-104035498D01*
X140481000Y-103835539D01*
X140481000Y-103631661D01*
X140441226Y-103431702D01*
X140363205Y-103243344D01*
X140249937Y-103073826D01*
X140105774Y-102929663D01*
X139936256Y-102816395D01*
X139880889Y-102793461D01*
X141382800Y-102793461D01*
X141382800Y-102997339D01*
X141422574Y-103197298D01*
X141500595Y-103385656D01*
X141613863Y-103555174D01*
X141758026Y-103699337D01*
X141927544Y-103812605D01*
X142115902Y-103890626D01*
X142315861Y-103930400D01*
X142519739Y-103930400D01*
X142719698Y-103890626D01*
X142908056Y-103812605D01*
X143077574Y-103699337D01*
X143145235Y-103631676D01*
X143149774Y-103654498D01*
X143227795Y-103842856D01*
X143341063Y-104012374D01*
X143485226Y-104156537D01*
X143654744Y-104269805D01*
X143843102Y-104347826D01*
X144043061Y-104387600D01*
X144246939Y-104387600D01*
X144446898Y-104347826D01*
X144635256Y-104269805D01*
X144804774Y-104156537D01*
X144948937Y-104012374D01*
X145062205Y-103842856D01*
X145140226Y-103654498D01*
X145180000Y-103454539D01*
X145180000Y-103250661D01*
X145140226Y-103050702D01*
X145062205Y-102862344D01*
X144948937Y-102692826D01*
X144804774Y-102548663D01*
X144635256Y-102435395D01*
X144534022Y-102393462D01*
X154604600Y-102393462D01*
X154604600Y-102597340D01*
X154644374Y-102797299D01*
X154722395Y-102985657D01*
X154835663Y-103155175D01*
X154979826Y-103299338D01*
X155149344Y-103412606D01*
X155337702Y-103490627D01*
X155537661Y-103530401D01*
X155741539Y-103530401D01*
X155941498Y-103490627D01*
X156129856Y-103412606D01*
X156299374Y-103299338D01*
X156443537Y-103155175D01*
X156556805Y-102985657D01*
X156634826Y-102797299D01*
X156674600Y-102597340D01*
X156674600Y-102393462D01*
X156634826Y-102193503D01*
X156556805Y-102005145D01*
X156443537Y-101835627D01*
X156299374Y-101691464D01*
X156129856Y-101578196D01*
X155941498Y-101500175D01*
X155741539Y-101460401D01*
X155537661Y-101460401D01*
X155337702Y-101500175D01*
X155149344Y-101578196D01*
X154979826Y-101691464D01*
X154835663Y-101835627D01*
X154722395Y-102005145D01*
X154644374Y-102193503D01*
X154604600Y-102393462D01*
X144534022Y-102393462D01*
X144446898Y-102357374D01*
X144246939Y-102317600D01*
X144043061Y-102317600D01*
X143843102Y-102357374D01*
X143654744Y-102435395D01*
X143485226Y-102548663D01*
X143417565Y-102616324D01*
X143413026Y-102593502D01*
X143335005Y-102405144D01*
X143221737Y-102235626D01*
X143077574Y-102091463D01*
X142908056Y-101978195D01*
X142719698Y-101900174D01*
X142519739Y-101860400D01*
X142315861Y-101860400D01*
X142115902Y-101900174D01*
X141927544Y-101978195D01*
X141758026Y-102091463D01*
X141613863Y-102235626D01*
X141500595Y-102405144D01*
X141422574Y-102593502D01*
X141382800Y-102793461D01*
X139880889Y-102793461D01*
X139747898Y-102738374D01*
X139547939Y-102698600D01*
X139344061Y-102698600D01*
X139144102Y-102738374D01*
X138955744Y-102816395D01*
X138786226Y-102929663D01*
X138682375Y-103033514D01*
X138573537Y-102870626D01*
X138429374Y-102726463D01*
X138259856Y-102613195D01*
X138071498Y-102535174D01*
X137871539Y-102495400D01*
X137667661Y-102495400D01*
X137467702Y-102535174D01*
X137279344Y-102613195D01*
X137109826Y-102726463D01*
X136965663Y-102870626D01*
X136852395Y-103040144D01*
X136774374Y-103228502D01*
X136734600Y-103428461D01*
X136734600Y-103632339D01*
X136774374Y-103832298D01*
X136852395Y-104020656D01*
X136965663Y-104190174D01*
X137109826Y-104334337D01*
X137279344Y-104447605D01*
X137350643Y-104477138D01*
X137285642Y-104490068D01*
X137015389Y-104602010D01*
X136772168Y-104764525D01*
X136640313Y-104896380D01*
X136618302Y-104823820D01*
X136559337Y-104713506D01*
X136479985Y-104616815D01*
X136383294Y-104537463D01*
X136272980Y-104478498D01*
X136153282Y-104442188D01*
X136028800Y-104429928D01*
X134328800Y-104429928D01*
X134204318Y-104442188D01*
X134084620Y-104478498D01*
X133974306Y-104537463D01*
X133877615Y-104616815D01*
X133798263Y-104713506D01*
X133739298Y-104823820D01*
X133702988Y-104943518D01*
X133690728Y-105068000D01*
X128997130Y-105068000D01*
X128864675Y-104869768D01*
X128657832Y-104662925D01*
X128483440Y-104546400D01*
X128657832Y-104429875D01*
X128864675Y-104223032D01*
X129027190Y-103979811D01*
X129139132Y-103709558D01*
X129196200Y-103422660D01*
X129196200Y-103130140D01*
X129139132Y-102843242D01*
X129027190Y-102572989D01*
X128864675Y-102329768D01*
X128657832Y-102122925D01*
X128414611Y-101960410D01*
X128144358Y-101848468D01*
X127857460Y-101791400D01*
X127564940Y-101791400D01*
X127278042Y-101848468D01*
X127007789Y-101960410D01*
X126764568Y-102122925D01*
X126557725Y-102329768D01*
X126441200Y-102504160D01*
X126324675Y-102329768D01*
X126117832Y-102122925D01*
X125874611Y-101960410D01*
X125604358Y-101848468D01*
X125317460Y-101791400D01*
X125024940Y-101791400D01*
X124738042Y-101848468D01*
X124467789Y-101960410D01*
X124224568Y-102122925D01*
X124092713Y-102254780D01*
X124070702Y-102182220D01*
X124011737Y-102071906D01*
X123932385Y-101975215D01*
X123835694Y-101895863D01*
X123725380Y-101836898D01*
X123605682Y-101800588D01*
X123481200Y-101788328D01*
X121781200Y-101788328D01*
X121656718Y-101800588D01*
X121537020Y-101836898D01*
X121426706Y-101895863D01*
X121330015Y-101975215D01*
X121250663Y-102071906D01*
X121191698Y-102182220D01*
X121155388Y-102301918D01*
X121143128Y-102426400D01*
X120655816Y-102426400D01*
X120629503Y-100456661D01*
X125507800Y-100456661D01*
X125507800Y-100660539D01*
X125547574Y-100860498D01*
X125625595Y-101048856D01*
X125738863Y-101218374D01*
X125883026Y-101362537D01*
X126052544Y-101475805D01*
X126240902Y-101553826D01*
X126440861Y-101593600D01*
X126644739Y-101593600D01*
X126844698Y-101553826D01*
X127033056Y-101475805D01*
X127202574Y-101362537D01*
X127346737Y-101218374D01*
X127460005Y-101048856D01*
X127538026Y-100860498D01*
X127577800Y-100660539D01*
X127577800Y-100583661D01*
X129013000Y-100583661D01*
X129013000Y-100787539D01*
X129052774Y-100987498D01*
X129130795Y-101175856D01*
X129244063Y-101345374D01*
X129388226Y-101489537D01*
X129557744Y-101602805D01*
X129746102Y-101680826D01*
X129946061Y-101720600D01*
X130149939Y-101720600D01*
X130349898Y-101680826D01*
X130538256Y-101602805D01*
X130707774Y-101489537D01*
X130851937Y-101345374D01*
X130965205Y-101175856D01*
X131043226Y-100987498D01*
X131083000Y-100787539D01*
X131083000Y-100583661D01*
X131057739Y-100456661D01*
X137014000Y-100456661D01*
X137014000Y-100660539D01*
X137053774Y-100860498D01*
X137131795Y-101048856D01*
X137245063Y-101218374D01*
X137389226Y-101362537D01*
X137558744Y-101475805D01*
X137747102Y-101553826D01*
X137947061Y-101593600D01*
X138150939Y-101593600D01*
X138350898Y-101553826D01*
X138539256Y-101475805D01*
X138708774Y-101362537D01*
X138852937Y-101218374D01*
X138966205Y-101048856D01*
X139044226Y-100860498D01*
X139058873Y-100786861D01*
X139376200Y-100786861D01*
X139376200Y-100990739D01*
X139415974Y-101190698D01*
X139493995Y-101379056D01*
X139607263Y-101548574D01*
X139751426Y-101692737D01*
X139920944Y-101806005D01*
X140109302Y-101884026D01*
X140309261Y-101923800D01*
X140513139Y-101923800D01*
X140713098Y-101884026D01*
X140901456Y-101806005D01*
X141070974Y-101692737D01*
X141215137Y-101548574D01*
X141328405Y-101379056D01*
X141406426Y-101190698D01*
X141446200Y-100990739D01*
X141446200Y-100786861D01*
X141406426Y-100586902D01*
X141328405Y-100398544D01*
X141215137Y-100229026D01*
X141070974Y-100084863D01*
X141019189Y-100050261D01*
X153879600Y-100050261D01*
X153879600Y-100254139D01*
X153919374Y-100454098D01*
X153997395Y-100642456D01*
X154110663Y-100811974D01*
X154254826Y-100956137D01*
X154424344Y-101069405D01*
X154612702Y-101147426D01*
X154812661Y-101187200D01*
X155016539Y-101187200D01*
X155216498Y-101147426D01*
X155404856Y-101069405D01*
X155574374Y-100956137D01*
X155718537Y-100811974D01*
X155831805Y-100642456D01*
X155909826Y-100454098D01*
X155949600Y-100254139D01*
X155949600Y-100050261D01*
X155909826Y-99850302D01*
X155831805Y-99661944D01*
X155718537Y-99492426D01*
X155574374Y-99348263D01*
X155404856Y-99234995D01*
X155216498Y-99156974D01*
X155016539Y-99117200D01*
X154812661Y-99117200D01*
X154612702Y-99156974D01*
X154424344Y-99234995D01*
X154254826Y-99348263D01*
X154110663Y-99492426D01*
X153997395Y-99661944D01*
X153919374Y-99850302D01*
X153879600Y-100050261D01*
X141019189Y-100050261D01*
X140901456Y-99971595D01*
X140713098Y-99893574D01*
X140513139Y-99853800D01*
X140309261Y-99853800D01*
X140109302Y-99893574D01*
X139920944Y-99971595D01*
X139751426Y-100084863D01*
X139607263Y-100229026D01*
X139493995Y-100398544D01*
X139415974Y-100586902D01*
X139376200Y-100786861D01*
X139058873Y-100786861D01*
X139084000Y-100660539D01*
X139084000Y-100456661D01*
X139044226Y-100256702D01*
X138966205Y-100068344D01*
X138852937Y-99898826D01*
X138708774Y-99754663D01*
X138539256Y-99641395D01*
X138350898Y-99563374D01*
X138150939Y-99523600D01*
X137947061Y-99523600D01*
X137747102Y-99563374D01*
X137558744Y-99641395D01*
X137389226Y-99754663D01*
X137245063Y-99898826D01*
X137131795Y-100068344D01*
X137053774Y-100256702D01*
X137014000Y-100456661D01*
X131057739Y-100456661D01*
X131043226Y-100383702D01*
X130965205Y-100195344D01*
X130851937Y-100025826D01*
X130707774Y-99881663D01*
X130538256Y-99768395D01*
X130349898Y-99690374D01*
X130149939Y-99650600D01*
X129946061Y-99650600D01*
X129746102Y-99690374D01*
X129557744Y-99768395D01*
X129388226Y-99881663D01*
X129244063Y-100025826D01*
X129130795Y-100195344D01*
X129052774Y-100383702D01*
X129013000Y-100583661D01*
X127577800Y-100583661D01*
X127577800Y-100456661D01*
X127538026Y-100256702D01*
X127460005Y-100068344D01*
X127346737Y-99898826D01*
X127202574Y-99754663D01*
X127033056Y-99641395D01*
X126844698Y-99563374D01*
X126644739Y-99523600D01*
X126440861Y-99523600D01*
X126240902Y-99563374D01*
X126052544Y-99641395D01*
X125883026Y-99754663D01*
X125738863Y-99898826D01*
X125625595Y-100068344D01*
X125547574Y-100256702D01*
X125507800Y-100456661D01*
X120629503Y-100456661D01*
X120602019Y-98399261D01*
X149993400Y-98399261D01*
X149993400Y-98603139D01*
X150033174Y-98803098D01*
X150111195Y-98991456D01*
X150224463Y-99160974D01*
X150368626Y-99305137D01*
X150538144Y-99418405D01*
X150726502Y-99496426D01*
X150926461Y-99536200D01*
X151130339Y-99536200D01*
X151330298Y-99496426D01*
X151518656Y-99418405D01*
X151688174Y-99305137D01*
X151832337Y-99160974D01*
X151945605Y-98991456D01*
X152023626Y-98803098D01*
X152063400Y-98603139D01*
X152063400Y-98399261D01*
X152023626Y-98199302D01*
X151945605Y-98010944D01*
X151933573Y-97992938D01*
X151984737Y-97941774D01*
X152098005Y-97772256D01*
X152176026Y-97583898D01*
X152215800Y-97383939D01*
X152215800Y-97180061D01*
X152176026Y-96980102D01*
X152098005Y-96791744D01*
X151984737Y-96622226D01*
X151840574Y-96478063D01*
X151671056Y-96364795D01*
X151482698Y-96286774D01*
X151282739Y-96247000D01*
X151078861Y-96247000D01*
X150878902Y-96286774D01*
X150690544Y-96364795D01*
X150521026Y-96478063D01*
X150376863Y-96622226D01*
X150263595Y-96791744D01*
X150185574Y-96980102D01*
X150145800Y-97180061D01*
X150145800Y-97383939D01*
X150185574Y-97583898D01*
X150263595Y-97772256D01*
X150275627Y-97790262D01*
X150224463Y-97841426D01*
X150111195Y-98010944D01*
X150033174Y-98199302D01*
X149993400Y-98399261D01*
X120602019Y-98399261D01*
X120580303Y-96773661D01*
X129906409Y-96773661D01*
X129906409Y-96977539D01*
X129946183Y-97177498D01*
X130024204Y-97365856D01*
X130137472Y-97535374D01*
X130281635Y-97679537D01*
X130451153Y-97792805D01*
X130639511Y-97870826D01*
X130839470Y-97910600D01*
X131043348Y-97910600D01*
X131243307Y-97870826D01*
X131431665Y-97792805D01*
X131601183Y-97679537D01*
X131745346Y-97535374D01*
X131858614Y-97365856D01*
X131936635Y-97177498D01*
X131976409Y-96977539D01*
X131976409Y-96915401D01*
X133026461Y-95865350D01*
X133026200Y-95866660D01*
X133026200Y-96070538D01*
X133065974Y-96270497D01*
X133143995Y-96458855D01*
X133257263Y-96628373D01*
X133401426Y-96772536D01*
X133570944Y-96885804D01*
X133759302Y-96963825D01*
X133959261Y-97003599D01*
X134163139Y-97003599D01*
X134363098Y-96963825D01*
X134551456Y-96885804D01*
X134720974Y-96772536D01*
X134865137Y-96628373D01*
X134975600Y-96463053D01*
X135086063Y-96628373D01*
X135230226Y-96772536D01*
X135399744Y-96885804D01*
X135588102Y-96963825D01*
X135788061Y-97003599D01*
X135991939Y-97003599D01*
X136191898Y-96963825D01*
X136380256Y-96885804D01*
X136549774Y-96772536D01*
X136693937Y-96628373D01*
X136807205Y-96458855D01*
X136885226Y-96270497D01*
X136925000Y-96070538D01*
X136925000Y-95884661D01*
X142195600Y-95884661D01*
X142195600Y-96088539D01*
X142235374Y-96288498D01*
X142313395Y-96476856D01*
X142426663Y-96646374D01*
X142570826Y-96790537D01*
X142740344Y-96903805D01*
X142928702Y-96981826D01*
X143128661Y-97021600D01*
X143332539Y-97021600D01*
X143532498Y-96981826D01*
X143720856Y-96903805D01*
X143784541Y-96861252D01*
X143866226Y-96942937D01*
X144035744Y-97056205D01*
X144224102Y-97134226D01*
X144424061Y-97174000D01*
X144627939Y-97174000D01*
X144827898Y-97134226D01*
X145016256Y-97056205D01*
X145185774Y-96942937D01*
X145329119Y-96799592D01*
X145458144Y-96885804D01*
X145646502Y-96963825D01*
X145846461Y-97003599D01*
X146050339Y-97003599D01*
X146250298Y-96963825D01*
X146438656Y-96885804D01*
X146494500Y-96848490D01*
X146550344Y-96885804D01*
X146738702Y-96963825D01*
X146938661Y-97003599D01*
X147142539Y-97003599D01*
X147342498Y-96963825D01*
X147530856Y-96885804D01*
X147700374Y-96772536D01*
X147844537Y-96628373D01*
X147957805Y-96458855D01*
X148035826Y-96270497D01*
X148075600Y-96070538D01*
X148075600Y-95866660D01*
X148035826Y-95666701D01*
X147957805Y-95478343D01*
X147844537Y-95308825D01*
X147700374Y-95164662D01*
X147530856Y-95051394D01*
X147342498Y-94973373D01*
X147142539Y-94933599D01*
X146938661Y-94933599D01*
X146738702Y-94973373D01*
X146550344Y-95051394D01*
X146494500Y-95088708D01*
X146438656Y-95051394D01*
X146250298Y-94973373D01*
X146050339Y-94933599D01*
X145846461Y-94933599D01*
X145646502Y-94973373D01*
X145458144Y-95051394D01*
X145288626Y-95164662D01*
X145145281Y-95308007D01*
X145016256Y-95221795D01*
X144827898Y-95143774D01*
X144627939Y-95104000D01*
X144424061Y-95104000D01*
X144224102Y-95143774D01*
X144035744Y-95221795D01*
X143972059Y-95264348D01*
X143890374Y-95182663D01*
X143720856Y-95069395D01*
X143532498Y-94991374D01*
X143332539Y-94951600D01*
X143128661Y-94951600D01*
X142928702Y-94991374D01*
X142740344Y-95069395D01*
X142570826Y-95182663D01*
X142426663Y-95326826D01*
X142313395Y-95496344D01*
X142235374Y-95684702D01*
X142195600Y-95884661D01*
X136925000Y-95884661D01*
X136925000Y-95866660D01*
X136885226Y-95666701D01*
X136807205Y-95478343D01*
X136693937Y-95308825D01*
X136549774Y-95164662D01*
X136380256Y-95051394D01*
X136191898Y-94973373D01*
X135991939Y-94933599D01*
X135788061Y-94933599D01*
X135588102Y-94973373D01*
X135399744Y-95051394D01*
X135230226Y-95164662D01*
X135086063Y-95308825D01*
X134975600Y-95474145D01*
X134865137Y-95308825D01*
X134720974Y-95164662D01*
X134551456Y-95051394D01*
X134363098Y-94973373D01*
X134163139Y-94933599D01*
X133959261Y-94933599D01*
X133957951Y-94933860D01*
X134759750Y-94132061D01*
X149155200Y-94132061D01*
X149155200Y-94335939D01*
X149194974Y-94535898D01*
X149272995Y-94724256D01*
X149386263Y-94893774D01*
X149530426Y-95037937D01*
X149699944Y-95151205D01*
X149888302Y-95229226D01*
X150088261Y-95269000D01*
X150160531Y-95269000D01*
X150187395Y-95333856D01*
X150300663Y-95503374D01*
X150444826Y-95647537D01*
X150614344Y-95760805D01*
X150802702Y-95838826D01*
X151002661Y-95878600D01*
X151206539Y-95878600D01*
X151406498Y-95838826D01*
X151594856Y-95760805D01*
X151764374Y-95647537D01*
X151908537Y-95503374D01*
X152010175Y-95351261D01*
X152584200Y-95351261D01*
X152584200Y-95555139D01*
X152623974Y-95755098D01*
X152701995Y-95943456D01*
X152815263Y-96112974D01*
X152959426Y-96257137D01*
X153128944Y-96370405D01*
X153317302Y-96448426D01*
X153517261Y-96488200D01*
X153721139Y-96488200D01*
X153921098Y-96448426D01*
X154109456Y-96370405D01*
X154278974Y-96257137D01*
X154423137Y-96112974D01*
X154536405Y-95943456D01*
X154614426Y-95755098D01*
X154654200Y-95555139D01*
X154654200Y-95351261D01*
X154614426Y-95151302D01*
X154536405Y-94962944D01*
X154423137Y-94793426D01*
X154278974Y-94649263D01*
X154109456Y-94535995D01*
X153921098Y-94457974D01*
X153721139Y-94418200D01*
X153517261Y-94418200D01*
X153317302Y-94457974D01*
X153128944Y-94535995D01*
X152959426Y-94649263D01*
X152815263Y-94793426D01*
X152701995Y-94962944D01*
X152623974Y-95151302D01*
X152584200Y-95351261D01*
X152010175Y-95351261D01*
X152021805Y-95333856D01*
X152099826Y-95145498D01*
X152139600Y-94945539D01*
X152139600Y-94741661D01*
X152099826Y-94541702D01*
X152021805Y-94353344D01*
X151908537Y-94183826D01*
X151764374Y-94039663D01*
X151594856Y-93926395D01*
X151406498Y-93848374D01*
X151206539Y-93808600D01*
X151134269Y-93808600D01*
X151107405Y-93743744D01*
X150994137Y-93574226D01*
X150849974Y-93430063D01*
X150680456Y-93316795D01*
X150492098Y-93238774D01*
X150292139Y-93199000D01*
X150088261Y-93199000D01*
X149888302Y-93238774D01*
X149699944Y-93316795D01*
X149530426Y-93430063D01*
X149386263Y-93574226D01*
X149272995Y-93743744D01*
X149194974Y-93932102D01*
X149155200Y-94132061D01*
X134759750Y-94132061D01*
X136309150Y-92582661D01*
X137395000Y-92582661D01*
X137395000Y-92786539D01*
X137434774Y-92986498D01*
X137512795Y-93174856D01*
X137626063Y-93344374D01*
X137770226Y-93488537D01*
X137939744Y-93601805D01*
X138128102Y-93679826D01*
X138328061Y-93719600D01*
X138531939Y-93719600D01*
X138731898Y-93679826D01*
X138920256Y-93601805D01*
X139089774Y-93488537D01*
X139233937Y-93344374D01*
X139347205Y-93174856D01*
X139425226Y-92986498D01*
X139465000Y-92786539D01*
X139465000Y-92582661D01*
X139425226Y-92382702D01*
X139413363Y-92354061D01*
X139833400Y-92354061D01*
X139833400Y-92557939D01*
X139873174Y-92757898D01*
X139951195Y-92946256D01*
X140064463Y-93115774D01*
X140208626Y-93259937D01*
X140378144Y-93373205D01*
X140566502Y-93451226D01*
X140766461Y-93491000D01*
X140970339Y-93491000D01*
X141170298Y-93451226D01*
X141358656Y-93373205D01*
X141528174Y-93259937D01*
X141672337Y-93115774D01*
X141785605Y-92946256D01*
X141804930Y-92899600D01*
X154264728Y-92899600D01*
X154276988Y-93024082D01*
X154313298Y-93143780D01*
X154372263Y-93254094D01*
X154451615Y-93350785D01*
X154548306Y-93430137D01*
X154658620Y-93489102D01*
X154778318Y-93525412D01*
X154902800Y-93537672D01*
X155467050Y-93534600D01*
X155625800Y-93375850D01*
X155625800Y-92176600D01*
X155879800Y-92176600D01*
X155879800Y-93375850D01*
X156038550Y-93534600D01*
X156602800Y-93537672D01*
X156727282Y-93525412D01*
X156846980Y-93489102D01*
X156957294Y-93430137D01*
X157053985Y-93350785D01*
X157133337Y-93254094D01*
X157192302Y-93143780D01*
X157228612Y-93024082D01*
X157240872Y-92899600D01*
X157237800Y-92335350D01*
X157079050Y-92176600D01*
X155879800Y-92176600D01*
X155625800Y-92176600D01*
X154426550Y-92176600D01*
X154267800Y-92335350D01*
X154264728Y-92899600D01*
X141804930Y-92899600D01*
X141863626Y-92757898D01*
X141903400Y-92557939D01*
X141903400Y-92354061D01*
X141863626Y-92154102D01*
X141785605Y-91965744D01*
X141672337Y-91796226D01*
X141528174Y-91652063D01*
X141358656Y-91538795D01*
X141170298Y-91460774D01*
X140970339Y-91421000D01*
X140766461Y-91421000D01*
X140566502Y-91460774D01*
X140378144Y-91538795D01*
X140208626Y-91652063D01*
X140064463Y-91796226D01*
X139951195Y-91965744D01*
X139873174Y-92154102D01*
X139833400Y-92354061D01*
X139413363Y-92354061D01*
X139347205Y-92194344D01*
X139233937Y-92024826D01*
X139089774Y-91880663D01*
X138920256Y-91767395D01*
X138731898Y-91689374D01*
X138531939Y-91649600D01*
X138328061Y-91649600D01*
X138128102Y-91689374D01*
X137939744Y-91767395D01*
X137770226Y-91880663D01*
X137626063Y-92024826D01*
X137512795Y-92194344D01*
X137434774Y-92382702D01*
X137395000Y-92582661D01*
X136309150Y-92582661D01*
X138513013Y-90378799D01*
X141934194Y-90378799D01*
X141971516Y-90382475D01*
X142008838Y-90378799D01*
X142008849Y-90378799D01*
X142120502Y-90367802D01*
X142123631Y-90366853D01*
X142160995Y-90457056D01*
X142274263Y-90626574D01*
X142418426Y-90770737D01*
X142587944Y-90884005D01*
X142776302Y-90962026D01*
X142806376Y-90968008D01*
X142881829Y-91150166D01*
X142995097Y-91319684D01*
X143139260Y-91463847D01*
X143308778Y-91577115D01*
X143497136Y-91655136D01*
X143697095Y-91694910D01*
X143900973Y-91694910D01*
X144100932Y-91655136D01*
X144289290Y-91577115D01*
X144458808Y-91463847D01*
X144602971Y-91319684D01*
X144716239Y-91150166D01*
X144794260Y-90961808D01*
X144834034Y-90761849D01*
X144834034Y-90557971D01*
X144794260Y-90358012D01*
X144716239Y-90169654D01*
X144602971Y-90000136D01*
X144534047Y-89931212D01*
X147226400Y-89931212D01*
X147226400Y-90154788D01*
X147270017Y-90374067D01*
X147355576Y-90580624D01*
X147479788Y-90766520D01*
X147637880Y-90924612D01*
X147823776Y-91048824D01*
X148030333Y-91134383D01*
X148249612Y-91178000D01*
X148473188Y-91178000D01*
X148692467Y-91134383D01*
X148899024Y-91048824D01*
X149084920Y-90924612D01*
X149181532Y-90828000D01*
X154386301Y-90828000D01*
X154372263Y-90845106D01*
X154313298Y-90955420D01*
X154276988Y-91075118D01*
X154264728Y-91199600D01*
X154267800Y-91763850D01*
X154426550Y-91922600D01*
X155625800Y-91922600D01*
X155625800Y-91902600D01*
X155879800Y-91902600D01*
X155879800Y-91922600D01*
X157079050Y-91922600D01*
X157237800Y-91763850D01*
X157240872Y-91199600D01*
X157228612Y-91075118D01*
X157192302Y-90955420D01*
X157133337Y-90845106D01*
X157053985Y-90748415D01*
X156957294Y-90669063D01*
X156846980Y-90610098D01*
X156774420Y-90588087D01*
X156906275Y-90456232D01*
X157068790Y-90213011D01*
X157180732Y-89942758D01*
X157237800Y-89655860D01*
X157237800Y-89363340D01*
X157180732Y-89076442D01*
X157068790Y-88806189D01*
X156906275Y-88562968D01*
X156699432Y-88356125D01*
X156525040Y-88239600D01*
X156699432Y-88123075D01*
X156906275Y-87916232D01*
X157068790Y-87673011D01*
X157180732Y-87402758D01*
X157237800Y-87115860D01*
X157237800Y-86823340D01*
X157180732Y-86536442D01*
X157068790Y-86266189D01*
X156906275Y-86022968D01*
X156699432Y-85816125D01*
X156525040Y-85699600D01*
X156699432Y-85583075D01*
X156906275Y-85376232D01*
X157068790Y-85133011D01*
X157180732Y-84862758D01*
X157237800Y-84575860D01*
X157237800Y-84283340D01*
X157180732Y-83996442D01*
X157068790Y-83726189D01*
X156906275Y-83482968D01*
X156699432Y-83276125D01*
X156456211Y-83113610D01*
X156185958Y-83001668D01*
X155899060Y-82944600D01*
X155606540Y-82944600D01*
X155319642Y-83001668D01*
X155049389Y-83113610D01*
X154806168Y-83276125D01*
X154599325Y-83482968D01*
X154436810Y-83726189D01*
X154324868Y-83996442D01*
X154267800Y-84283340D01*
X154267800Y-84575860D01*
X154324868Y-84862758D01*
X154436810Y-85133011D01*
X154599325Y-85376232D01*
X154806168Y-85583075D01*
X154980560Y-85699600D01*
X154806168Y-85816125D01*
X154599325Y-86022968D01*
X154436810Y-86266189D01*
X154324868Y-86536442D01*
X154267800Y-86823340D01*
X154267800Y-87115860D01*
X154324868Y-87402758D01*
X154436810Y-87673011D01*
X154599325Y-87916232D01*
X154806168Y-88123075D01*
X154980560Y-88239600D01*
X154806168Y-88356125D01*
X154599325Y-88562968D01*
X154436810Y-88806189D01*
X154324868Y-89076442D01*
X154288754Y-89258000D01*
X149181532Y-89258000D01*
X149084920Y-89161388D01*
X148899024Y-89037176D01*
X148692467Y-88951617D01*
X148473188Y-88908000D01*
X148249612Y-88908000D01*
X148030333Y-88951617D01*
X147823776Y-89037176D01*
X147637880Y-89161388D01*
X147479788Y-89319480D01*
X147355576Y-89505376D01*
X147270017Y-89711933D01*
X147226400Y-89931212D01*
X144534047Y-89931212D01*
X144458808Y-89855973D01*
X144289290Y-89742705D01*
X144100932Y-89664684D01*
X144070858Y-89658702D01*
X143995405Y-89476544D01*
X143882137Y-89307026D01*
X143737974Y-89162863D01*
X143596670Y-89068447D01*
X144964200Y-87700917D01*
X144964200Y-87731939D01*
X145003974Y-87931898D01*
X145081995Y-88120256D01*
X145195263Y-88289774D01*
X145339426Y-88433937D01*
X145508944Y-88547205D01*
X145697302Y-88625226D01*
X145897261Y-88665000D01*
X146101139Y-88665000D01*
X146301098Y-88625226D01*
X146489456Y-88547205D01*
X146658974Y-88433937D01*
X146803137Y-88289774D01*
X146916405Y-88120256D01*
X146994426Y-87931898D01*
X147034200Y-87731939D01*
X147034200Y-87670117D01*
X147074863Y-87730974D01*
X147219026Y-87875137D01*
X147388544Y-87988405D01*
X147576902Y-88066426D01*
X147776861Y-88106200D01*
X147980739Y-88106200D01*
X148180698Y-88066426D01*
X148369056Y-87988405D01*
X148538574Y-87875137D01*
X148682737Y-87730974D01*
X148796005Y-87561456D01*
X148874026Y-87373098D01*
X148913800Y-87173139D01*
X148913800Y-86969261D01*
X148874026Y-86769302D01*
X148796005Y-86580944D01*
X148682737Y-86411426D01*
X148538574Y-86267263D01*
X148487296Y-86233000D01*
X148538574Y-86198737D01*
X148682737Y-86054574D01*
X148796005Y-85885056D01*
X148874026Y-85696698D01*
X148913800Y-85496739D01*
X148913800Y-85292861D01*
X148874026Y-85092902D01*
X148796005Y-84904544D01*
X148682737Y-84735026D01*
X148538574Y-84590863D01*
X148369056Y-84477595D01*
X148180698Y-84399574D01*
X147980739Y-84359800D01*
X147776861Y-84359800D01*
X147576902Y-84399574D01*
X147460503Y-84447788D01*
X147353056Y-84375995D01*
X147164698Y-84297974D01*
X146964739Y-84258200D01*
X146760861Y-84258200D01*
X146560902Y-84297974D01*
X146372544Y-84375995D01*
X146203026Y-84489263D01*
X146148076Y-84544213D01*
X146004868Y-84587654D01*
X145872839Y-84658226D01*
X145757114Y-84753199D01*
X145733316Y-84782197D01*
X145301212Y-85214301D01*
X145185774Y-85098863D01*
X145016256Y-84985595D01*
X144827898Y-84907574D01*
X144627939Y-84867800D01*
X144424061Y-84867800D01*
X144224102Y-84907574D01*
X144035744Y-84985595D01*
X143866226Y-85098863D01*
X143722063Y-85243026D01*
X143608795Y-85412544D01*
X143530774Y-85600902D01*
X143491000Y-85800861D01*
X143491000Y-86004739D01*
X143530774Y-86204698D01*
X143608795Y-86393056D01*
X143722063Y-86562574D01*
X143837501Y-86678012D01*
X141656715Y-88858799D01*
X140121203Y-88858799D01*
X140156383Y-88773867D01*
X140200000Y-88554588D01*
X140200000Y-88331012D01*
X140156383Y-88111733D01*
X140070824Y-87905176D01*
X139946612Y-87719280D01*
X139788520Y-87561188D01*
X139602624Y-87436976D01*
X139556883Y-87418029D01*
X139589537Y-87385375D01*
X139702805Y-87215857D01*
X139780826Y-87027499D01*
X139820600Y-86827540D01*
X139820600Y-86623662D01*
X139780826Y-86423703D01*
X139702805Y-86235345D01*
X139589537Y-86065827D01*
X139445374Y-85921664D01*
X139275856Y-85808396D01*
X139087498Y-85730375D01*
X138887539Y-85690601D01*
X138683661Y-85690601D01*
X138483702Y-85730375D01*
X138295344Y-85808396D01*
X138125826Y-85921664D01*
X137981663Y-86065827D01*
X137908172Y-86175815D01*
X137615347Y-85882990D01*
X137590764Y-85853036D01*
X137471233Y-85754938D01*
X137334860Y-85682046D01*
X137186887Y-85637159D01*
X137071561Y-85625800D01*
X137071553Y-85625800D01*
X137033000Y-85622003D01*
X136994447Y-85625800D01*
X133433532Y-85625800D01*
X133336920Y-85529188D01*
X133151024Y-85404976D01*
X132944467Y-85319417D01*
X132725188Y-85275800D01*
X132501612Y-85275800D01*
X132282333Y-85319417D01*
X132075776Y-85404976D01*
X131889880Y-85529188D01*
X131731788Y-85687280D01*
X131607576Y-85873176D01*
X131522017Y-86079733D01*
X131478400Y-86299012D01*
X131478400Y-86522588D01*
X131522017Y-86741867D01*
X131607576Y-86948424D01*
X131731788Y-87134320D01*
X131889880Y-87292412D01*
X132075776Y-87416624D01*
X132282333Y-87502183D01*
X132501612Y-87545800D01*
X132725188Y-87545800D01*
X132944467Y-87502183D01*
X133151024Y-87416624D01*
X133336920Y-87292412D01*
X133433532Y-87195800D01*
X136707843Y-87195800D01*
X137930000Y-88417958D01*
X137930000Y-88554588D01*
X137973617Y-88773867D01*
X138017356Y-88879463D01*
X137905963Y-88913253D01*
X137773934Y-88983825D01*
X137773932Y-88983826D01*
X137773933Y-88983826D01*
X137687206Y-89055000D01*
X137687202Y-89055004D01*
X137658209Y-89078798D01*
X137634415Y-89107791D01*
X130901608Y-95840600D01*
X130839470Y-95840600D01*
X130639511Y-95880374D01*
X130451153Y-95958395D01*
X130281635Y-96071663D01*
X130137472Y-96215826D01*
X130024204Y-96385344D01*
X129946183Y-96573702D01*
X129906409Y-96773661D01*
X120580303Y-96773661D01*
X120564694Y-95605261D01*
X123882200Y-95605261D01*
X123882200Y-95809139D01*
X123921974Y-96009098D01*
X123999995Y-96197456D01*
X124113263Y-96366974D01*
X124257426Y-96511137D01*
X124426944Y-96624405D01*
X124615302Y-96702426D01*
X124815261Y-96742200D01*
X125019139Y-96742200D01*
X125219098Y-96702426D01*
X125407456Y-96624405D01*
X125576974Y-96511137D01*
X125721137Y-96366974D01*
X125834405Y-96197456D01*
X125912426Y-96009098D01*
X125952200Y-95809139D01*
X125952200Y-95605261D01*
X125912426Y-95405302D01*
X125834405Y-95216944D01*
X125721137Y-95047426D01*
X125576974Y-94903263D01*
X125407456Y-94789995D01*
X125219098Y-94711974D01*
X125019139Y-94672200D01*
X124815261Y-94672200D01*
X124615302Y-94711974D01*
X124426944Y-94789995D01*
X124257426Y-94903263D01*
X124113263Y-95047426D01*
X123999995Y-95216944D01*
X123921974Y-95405302D01*
X123882200Y-95605261D01*
X120564694Y-95605261D01*
X120548000Y-94355596D01*
X120548000Y-93979661D01*
X126523800Y-93979661D01*
X126523800Y-94183539D01*
X126563574Y-94383498D01*
X126641595Y-94571856D01*
X126754863Y-94741374D01*
X126899026Y-94885537D01*
X127068544Y-94998805D01*
X127256902Y-95076826D01*
X127456861Y-95116600D01*
X127660739Y-95116600D01*
X127860698Y-95076826D01*
X128049056Y-94998805D01*
X128218574Y-94885537D01*
X128362737Y-94741374D01*
X128476005Y-94571856D01*
X128554026Y-94383498D01*
X128593800Y-94183539D01*
X128593800Y-93979661D01*
X128554026Y-93779702D01*
X128476005Y-93591344D01*
X128362737Y-93421826D01*
X128218574Y-93277663D01*
X128049056Y-93164395D01*
X127860698Y-93086374D01*
X127660739Y-93046600D01*
X127456861Y-93046600D01*
X127256902Y-93086374D01*
X127068544Y-93164395D01*
X126899026Y-93277663D01*
X126754863Y-93421826D01*
X126641595Y-93591344D01*
X126563574Y-93779702D01*
X126523800Y-93979661D01*
X120548000Y-93979661D01*
X120548000Y-90322061D01*
X130283000Y-90322061D01*
X130283000Y-90525939D01*
X130322774Y-90725898D01*
X130400795Y-90914256D01*
X130514063Y-91083774D01*
X130658226Y-91227937D01*
X130827744Y-91341205D01*
X131016102Y-91419226D01*
X131216061Y-91459000D01*
X131419939Y-91459000D01*
X131619898Y-91419226D01*
X131808256Y-91341205D01*
X131977774Y-91227937D01*
X132121937Y-91083774D01*
X132235205Y-90914256D01*
X132313226Y-90725898D01*
X132329253Y-90645323D01*
X132333661Y-90646200D01*
X132537539Y-90646200D01*
X132737498Y-90606426D01*
X132925856Y-90528405D01*
X133095374Y-90415137D01*
X133239537Y-90270974D01*
X133352805Y-90101456D01*
X133430826Y-89913098D01*
X133470600Y-89713139D01*
X133470600Y-89509261D01*
X133430826Y-89309302D01*
X133352805Y-89120944D01*
X133239537Y-88951426D01*
X133095374Y-88807263D01*
X132925856Y-88693995D01*
X132737498Y-88615974D01*
X132537539Y-88576200D01*
X132333661Y-88576200D01*
X132133702Y-88615974D01*
X131945344Y-88693995D01*
X131775826Y-88807263D01*
X131631663Y-88951426D01*
X131518395Y-89120944D01*
X131440374Y-89309302D01*
X131424347Y-89389877D01*
X131419939Y-89389000D01*
X131216061Y-89389000D01*
X131016102Y-89428774D01*
X130827744Y-89506795D01*
X130658226Y-89620063D01*
X130514063Y-89764226D01*
X130400795Y-89933744D01*
X130322774Y-90122102D01*
X130283000Y-90322061D01*
X120548000Y-90322061D01*
X120548000Y-83618091D01*
X120783319Y-83618091D01*
X120880643Y-83892452D01*
X121029622Y-84142555D01*
X121224531Y-84358788D01*
X121457880Y-84532841D01*
X121720701Y-84658025D01*
X121867910Y-84702676D01*
X122097800Y-84581355D01*
X122097800Y-83388200D01*
X120903986Y-83388200D01*
X120783319Y-83618091D01*
X120548000Y-83618091D01*
X120548000Y-82904309D01*
X120783319Y-82904309D01*
X120903986Y-83134200D01*
X122097800Y-83134200D01*
X122097800Y-81941045D01*
X122351800Y-81941045D01*
X122351800Y-83134200D01*
X122371800Y-83134200D01*
X122371800Y-83388200D01*
X122351800Y-83388200D01*
X122351800Y-84581355D01*
X122581690Y-84702676D01*
X122728899Y-84658025D01*
X122991720Y-84532841D01*
X123225069Y-84358788D01*
X123300834Y-84274734D01*
X123325298Y-84355380D01*
X123384263Y-84465694D01*
X123463615Y-84562385D01*
X123560306Y-84641737D01*
X123670620Y-84700702D01*
X123790318Y-84737012D01*
X123914800Y-84749272D01*
X125614800Y-84749272D01*
X125739282Y-84737012D01*
X125858980Y-84700702D01*
X125969294Y-84641737D01*
X126065985Y-84562385D01*
X126145337Y-84465694D01*
X126204302Y-84355380D01*
X126240612Y-84235682D01*
X126252872Y-84111200D01*
X126252872Y-83908062D01*
X138855001Y-83908062D01*
X138855001Y-84111940D01*
X138894775Y-84311899D01*
X138972796Y-84500257D01*
X139086064Y-84669775D01*
X139230227Y-84813938D01*
X139399745Y-84927206D01*
X139588103Y-85005227D01*
X139788062Y-85045001D01*
X139991940Y-85045001D01*
X140191899Y-85005227D01*
X140380257Y-84927206D01*
X140549775Y-84813938D01*
X140693938Y-84669775D01*
X140807206Y-84500257D01*
X140885227Y-84311899D01*
X140925001Y-84111940D01*
X140925001Y-83908062D01*
X140885227Y-83708103D01*
X140807206Y-83519745D01*
X140693938Y-83350227D01*
X140549775Y-83206064D01*
X140380257Y-83092796D01*
X140191899Y-83014775D01*
X139991940Y-82975001D01*
X139788062Y-82975001D01*
X139588103Y-83014775D01*
X139399745Y-83092796D01*
X139230227Y-83206064D01*
X139086064Y-83350227D01*
X138972796Y-83519745D01*
X138894775Y-83708103D01*
X138855001Y-83908062D01*
X126252872Y-83908062D01*
X126252872Y-82411200D01*
X126240612Y-82286718D01*
X126204302Y-82167020D01*
X126195344Y-82150261D01*
X132652200Y-82150261D01*
X132652200Y-82354139D01*
X132691974Y-82554098D01*
X132769995Y-82742456D01*
X132883263Y-82911974D01*
X133027426Y-83056137D01*
X133196944Y-83169405D01*
X133385302Y-83247426D01*
X133585261Y-83287200D01*
X133789139Y-83287200D01*
X133989098Y-83247426D01*
X134177456Y-83169405D01*
X134346974Y-83056137D01*
X134491137Y-82911974D01*
X134604405Y-82742456D01*
X134682426Y-82554098D01*
X134722200Y-82354139D01*
X134722200Y-82150261D01*
X134682426Y-81950302D01*
X134604405Y-81761944D01*
X134491137Y-81592426D01*
X134346974Y-81448263D01*
X134177456Y-81334995D01*
X133989098Y-81256974D01*
X133789139Y-81217200D01*
X133585261Y-81217200D01*
X133385302Y-81256974D01*
X133196944Y-81334995D01*
X133027426Y-81448263D01*
X132883263Y-81592426D01*
X132769995Y-81761944D01*
X132691974Y-81950302D01*
X132652200Y-82150261D01*
X126195344Y-82150261D01*
X126145337Y-82056706D01*
X126065985Y-81960015D01*
X125969294Y-81880663D01*
X125858980Y-81821698D01*
X125739282Y-81785388D01*
X125614800Y-81773128D01*
X123914800Y-81773128D01*
X123790318Y-81785388D01*
X123670620Y-81821698D01*
X123560306Y-81880663D01*
X123463615Y-81960015D01*
X123384263Y-82056706D01*
X123325298Y-82167020D01*
X123300834Y-82247666D01*
X123225069Y-82163612D01*
X122991720Y-81989559D01*
X122728899Y-81864375D01*
X122581690Y-81819724D01*
X122351800Y-81941045D01*
X122097800Y-81941045D01*
X121867910Y-81819724D01*
X121720701Y-81864375D01*
X121457880Y-81989559D01*
X121224531Y-82163612D01*
X121029622Y-82379845D01*
X120880643Y-82629948D01*
X120783319Y-82904309D01*
X120548000Y-82904309D01*
X120548000Y-81203800D01*
X121663408Y-81203800D01*
X121788213Y-81255496D01*
X122211970Y-81339787D01*
X122644030Y-81339787D01*
X123067787Y-81255496D01*
X123192592Y-81203800D01*
X125476000Y-81203800D01*
X125500776Y-81201360D01*
X125524601Y-81194133D01*
X125546557Y-81182397D01*
X125565803Y-81166603D01*
X125581597Y-81147357D01*
X125593333Y-81125401D01*
X125600560Y-81101576D01*
X125602911Y-81081559D01*
X125684774Y-78898540D01*
X142025000Y-78898540D01*
X142025000Y-79191060D01*
X142082068Y-79477958D01*
X142194010Y-79748211D01*
X142356525Y-79991432D01*
X142563368Y-80198275D01*
X142806589Y-80360790D01*
X143076842Y-80472732D01*
X143363740Y-80529800D01*
X143656260Y-80529800D01*
X143943158Y-80472732D01*
X144213411Y-80360790D01*
X144456632Y-80198275D01*
X144663475Y-79991432D01*
X144780000Y-79817040D01*
X144896525Y-79991432D01*
X145103368Y-80198275D01*
X145346589Y-80360790D01*
X145616842Y-80472732D01*
X145903740Y-80529800D01*
X146196260Y-80529800D01*
X146483158Y-80472732D01*
X146753411Y-80360790D01*
X146996632Y-80198275D01*
X147203475Y-79991432D01*
X147320000Y-79817040D01*
X147436525Y-79991432D01*
X147643368Y-80198275D01*
X147886589Y-80360790D01*
X148156842Y-80472732D01*
X148443740Y-80529800D01*
X148736260Y-80529800D01*
X149023158Y-80472732D01*
X149293411Y-80360790D01*
X149536632Y-80198275D01*
X149668487Y-80066420D01*
X149690498Y-80138980D01*
X149749463Y-80249294D01*
X149828815Y-80345985D01*
X149925506Y-80425337D01*
X150035820Y-80484302D01*
X150155518Y-80520612D01*
X150280000Y-80532872D01*
X150844250Y-80529800D01*
X151003000Y-80371050D01*
X151003000Y-79171800D01*
X151257000Y-79171800D01*
X151257000Y-80371050D01*
X151415750Y-80529800D01*
X151980000Y-80532872D01*
X152104482Y-80520612D01*
X152224180Y-80484302D01*
X152334494Y-80425337D01*
X152431185Y-80345985D01*
X152510537Y-80249294D01*
X152569502Y-80138980D01*
X152605812Y-80019282D01*
X152618072Y-79894800D01*
X152615000Y-79330550D01*
X152456250Y-79171800D01*
X151257000Y-79171800D01*
X151003000Y-79171800D01*
X150983000Y-79171800D01*
X150983000Y-78917800D01*
X151003000Y-78917800D01*
X151003000Y-77718550D01*
X151257000Y-77718550D01*
X151257000Y-78917800D01*
X152456250Y-78917800D01*
X152615000Y-78759050D01*
X152618072Y-78194800D01*
X152605812Y-78070318D01*
X152569502Y-77950620D01*
X152510537Y-77840306D01*
X152431185Y-77743615D01*
X152334494Y-77664263D01*
X152224180Y-77605298D01*
X152104482Y-77568988D01*
X151980000Y-77556728D01*
X151415750Y-77559800D01*
X151257000Y-77718550D01*
X151003000Y-77718550D01*
X150844250Y-77559800D01*
X150280000Y-77556728D01*
X150155518Y-77568988D01*
X150035820Y-77605298D01*
X149925506Y-77664263D01*
X149828815Y-77743615D01*
X149749463Y-77840306D01*
X149690498Y-77950620D01*
X149668487Y-78023180D01*
X149536632Y-77891325D01*
X149293411Y-77728810D01*
X149023158Y-77616868D01*
X148736260Y-77559800D01*
X148443740Y-77559800D01*
X148156842Y-77616868D01*
X147886589Y-77728810D01*
X147643368Y-77891325D01*
X147436525Y-78098168D01*
X147320000Y-78272560D01*
X147203475Y-78098168D01*
X146996632Y-77891325D01*
X146753411Y-77728810D01*
X146483158Y-77616868D01*
X146196260Y-77559800D01*
X145903740Y-77559800D01*
X145616842Y-77616868D01*
X145346589Y-77728810D01*
X145103368Y-77891325D01*
X144896525Y-78098168D01*
X144780000Y-78272560D01*
X144663475Y-78098168D01*
X144456632Y-77891325D01*
X144213411Y-77728810D01*
X143943158Y-77616868D01*
X143656260Y-77559800D01*
X143363740Y-77559800D01*
X143076842Y-77616868D01*
X142806589Y-77728810D01*
X142563368Y-77891325D01*
X142356525Y-78098168D01*
X142194010Y-78341389D01*
X142082068Y-78611642D01*
X142025000Y-78898540D01*
X125684774Y-78898540D01*
X125745980Y-77266400D01*
X153746200Y-77266400D01*
X153746200Y-81178400D01*
G37*
%TD.AperFunction*%
%TD*%
M02*
