%TF.GenerationSoftware,KiCad,Pcbnew,(5.1.9)-1*%
%TF.CreationDate,2021-04-22T14:42:39+05:30*%
%TF.ProjectId,arduinoclone,61726475-696e-46f6-936c-6f6e652e6b69,v1*%
%TF.SameCoordinates,Original*%
%TF.FileFunction,Copper,L1,Top*%
%TF.FilePolarity,Positive*%
%FSLAX46Y46*%
G04 Gerber Fmt 4.6, Leading zero omitted, Abs format (unit mm)*
G04 Created by KiCad (PCBNEW (5.1.9)-1) date 2021-04-22 14:42:39*
%MOMM*%
%LPD*%
G01*
G04 APERTURE LIST*
%TA.AperFunction,ComponentPad*%
%ADD10R,1.700000X1.700000*%
%TD*%
%TA.AperFunction,ComponentPad*%
%ADD11O,1.700000X1.700000*%
%TD*%
%TA.AperFunction,SMDPad,CuDef*%
%ADD12R,1.700000X0.650000*%
%TD*%
%TA.AperFunction,SMDPad,CuDef*%
%ADD13R,1.000000X1.800000*%
%TD*%
%TA.AperFunction,SMDPad,CuDef*%
%ADD14R,3.500000X2.400000*%
%TD*%
%TA.AperFunction,SMDPad,CuDef*%
%ADD15R,1.600000X0.550000*%
%TD*%
%TA.AperFunction,SMDPad,CuDef*%
%ADD16R,0.550000X1.600000*%
%TD*%
%TA.AperFunction,ViaPad*%
%ADD17C,1.000000*%
%TD*%
%TA.AperFunction,ViaPad*%
%ADD18C,0.800000*%
%TD*%
%TA.AperFunction,Conductor*%
%ADD19C,0.300000*%
%TD*%
%TA.AperFunction,Conductor*%
%ADD20C,0.250000*%
%TD*%
G04 APERTURE END LIST*
%TO.P,U1,1*%
%TO.N,Net-(U1-Pad1)*%
%TA.AperFunction,SMDPad,CuDef*%
G36*
G01*
X145059600Y-97940000D02*
X145059600Y-97640000D01*
G75*
G02*
X145209600Y-97490000I150000J0D01*
G01*
X146809600Y-97490000D01*
G75*
G02*
X146959600Y-97640000I0J-150000D01*
G01*
X146959600Y-97940000D01*
G75*
G02*
X146809600Y-98090000I-150000J0D01*
G01*
X145209600Y-98090000D01*
G75*
G02*
X145059600Y-97940000I0J150000D01*
G01*
G37*
%TD.AperFunction*%
%TO.P,U1,2*%
%TO.N,Net-(U1-Pad2)*%
%TA.AperFunction,SMDPad,CuDef*%
G36*
G01*
X145059600Y-99210000D02*
X145059600Y-98910000D01*
G75*
G02*
X145209600Y-98760000I150000J0D01*
G01*
X146809600Y-98760000D01*
G75*
G02*
X146959600Y-98910000I0J-150000D01*
G01*
X146959600Y-99210000D01*
G75*
G02*
X146809600Y-99360000I-150000J0D01*
G01*
X145209600Y-99360000D01*
G75*
G02*
X145059600Y-99210000I0J150000D01*
G01*
G37*
%TD.AperFunction*%
%TO.P,U1,3*%
%TO.N,/VCC*%
%TA.AperFunction,SMDPad,CuDef*%
G36*
G01*
X145059600Y-100480000D02*
X145059600Y-100180000D01*
G75*
G02*
X145209600Y-100030000I150000J0D01*
G01*
X146809600Y-100030000D01*
G75*
G02*
X146959600Y-100180000I0J-150000D01*
G01*
X146959600Y-100480000D01*
G75*
G02*
X146809600Y-100630000I-150000J0D01*
G01*
X145209600Y-100630000D01*
G75*
G02*
X145059600Y-100480000I0J150000D01*
G01*
G37*
%TD.AperFunction*%
%TO.P,U1,4*%
%TO.N,GNDPWR*%
%TA.AperFunction,SMDPad,CuDef*%
G36*
G01*
X145059600Y-101750000D02*
X145059600Y-101450000D01*
G75*
G02*
X145209600Y-101300000I150000J0D01*
G01*
X146809600Y-101300000D01*
G75*
G02*
X146959600Y-101450000I0J-150000D01*
G01*
X146959600Y-101750000D01*
G75*
G02*
X146809600Y-101900000I-150000J0D01*
G01*
X145209600Y-101900000D01*
G75*
G02*
X145059600Y-101750000I0J150000D01*
G01*
G37*
%TD.AperFunction*%
%TO.P,U1,5*%
%TO.N,/SDA*%
%TA.AperFunction,SMDPad,CuDef*%
G36*
G01*
X152059600Y-101750000D02*
X152059600Y-101450000D01*
G75*
G02*
X152209600Y-101300000I150000J0D01*
G01*
X153809600Y-101300000D01*
G75*
G02*
X153959600Y-101450000I0J-150000D01*
G01*
X153959600Y-101750000D01*
G75*
G02*
X153809600Y-101900000I-150000J0D01*
G01*
X152209600Y-101900000D01*
G75*
G02*
X152059600Y-101750000I0J150000D01*
G01*
G37*
%TD.AperFunction*%
%TO.P,U1,6*%
%TO.N,/SCK*%
%TA.AperFunction,SMDPad,CuDef*%
G36*
G01*
X152059600Y-100480000D02*
X152059600Y-100180000D01*
G75*
G02*
X152209600Y-100030000I150000J0D01*
G01*
X153809600Y-100030000D01*
G75*
G02*
X153959600Y-100180000I0J-150000D01*
G01*
X153959600Y-100480000D01*
G75*
G02*
X153809600Y-100630000I-150000J0D01*
G01*
X152209600Y-100630000D01*
G75*
G02*
X152059600Y-100480000I0J150000D01*
G01*
G37*
%TD.AperFunction*%
%TO.P,U1,7*%
%TO.N,Net-(U1-Pad7)*%
%TA.AperFunction,SMDPad,CuDef*%
G36*
G01*
X152059600Y-99210000D02*
X152059600Y-98910000D01*
G75*
G02*
X152209600Y-98760000I150000J0D01*
G01*
X153809600Y-98760000D01*
G75*
G02*
X153959600Y-98910000I0J-150000D01*
G01*
X153959600Y-99210000D01*
G75*
G02*
X153809600Y-99360000I-150000J0D01*
G01*
X152209600Y-99360000D01*
G75*
G02*
X152059600Y-99210000I0J150000D01*
G01*
G37*
%TD.AperFunction*%
%TO.P,U1,8*%
%TO.N,/VCC*%
%TA.AperFunction,SMDPad,CuDef*%
G36*
G01*
X152059600Y-97940000D02*
X152059600Y-97640000D01*
G75*
G02*
X152209600Y-97490000I150000J0D01*
G01*
X153809600Y-97490000D01*
G75*
G02*
X153959600Y-97640000I0J-150000D01*
G01*
X153959600Y-97940000D01*
G75*
G02*
X153809600Y-98090000I-150000J0D01*
G01*
X152209600Y-98090000D01*
G75*
G02*
X152059600Y-97940000I0J150000D01*
G01*
G37*
%TD.AperFunction*%
%TD*%
D10*
%TO.P,BT1,1*%
%TO.N,/VCC*%
X124764800Y-83261200D03*
D11*
%TO.P,BT1,2*%
%TO.N,GNDPWR*%
X122224800Y-83261200D03*
%TD*%
%TO.P,C1,2*%
%TO.N,GNDPWR*%
%TA.AperFunction,SMDPad,CuDef*%
G36*
G01*
X129981000Y-84422401D02*
X129981000Y-83522399D01*
G75*
G02*
X130230999Y-83272400I249999J0D01*
G01*
X130881001Y-83272400D01*
G75*
G02*
X131131000Y-83522399I0J-249999D01*
G01*
X131131000Y-84422401D01*
G75*
G02*
X130881001Y-84672400I-249999J0D01*
G01*
X130230999Y-84672400D01*
G75*
G02*
X129981000Y-84422401I0J249999D01*
G01*
G37*
%TD.AperFunction*%
%TO.P,C1,1*%
%TO.N,Net-(C1-Pad1)*%
%TA.AperFunction,SMDPad,CuDef*%
G36*
G01*
X127931000Y-84422401D02*
X127931000Y-83522399D01*
G75*
G02*
X128180999Y-83272400I249999J0D01*
G01*
X128831001Y-83272400D01*
G75*
G02*
X129081000Y-83522399I0J-249999D01*
G01*
X129081000Y-84422401D01*
G75*
G02*
X128831001Y-84672400I-249999J0D01*
G01*
X128180999Y-84672400D01*
G75*
G02*
X127931000Y-84422401I0J249999D01*
G01*
G37*
%TD.AperFunction*%
%TD*%
%TO.P,C2,1*%
%TO.N,Net-(C2-Pad1)*%
%TA.AperFunction,SMDPad,CuDef*%
G36*
G01*
X136922200Y-83522399D02*
X136922200Y-84422401D01*
G75*
G02*
X136672201Y-84672400I-249999J0D01*
G01*
X136022199Y-84672400D01*
G75*
G02*
X135772200Y-84422401I0J249999D01*
G01*
X135772200Y-83522399D01*
G75*
G02*
X136022199Y-83272400I249999J0D01*
G01*
X136672201Y-83272400D01*
G75*
G02*
X136922200Y-83522399I0J-249999D01*
G01*
G37*
%TD.AperFunction*%
%TO.P,C2,2*%
%TO.N,GNDPWR*%
%TA.AperFunction,SMDPad,CuDef*%
G36*
G01*
X134872200Y-83522399D02*
X134872200Y-84422401D01*
G75*
G02*
X134622201Y-84672400I-249999J0D01*
G01*
X133972199Y-84672400D01*
G75*
G02*
X133722200Y-84422401I0J249999D01*
G01*
X133722200Y-83522399D01*
G75*
G02*
X133972199Y-83272400I249999J0D01*
G01*
X134622201Y-83272400D01*
G75*
G02*
X134872200Y-83522399I0J-249999D01*
G01*
G37*
%TD.AperFunction*%
%TD*%
%TO.P,C3,1*%
%TO.N,/VCC*%
%TA.AperFunction,SMDPad,CuDef*%
G36*
G01*
X124942400Y-87281599D02*
X124942400Y-88181601D01*
G75*
G02*
X124692401Y-88431600I-249999J0D01*
G01*
X124042399Y-88431600D01*
G75*
G02*
X123792400Y-88181601I0J249999D01*
G01*
X123792400Y-87281599D01*
G75*
G02*
X124042399Y-87031600I249999J0D01*
G01*
X124692401Y-87031600D01*
G75*
G02*
X124942400Y-87281599I0J-249999D01*
G01*
G37*
%TD.AperFunction*%
%TO.P,C3,2*%
%TO.N,GNDPWR*%
%TA.AperFunction,SMDPad,CuDef*%
G36*
G01*
X122892400Y-87281599D02*
X122892400Y-88181601D01*
G75*
G02*
X122642401Y-88431600I-249999J0D01*
G01*
X121992399Y-88431600D01*
G75*
G02*
X121742400Y-88181601I0J249999D01*
G01*
X121742400Y-87281599D01*
G75*
G02*
X121992399Y-87031600I249999J0D01*
G01*
X122642401Y-87031600D01*
G75*
G02*
X122892400Y-87281599I0J-249999D01*
G01*
G37*
%TD.AperFunction*%
%TD*%
%TO.P,D1,1*%
%TO.N,Net-(D1-Pad1)*%
%TA.AperFunction,SMDPad,CuDef*%
G36*
G01*
X128489800Y-99154401D02*
X128489800Y-98254399D01*
G75*
G02*
X128739799Y-98004400I249999J0D01*
G01*
X129389801Y-98004400D01*
G75*
G02*
X129639800Y-98254399I0J-249999D01*
G01*
X129639800Y-99154401D01*
G75*
G02*
X129389801Y-99404400I-249999J0D01*
G01*
X128739799Y-99404400D01*
G75*
G02*
X128489800Y-99154401I0J249999D01*
G01*
G37*
%TD.AperFunction*%
%TO.P,D1,2*%
%TO.N,/SCK*%
%TA.AperFunction,SMDPad,CuDef*%
G36*
G01*
X130539800Y-99154401D02*
X130539800Y-98254399D01*
G75*
G02*
X130789799Y-98004400I249999J0D01*
G01*
X131439801Y-98004400D01*
G75*
G02*
X131689800Y-98254399I0J-249999D01*
G01*
X131689800Y-99154401D01*
G75*
G02*
X131439801Y-99404400I-249999J0D01*
G01*
X130789799Y-99404400D01*
G75*
G02*
X130539800Y-99154401I0J249999D01*
G01*
G37*
%TD.AperFunction*%
%TD*%
D10*
%TO.P,J1,1*%
%TO.N,/MISO*%
X122631200Y-103276400D03*
D11*
%TO.P,J1,2*%
%TO.N,/SCK*%
X122631200Y-105816400D03*
%TO.P,J1,3*%
%TO.N,/RESET*%
X125171200Y-103276400D03*
%TO.P,J1,4*%
%TO.N,GNDPWR*%
X125171200Y-105816400D03*
%TO.P,J1,5*%
%TO.N,/MOSI*%
X127711200Y-103276400D03*
%TO.P,J1,6*%
%TO.N,/VCC*%
X127711200Y-105816400D03*
%TD*%
D10*
%TO.P,J2,1*%
%TO.N,/D2*%
X135178800Y-105918000D03*
D11*
%TO.P,J2,2*%
%TO.N,/D3*%
X137718800Y-105918000D03*
%TO.P,J2,3*%
%TO.N,/D4*%
X140258800Y-105918000D03*
%TO.P,J2,4*%
%TO.N,/D5*%
X142798800Y-105918000D03*
%TO.P,J2,5*%
%TO.N,/D6*%
X145338800Y-105918000D03*
%TO.P,J2,6*%
%TO.N,/D7*%
X147878800Y-105918000D03*
%TO.P,J2,7*%
%TO.N,/D8*%
X150418800Y-105918000D03*
%TO.P,J2,8*%
%TO.N,GNDPWR*%
X152958800Y-105918000D03*
%TO.P,J2,9*%
%TO.N,/VCC*%
X155498800Y-105918000D03*
%TD*%
%TO.P,J3,4*%
%TO.N,/TX*%
X143510000Y-79044800D03*
%TO.P,J3,3*%
%TO.N,/RX*%
X146050000Y-79044800D03*
%TO.P,J3,2*%
%TO.N,/VCC*%
X148590000Y-79044800D03*
D10*
%TO.P,J3,1*%
%TO.N,GNDPWR*%
X151130000Y-79044800D03*
%TD*%
%TO.P,J4,1*%
%TO.N,GNDPWR*%
X155752800Y-92049600D03*
D11*
%TO.P,J4,2*%
%TO.N,/VCC*%
X155752800Y-89509600D03*
%TO.P,J4,3*%
%TO.N,/SDA*%
X155752800Y-86969600D03*
%TO.P,J4,4*%
%TO.N,/SCK*%
X155752800Y-84429600D03*
%TD*%
%TO.P,R1,1*%
%TO.N,Net-(D1-Pad1)*%
%TA.AperFunction,SMDPad,CuDef*%
G36*
G01*
X121682600Y-98748001D02*
X121682600Y-97847999D01*
G75*
G02*
X121932599Y-97598000I249999J0D01*
G01*
X122582601Y-97598000D01*
G75*
G02*
X122832600Y-97847999I0J-249999D01*
G01*
X122832600Y-98748001D01*
G75*
G02*
X122582601Y-98998000I-249999J0D01*
G01*
X121932599Y-98998000D01*
G75*
G02*
X121682600Y-98748001I0J249999D01*
G01*
G37*
%TD.AperFunction*%
%TO.P,R1,2*%
%TO.N,GNDPWR*%
%TA.AperFunction,SMDPad,CuDef*%
G36*
G01*
X123732600Y-98748001D02*
X123732600Y-97847999D01*
G75*
G02*
X123982599Y-97598000I249999J0D01*
G01*
X124632601Y-97598000D01*
G75*
G02*
X124882600Y-97847999I0J-249999D01*
G01*
X124882600Y-98748001D01*
G75*
G02*
X124632601Y-98998000I-249999J0D01*
G01*
X123982599Y-98998000D01*
G75*
G02*
X123732600Y-98748001I0J249999D01*
G01*
G37*
%TD.AperFunction*%
%TD*%
%TO.P,R2,2*%
%TO.N,/VCC*%
%TA.AperFunction,SMDPad,CuDef*%
G36*
G01*
X138564199Y-79663600D02*
X139464201Y-79663600D01*
G75*
G02*
X139714200Y-79913599I0J-249999D01*
G01*
X139714200Y-80563601D01*
G75*
G02*
X139464201Y-80813600I-249999J0D01*
G01*
X138564199Y-80813600D01*
G75*
G02*
X138314200Y-80563601I0J249999D01*
G01*
X138314200Y-79913599D01*
G75*
G02*
X138564199Y-79663600I249999J0D01*
G01*
G37*
%TD.AperFunction*%
%TO.P,R2,1*%
%TO.N,/RESET*%
%TA.AperFunction,SMDPad,CuDef*%
G36*
G01*
X138564199Y-77613600D02*
X139464201Y-77613600D01*
G75*
G02*
X139714200Y-77863599I0J-249999D01*
G01*
X139714200Y-78513601D01*
G75*
G02*
X139464201Y-78763600I-249999J0D01*
G01*
X138564199Y-78763600D01*
G75*
G02*
X138314200Y-78513601I0J249999D01*
G01*
X138314200Y-77863599D01*
G75*
G02*
X138564199Y-77613600I249999J0D01*
G01*
G37*
%TD.AperFunction*%
%TD*%
D12*
%TO.P,U2,8*%
%TO.N,/VCC*%
X136593600Y-88874600D03*
%TO.P,U2,7*%
%TO.N,GNDPWR*%
X136593600Y-90144600D03*
%TO.P,U2,6*%
%TO.N,/SCK*%
X136593600Y-91414600D03*
%TO.P,U2,5*%
%TO.N,/SDA*%
X136593600Y-92684600D03*
%TO.P,U2,4*%
%TO.N,GNDPWR*%
X129293600Y-92684600D03*
%TO.P,U2,3*%
%TO.N,/VCC*%
X129293600Y-91414600D03*
%TO.P,U2,2*%
%TO.N,/ADDS2*%
X129293600Y-90144600D03*
%TO.P,U2,1*%
%TO.N,/ADDS1*%
X129293600Y-88874600D03*
%TD*%
%TO.P,U3,1*%
%TO.N,/ADDS1*%
X134780000Y-97561400D03*
%TO.P,U3,2*%
%TO.N,/ADDS2*%
X134780000Y-98831400D03*
%TO.P,U3,3*%
%TO.N,/VCC*%
X134780000Y-100101400D03*
%TO.P,U3,4*%
%TO.N,GNDPWR*%
X134780000Y-101371400D03*
%TO.P,U3,5*%
%TO.N,/SDA*%
X142080000Y-101371400D03*
%TO.P,U3,6*%
%TO.N,/SCK*%
X142080000Y-100101400D03*
%TO.P,U3,7*%
%TO.N,GNDPWR*%
X142080000Y-98831400D03*
%TO.P,U3,8*%
%TO.N,/VCC*%
X142080000Y-97561400D03*
%TD*%
D13*
%TO.P,Y1,1*%
%TO.N,Net-(U1-Pad2)*%
X122143200Y-93421200D03*
%TO.P,Y1,2*%
%TO.N,Net-(U1-Pad1)*%
X124643200Y-93421200D03*
%TD*%
D14*
%TO.P,Y2,1*%
%TO.N,Net-(C2-Pad1)*%
X134620000Y-79248000D03*
%TO.P,Y2,2*%
%TO.N,Net-(C1-Pad1)*%
X129420000Y-79248000D03*
%TD*%
D15*
%TO.P,U4,1*%
%TO.N,/D3*%
X141512400Y-85192000D03*
%TO.P,U4,2*%
%TO.N,/D4*%
X141512400Y-85992000D03*
%TO.P,U4,3*%
%TO.N,GNDPWR*%
X141512400Y-86792000D03*
%TO.P,U4,4*%
%TO.N,/VCC*%
X141512400Y-87592000D03*
%TO.P,U4,5*%
%TO.N,GNDPWR*%
X141512400Y-88392000D03*
%TO.P,U4,6*%
%TO.N,/VCC*%
X141512400Y-89192000D03*
%TO.P,U4,7*%
%TO.N,Net-(C1-Pad1)*%
X141512400Y-89992000D03*
%TO.P,U4,8*%
%TO.N,Net-(C2-Pad1)*%
X141512400Y-90792000D03*
D16*
%TO.P,U4,9*%
%TO.N,/D5*%
X142962400Y-92242000D03*
%TO.P,U4,10*%
%TO.N,/D6*%
X143762400Y-92242000D03*
%TO.P,U4,11*%
%TO.N,/D7*%
X144562400Y-92242000D03*
%TO.P,U4,12*%
%TO.N,/D8*%
X145362400Y-92242000D03*
%TO.P,U4,13*%
%TO.N,Net-(U4-Pad13)*%
X146162400Y-92242000D03*
%TO.P,U4,14*%
%TO.N,Net-(U4-Pad14)*%
X146962400Y-92242000D03*
%TO.P,U4,15*%
%TO.N,/MOSI*%
X147762400Y-92242000D03*
%TO.P,U4,16*%
%TO.N,/MISO*%
X148562400Y-92242000D03*
D15*
%TO.P,U4,17*%
%TO.N,/SCK*%
X150012400Y-90792000D03*
%TO.P,U4,18*%
%TO.N,/VCC*%
X150012400Y-89992000D03*
%TO.P,U4,19*%
%TO.N,Net-(U4-Pad19)*%
X150012400Y-89192000D03*
%TO.P,U4,20*%
%TO.N,/VCC*%
X150012400Y-88392000D03*
%TO.P,U4,21*%
%TO.N,GNDPWR*%
X150012400Y-87592000D03*
%TO.P,U4,22*%
%TO.N,Net-(U4-Pad22)*%
X150012400Y-86792000D03*
%TO.P,U4,23*%
%TO.N,/ADDS1*%
X150012400Y-85992000D03*
%TO.P,U4,24*%
%TO.N,/ADDS2*%
X150012400Y-85192000D03*
D16*
%TO.P,U4,25*%
%TO.N,Net-(U4-Pad25)*%
X148562400Y-83742000D03*
%TO.P,U4,26*%
%TO.N,Net-(U4-Pad26)*%
X147762400Y-83742000D03*
%TO.P,U4,27*%
%TO.N,/SDA*%
X146962400Y-83742000D03*
%TO.P,U4,28*%
%TO.N,Net-(U4-Pad28)*%
X146162400Y-83742000D03*
%TO.P,U4,29*%
%TO.N,/RESET*%
X145362400Y-83742000D03*
%TO.P,U4,30*%
%TO.N,/RX*%
X144562400Y-83742000D03*
%TO.P,U4,31*%
%TO.N,/TX*%
X143762400Y-83742000D03*
%TO.P,U4,32*%
%TO.N,/D2*%
X142962400Y-83742000D03*
%TD*%
D17*
%TO.N,/VCC*%
X148361400Y-90043000D03*
X132613400Y-86410800D03*
X139065000Y-88442800D03*
%TO.N,GNDPWR*%
X151892000Y-87376000D03*
X121374801Y-90158201D03*
D18*
%TO.N,Net-(C1-Pad1)*%
X133687200Y-82252200D03*
X143078200Y-89966800D03*
%TO.N,Net-(C2-Pad1)*%
X138785600Y-86725601D03*
X143799034Y-90659910D03*
%TO.N,/SCK*%
X154914600Y-100152200D03*
X144145000Y-103352600D03*
X138049000Y-100558600D03*
X140868400Y-92456000D03*
%TO.N,/MISO*%
X151104600Y-94843600D03*
X126542800Y-100558600D03*
%TO.N,/RESET*%
X146862800Y-85293200D03*
X130941409Y-96875600D03*
%TO.N,/MOSI*%
X130048000Y-100685600D03*
X150190200Y-94234000D03*
%TO.N,/D2*%
X145999200Y-87630000D03*
X137769600Y-103530400D03*
%TO.N,/D3*%
X139446000Y-103733600D03*
X139890001Y-84010001D03*
%TO.N,/D4*%
X140411200Y-100888800D03*
X144526000Y-85902800D03*
%TO.N,/D5*%
X143230600Y-95986600D03*
%TO.N,/D6*%
X144526000Y-96139000D03*
%TO.N,/D7*%
X145948400Y-95968599D03*
%TO.N,/D8*%
X147040600Y-95968599D03*
%TO.N,/SDA*%
X142417800Y-102895400D03*
X155639600Y-102495401D03*
X138430000Y-92684600D03*
X153619200Y-95453200D03*
%TO.N,Net-(U1-Pad1)*%
X127558800Y-94081600D03*
X151180800Y-97282000D03*
%TO.N,Net-(U1-Pad2)*%
X124917200Y-95707200D03*
X151028400Y-98501200D03*
%TO.N,/ADDS2*%
X131318000Y-90424000D03*
X134061200Y-95968599D03*
X147878800Y-85394800D03*
%TO.N,/ADDS1*%
X132435600Y-89611200D03*
X135890000Y-95968599D03*
X147878800Y-87071200D03*
%TD*%
D19*
%TO.N,/VCC*%
X124764800Y-87334200D02*
X124367400Y-87731600D01*
X133426200Y-100101400D02*
X134780000Y-100101400D01*
X127711200Y-105816400D02*
X133426200Y-100101400D01*
X154552799Y-90709601D02*
X155752800Y-89509600D01*
X155498800Y-105918000D02*
X154552799Y-104971999D01*
X150012400Y-89992000D02*
X148589800Y-89992000D01*
X148412400Y-89992000D02*
X148361400Y-90043000D01*
X148589800Y-89992000D02*
X148412400Y-89992000D01*
X129293600Y-91414600D02*
X128050400Y-91414600D01*
X136911000Y-89192000D02*
X136593600Y-88874600D01*
X148361400Y-90043000D02*
X147510400Y-89192000D01*
X142853876Y-97561400D02*
X142080000Y-97561400D01*
X145622476Y-100330000D02*
X142853876Y-97561400D01*
X146009600Y-100330000D02*
X145622476Y-100330000D01*
X152622476Y-97790000D02*
X153009600Y-97790000D01*
X150082476Y-100330000D02*
X152622476Y-97790000D01*
X146009600Y-100330000D02*
X150082476Y-100330000D01*
X135315002Y-100101400D02*
X134780000Y-100101400D01*
X137855002Y-97561400D02*
X135315002Y-100101400D01*
X142080000Y-97561400D02*
X137855002Y-97561400D01*
X141408001Y-77844799D02*
X139014200Y-80238600D01*
X147389999Y-77844799D02*
X141408001Y-77844799D01*
X148590000Y-79044800D02*
X147389999Y-77844799D01*
X142684600Y-87664200D02*
X142684600Y-89192000D01*
X142612400Y-87592000D02*
X142684600Y-87664200D01*
X141512400Y-87592000D02*
X142612400Y-87592000D01*
X142684600Y-89192000D02*
X141512400Y-89192000D01*
X147510400Y-89192000D02*
X142684600Y-89192000D01*
X122785598Y-85598000D02*
X124764800Y-85598000D01*
X121024799Y-83837201D02*
X122785598Y-85598000D01*
X126101911Y-81561189D02*
X122148809Y-81561189D01*
X126464811Y-81924089D02*
X126101911Y-81561189D01*
X121024799Y-82685199D02*
X121024799Y-83837201D01*
X136650001Y-77697999D02*
X127389999Y-77697999D01*
X122148809Y-81561189D02*
X121024799Y-82685199D01*
X139014200Y-80238600D02*
X139014200Y-80062198D01*
X127389999Y-77697999D02*
X126464811Y-78623187D01*
X124764800Y-85598000D02*
X124764800Y-87334200D01*
X126464811Y-78623187D02*
X126464811Y-81924089D01*
X139014200Y-80062198D02*
X136650001Y-77697999D01*
X124764800Y-83261200D02*
X124764800Y-85598000D01*
X126128200Y-89492400D02*
X129209800Y-86410800D01*
X128050400Y-91414600D02*
X126128200Y-89492400D01*
X126128200Y-89492400D02*
X124367400Y-87731600D01*
X129209800Y-86410800D02*
X132613400Y-86410800D01*
X139103000Y-88480800D02*
X139065000Y-88442800D01*
X139103000Y-89192000D02*
X139103000Y-88480800D01*
X141512400Y-89192000D02*
X139103000Y-89192000D01*
X139103000Y-89192000D02*
X136911000Y-89192000D01*
X154552799Y-96246801D02*
X153009600Y-97790000D01*
X154552799Y-90709601D02*
X154552799Y-96246801D01*
X154552799Y-104800323D02*
X150082476Y-100330000D01*
X154552799Y-104971999D02*
X154552799Y-104800323D01*
%TO.N,GNDPWR*%
X151130000Y-79044800D02*
X154178000Y-82092800D01*
X154178000Y-82092800D02*
X157886400Y-82092800D01*
X157886400Y-82092800D02*
X158165800Y-82372200D01*
X158165800Y-89636600D02*
X155752800Y-92049600D01*
X158165800Y-82372200D02*
X158165800Y-89636600D01*
X150012400Y-87592000D02*
X151320400Y-87592000D01*
X151320400Y-87592000D02*
X151511000Y-87401400D01*
X151536400Y-87376000D02*
X151892000Y-87376000D01*
X151511000Y-87401400D02*
X151536400Y-87376000D01*
X122317400Y-89215602D02*
X121374801Y-90158201D01*
X122317400Y-87731600D02*
X122317400Y-89215602D01*
X120874802Y-90658200D02*
X121374801Y-90158201D01*
X120874802Y-94865202D02*
X120874802Y-90658200D01*
X124307600Y-98298000D02*
X120874802Y-94865202D01*
X125617201Y-90158201D02*
X121374801Y-90158201D01*
X128143600Y-92684600D02*
X125617201Y-90158201D01*
X129293600Y-92684600D02*
X128143600Y-92684600D01*
X134297200Y-83972400D02*
X130556000Y-83972400D01*
X123424801Y-82061199D02*
X122224800Y-83261200D01*
X125894801Y-82061199D02*
X123424801Y-82061199D01*
X125964801Y-82131199D02*
X125894801Y-82061199D01*
X125964801Y-83054747D02*
X125964801Y-82131199D01*
X127932464Y-85022410D02*
X125964801Y-83054747D01*
X129505990Y-85022410D02*
X127932464Y-85022410D01*
X130556000Y-83972400D02*
X129505990Y-85022410D01*
X135443600Y-90144600D02*
X134297200Y-88998200D01*
X136593600Y-90144600D02*
X135443600Y-90144600D01*
X140607398Y-88392000D02*
X141512400Y-88392000D01*
X140362399Y-88147001D02*
X140607398Y-88392000D01*
X140607398Y-86792000D02*
X140362399Y-87036999D01*
X141512400Y-86792000D02*
X140607398Y-86792000D01*
X134988401Y-87475601D02*
X134297200Y-86784400D01*
X140362399Y-87475601D02*
X134988401Y-87475601D01*
X134297200Y-86784400D02*
X134297200Y-83972400D01*
X140362399Y-87036999D02*
X140362399Y-87475601D01*
X134297200Y-88998200D02*
X134297200Y-86784400D01*
X140362399Y-87475601D02*
X140362399Y-88147001D01*
X142615002Y-98831400D02*
X142080000Y-98831400D01*
X145383602Y-101600000D02*
X142615002Y-98831400D01*
X146009600Y-101600000D02*
X145383602Y-101600000D01*
X135315002Y-101371400D02*
X134780000Y-101371400D01*
X137855002Y-98831400D02*
X135315002Y-101371400D01*
X142080000Y-98831400D02*
X137855002Y-98831400D01*
X148640800Y-101600000D02*
X146009600Y-101600000D01*
X152958800Y-105918000D02*
X148640800Y-101600000D01*
X149842799Y-104717999D02*
X151758799Y-104717999D01*
X149218799Y-105341999D02*
X149842799Y-104717999D01*
X149218799Y-106354003D02*
X149218799Y-105341999D01*
X148454801Y-107118001D02*
X149218799Y-106354003D01*
X151758799Y-104717999D02*
X152958800Y-105918000D01*
X134048799Y-107118001D02*
X148454801Y-107118001D01*
X133978799Y-107048001D02*
X134048799Y-107118001D01*
X133978799Y-102172601D02*
X133978799Y-107048001D01*
X134780000Y-101371400D02*
X133978799Y-102172601D01*
D20*
%TO.N,Net-(C1-Pad1)*%
X129420000Y-83058400D02*
X128506000Y-83972400D01*
X129837800Y-82252200D02*
X129420000Y-82670000D01*
X133687200Y-82252200D02*
X129837800Y-82252200D01*
X129420000Y-82670000D02*
X129420000Y-83058400D01*
X129420000Y-79248000D02*
X129420000Y-82670000D01*
X141537600Y-89966800D02*
X141512400Y-89992000D01*
X143078200Y-89966800D02*
X141537600Y-89966800D01*
%TO.N,Net-(C2-Pad1)*%
X134620000Y-79248000D02*
X136804400Y-79248000D01*
X136804400Y-79248000D02*
X137718800Y-80162400D01*
X137718800Y-82600800D02*
X136347200Y-83972400D01*
X137718800Y-80162400D02*
X137718800Y-82600800D01*
X136347200Y-83972400D02*
X136347200Y-84328000D01*
X138744801Y-86725601D02*
X138785600Y-86725601D01*
X136347200Y-84328000D02*
X138744801Y-86725601D01*
X143666944Y-90792000D02*
X141512400Y-90792000D01*
X143799034Y-90659910D02*
X143666944Y-90792000D01*
D19*
%TO.N,Net-(D1-Pad1)*%
X128421190Y-99348010D02*
X129064800Y-98704400D01*
X123307610Y-99348010D02*
X128421190Y-99348010D01*
X122257600Y-98298000D02*
X123307610Y-99348010D01*
%TO.N,/SCK*%
X154552799Y-85629601D02*
X155752800Y-84429600D01*
X154552799Y-87156603D02*
X154552799Y-85629601D01*
X150917402Y-90792000D02*
X154552799Y-87156603D01*
X150012400Y-90792000D02*
X150917402Y-90792000D01*
D20*
X128275201Y-104451401D02*
X130048000Y-102678602D01*
X123996199Y-104451401D02*
X128275201Y-104451401D01*
X122631200Y-105816400D02*
X123996199Y-104451401D01*
X130048000Y-102678602D02*
X130048000Y-102285800D01*
X131114800Y-101219000D02*
X131114800Y-98704400D01*
X130048000Y-102285800D02*
X131114800Y-101219000D01*
X135493600Y-91414600D02*
X136593600Y-91414600D01*
X131666409Y-95241791D02*
X135493600Y-91414600D01*
X131666409Y-98152791D02*
X131666409Y-95241791D01*
X131114800Y-98704400D02*
X131666409Y-98152791D01*
X153009600Y-100330000D02*
X154736800Y-100330000D01*
X154736800Y-100330000D02*
X154914600Y-100152200D01*
X142605000Y-100101400D02*
X144145000Y-101641400D01*
X142080000Y-100101400D02*
X142605000Y-100101400D01*
X144145000Y-101641400D02*
X144145000Y-103352600D01*
X142080000Y-100101400D02*
X138506200Y-100101400D01*
X138023600Y-100584000D02*
X138049000Y-100558600D01*
X138506200Y-100101400D02*
X138049000Y-100558600D01*
X139827000Y-91414600D02*
X136593600Y-91414600D01*
X140868400Y-92456000D02*
X139827000Y-91414600D01*
%TO.N,/MISO*%
X122631200Y-103276400D02*
X125349000Y-100558600D01*
X125349000Y-100558600D02*
X126542800Y-100558600D01*
X149271202Y-92242000D02*
X151104600Y-94075398D01*
X148562400Y-92242000D02*
X149271202Y-92242000D01*
X151104600Y-94075398D02*
X151104600Y-94843600D01*
%TO.N,/RESET*%
X145362400Y-82628000D02*
X145362400Y-83742000D01*
X145873411Y-82116989D02*
X145362400Y-82628000D01*
X147256813Y-82116989D02*
X145873411Y-82116989D01*
X149765001Y-78480799D02*
X149765001Y-79608801D01*
X149765001Y-79608801D02*
X147256813Y-82116989D01*
X148653991Y-77369789D02*
X149765001Y-78480799D01*
X139258011Y-77369789D02*
X148653991Y-77369789D01*
X139014200Y-77613600D02*
X139258011Y-77369789D01*
X139014200Y-78188600D02*
X139014200Y-77613600D01*
X145362400Y-84792000D02*
X145762000Y-85191600D01*
X145362400Y-83742000D02*
X145362400Y-84792000D01*
X145762000Y-85191600D02*
X146812000Y-85191600D01*
X146812000Y-85242400D02*
X146862800Y-85293200D01*
X146812000Y-85191600D02*
X146812000Y-85242400D01*
X130214790Y-97602219D02*
X130941409Y-96875600D01*
X127255991Y-102101399D02*
X130214790Y-99142600D01*
X130214790Y-99142600D02*
X130214790Y-97602219D01*
X126346201Y-102101399D02*
X127255991Y-102101399D01*
X125171200Y-103276400D02*
X126346201Y-102101399D01*
%TO.N,/MOSI*%
X127711200Y-103276400D02*
X129489200Y-101498400D01*
X129489200Y-101269800D02*
X130048000Y-100711000D01*
X129489200Y-101498400D02*
X129489200Y-101269800D01*
X130048000Y-100711000D02*
X130048000Y-100685600D01*
X147762400Y-93102002D02*
X147762400Y-92242000D01*
X148894398Y-94234000D02*
X147762400Y-93102002D01*
X150190200Y-94234000D02*
X148894398Y-94234000D01*
%TO.N,/D2*%
X142962400Y-84792000D02*
X142962400Y-83742000D01*
X143348199Y-85177799D02*
X142962400Y-84792000D01*
X144874001Y-85177799D02*
X143348199Y-85177799D01*
X146050000Y-86353798D02*
X144874001Y-85177799D01*
X146050000Y-87579200D02*
X146050000Y-86353798D01*
X146050000Y-87579200D02*
X145999200Y-87630000D01*
X135382000Y-105918000D02*
X135178800Y-105918000D01*
X137769600Y-103530400D02*
X135382000Y-105918000D01*
%TO.N,/D3*%
X137718800Y-105918000D02*
X139242800Y-104394000D01*
X139242800Y-104394000D02*
X139242800Y-103835200D01*
X139344400Y-103835200D02*
X139446000Y-103733600D01*
X139242800Y-103835200D02*
X139344400Y-103835200D01*
X140330401Y-84010001D02*
X141512400Y-85192000D01*
X139890001Y-84010001D02*
X140330401Y-84010001D01*
%TO.N,/D4*%
X140258800Y-105918000D02*
X140258800Y-101041200D01*
X140258800Y-101041200D02*
X140411200Y-100888800D01*
X141605600Y-85902800D02*
X144526000Y-85902800D01*
X141516400Y-85992000D02*
X141605600Y-85902800D01*
X141512400Y-85992000D02*
X141516400Y-85992000D01*
%TO.N,/D5*%
X142962400Y-92242000D02*
X142962400Y-95718400D01*
X142962400Y-95718400D02*
X143230600Y-95986600D01*
%TO.N,/D6*%
X143762400Y-95375400D02*
X143762400Y-92242000D01*
X144526000Y-96139000D02*
X143762400Y-95375400D01*
%TO.N,/D7*%
X144562400Y-92242000D02*
X144562400Y-94956200D01*
X144562400Y-94956200D02*
X145389600Y-95783400D01*
X145574799Y-95968599D02*
X145948400Y-95968599D01*
X145389600Y-95783400D02*
X145574799Y-95968599D01*
%TO.N,/D8*%
X145362400Y-92242000D02*
X145362400Y-94079800D01*
X145362400Y-94079800D02*
X146862800Y-95580200D01*
X147428999Y-95580200D02*
X147040600Y-95968599D01*
X146862800Y-95580200D02*
X147428999Y-95580200D01*
%TO.N,/TX*%
X143762400Y-79297200D02*
X143762400Y-83742000D01*
X143510000Y-79044800D02*
X143762400Y-79297200D01*
%TO.N,/RX*%
X144562400Y-80532400D02*
X144562400Y-83742000D01*
X146050000Y-79044800D02*
X144562400Y-80532400D01*
D19*
%TO.N,/SDA*%
X146962400Y-82836998D02*
X146962400Y-83742000D01*
X147207399Y-82591999D02*
X146962400Y-82836998D01*
X153013201Y-82591999D02*
X147207399Y-82591999D01*
X153650801Y-83229599D02*
X153013201Y-82591999D01*
X156328801Y-83229599D02*
X153650801Y-83229599D01*
X156952801Y-83853599D02*
X156328801Y-83229599D01*
X156952801Y-85769599D02*
X156952801Y-83853599D01*
X155752800Y-86969600D02*
X156952801Y-85769599D01*
D20*
X142080000Y-101371400D02*
X142080000Y-102557600D01*
X142080000Y-102557600D02*
X142417800Y-102895400D01*
X154744199Y-101600000D02*
X155639600Y-102495401D01*
X153009600Y-101600000D02*
X154744199Y-101600000D01*
X136593600Y-92684600D02*
X138430000Y-92684600D01*
X142609401Y-96864001D02*
X149670601Y-96864001D01*
X138430000Y-92684600D02*
X142609401Y-96864001D01*
X154077789Y-92943413D02*
X154077789Y-88644611D01*
X154077789Y-88644611D02*
X155752800Y-86969600D01*
X149670601Y-96864001D02*
X150157201Y-96864001D01*
X153619200Y-93402002D02*
X153889001Y-93132201D01*
X153619200Y-95453200D02*
X153619200Y-93402002D01*
X153889001Y-93132201D02*
X154077789Y-92943413D01*
X150157201Y-96864001D02*
X153889001Y-93132201D01*
%TO.N,Net-(U1-Pad1)*%
X124643200Y-93421200D02*
X126644400Y-93421200D01*
X126644400Y-93421200D02*
X127508000Y-94284800D01*
X127558800Y-94234000D02*
X127558800Y-94081600D01*
X127508000Y-94284800D02*
X127558800Y-94234000D01*
X146009600Y-97790000D02*
X150672800Y-97790000D01*
X150672800Y-97790000D02*
X151180800Y-97282000D01*
%TO.N,Net-(U1-Pad2)*%
X122143200Y-93421200D02*
X124276800Y-95554800D01*
X124276800Y-95554800D02*
X125171200Y-95554800D01*
X125069600Y-95554800D02*
X124917200Y-95707200D01*
X125171200Y-95554800D02*
X125069600Y-95554800D01*
X148793200Y-99060000D02*
X146009600Y-99060000D01*
X149352000Y-98501200D02*
X148793200Y-99060000D01*
X151028400Y-98501200D02*
X149352000Y-98501200D01*
%TO.N,/ADDS2*%
X129293600Y-90144600D02*
X131038600Y-90144600D01*
X131038600Y-90144600D02*
X131318000Y-90424000D01*
X134289998Y-98831400D02*
X134780000Y-98831400D01*
X133604999Y-98146401D02*
X134289998Y-98831400D01*
X133604999Y-96424800D02*
X133604999Y-98146401D01*
X134061200Y-95968599D02*
X133604999Y-96424800D01*
X148081600Y-85192000D02*
X150012400Y-85192000D01*
X147878800Y-85394800D02*
X148081600Y-85192000D01*
%TO.N,/ADDS1*%
X129293600Y-88874600D02*
X131699000Y-88874600D01*
X131699000Y-88874600D02*
X132435600Y-89611200D01*
X135890000Y-96451400D02*
X134780000Y-97561400D01*
X135890000Y-95968599D02*
X135890000Y-96451400D01*
X148958000Y-85992000D02*
X150012400Y-85992000D01*
X147878800Y-87071200D02*
X148958000Y-85992000D01*
%TD*%
M02*
