%TF.GenerationSoftware,KiCad,Pcbnew,(5.1.9)-1*%
%TF.CreationDate,2021-04-14T15:21:08+05:30*%
%TF.ProjectId,kicadp_1,6b696361-6470-45f3-912e-6b696361645f,v1*%
%TF.SameCoordinates,Original*%
%TF.FileFunction,Copper,L1,Top*%
%TF.FilePolarity,Positive*%
%FSLAX46Y46*%
G04 Gerber Fmt 4.6, Leading zero omitted, Abs format (unit mm)*
G04 Created by KiCad (PCBNEW (5.1.9)-1) date 2021-04-14 15:21:08*
%MOMM*%
%LPD*%
G01*
G04 APERTURE LIST*
%TA.AperFunction,ComponentPad*%
%ADD10R,2.000000X2.000000*%
%TD*%
%TA.AperFunction,ComponentPad*%
%ADD11C,2.000000*%
%TD*%
%TA.AperFunction,ComponentPad*%
%ADD12R,1.600000X1.600000*%
%TD*%
%TA.AperFunction,ComponentPad*%
%ADD13C,1.600000*%
%TD*%
%TA.AperFunction,ComponentPad*%
%ADD14R,1.800000X1.800000*%
%TD*%
%TA.AperFunction,ComponentPad*%
%ADD15C,1.800000*%
%TD*%
%TA.AperFunction,ComponentPad*%
%ADD16O,2.200000X2.200000*%
%TD*%
%TA.AperFunction,ComponentPad*%
%ADD17R,2.200000X2.200000*%
%TD*%
%TA.AperFunction,ComponentPad*%
%ADD18R,2.600000X2.600000*%
%TD*%
%TA.AperFunction,ComponentPad*%
%ADD19C,2.600000*%
%TD*%
%TA.AperFunction,ComponentPad*%
%ADD20O,1.700000X1.700000*%
%TD*%
%TA.AperFunction,ComponentPad*%
%ADD21R,1.700000X1.700000*%
%TD*%
%TA.AperFunction,ComponentPad*%
%ADD22O,1.600000X1.600000*%
%TD*%
%TA.AperFunction,ComponentPad*%
%ADD23R,1.900000X1.900000*%
%TD*%
%TA.AperFunction,ComponentPad*%
%ADD24C,1.900000*%
%TD*%
%TA.AperFunction,ComponentPad*%
%ADD25R,1.905000X2.000000*%
%TD*%
%TA.AperFunction,ComponentPad*%
%ADD26O,1.905000X2.000000*%
%TD*%
%TA.AperFunction,Conductor*%
%ADD27C,0.300000*%
%TD*%
G04 APERTURE END LIST*
D10*
%TO.P,C1,1*%
%TO.N,/vin*%
X66167000Y-44069000D03*
D11*
%TO.P,C1,2*%
%TO.N,/v-*%
X71167000Y-44069000D03*
%TD*%
D12*
%TO.P,C2,1*%
%TO.N,/Vout1*%
X77764000Y-42926000D03*
D13*
%TO.P,C2,2*%
%TO.N,/v-*%
X80264000Y-42926000D03*
%TD*%
D14*
%TO.P,D1,1*%
%TO.N,/v-*%
X82169000Y-52578000D03*
D15*
%TO.P,D1,2*%
%TO.N,Net-(D1-Pad2)*%
X84709000Y-52578000D03*
%TD*%
D16*
%TO.P,D2,2*%
%TO.N,Net-(D2-Pad2)*%
X76200000Y-75184000D03*
D17*
%TO.P,D2,1*%
%TO.N,/vin*%
X66040000Y-75184000D03*
%TD*%
D16*
%TO.P,D3,2*%
%TO.N,Net-(D3-Pad2)*%
X76200000Y-65278000D03*
D17*
%TO.P,D3,1*%
%TO.N,/vin*%
X66040000Y-65278000D03*
%TD*%
D15*
%TO.P,D4,2*%
%TO.N,Net-(D4-Pad2)*%
X84709000Y-73787000D03*
D14*
%TO.P,D4,1*%
%TO.N,/v-*%
X82169000Y-73787000D03*
%TD*%
D17*
%TO.P,D5,1*%
%TO.N,Net-(D2-Pad2)*%
X66040000Y-70231000D03*
D16*
%TO.P,D5,2*%
%TO.N,/v-*%
X76200000Y-70231000D03*
%TD*%
D17*
%TO.P,D6,1*%
%TO.N,Net-(D3-Pad2)*%
X66040000Y-60452000D03*
D16*
%TO.P,D6,2*%
%TO.N,/v-*%
X76200000Y-60452000D03*
%TD*%
D18*
%TO.P,J1,1*%
%TO.N,Net-(D2-Pad2)*%
X77597000Y-83947000D03*
D19*
%TO.P,J1,2*%
%TO.N,Net-(D3-Pad2)*%
X71597000Y-83947000D03*
%TO.P,J1,3*%
%TO.N,Net-(J1-Pad3)*%
X74597000Y-88647000D03*
%TD*%
D20*
%TO.P,J2,4*%
%TO.N,/v-*%
X91186000Y-43307000D03*
%TO.P,J2,3*%
X88646000Y-43307000D03*
%TO.P,J2,2*%
%TO.N,/Vout2*%
X91186000Y-40767000D03*
D21*
%TO.P,J2,1*%
X88646000Y-40767000D03*
%TD*%
%TO.P,J3,1*%
%TO.N,/Vout2*%
X88646000Y-85852000D03*
D20*
%TO.P,J3,2*%
X91186000Y-85852000D03*
%TO.P,J3,3*%
%TO.N,/v-*%
X88646000Y-88392000D03*
%TO.P,J3,4*%
X91186000Y-88392000D03*
%TD*%
D13*
%TO.P,R1,1*%
%TO.N,/Vout1*%
X77089000Y-56642000D03*
D22*
%TO.P,R1,2*%
%TO.N,Net-(D1-Pad2)*%
X77089000Y-49022000D03*
%TD*%
%TO.P,R2,2*%
%TO.N,Net-(D4-Pad2)*%
X83185000Y-80391000D03*
D13*
%TO.P,R2,1*%
%TO.N,/Vout2*%
X83185000Y-88011000D03*
%TD*%
D23*
%TO.P,S1,1*%
%TO.N,/Vout2*%
X83566000Y-65532000D03*
D24*
%TO.P,S1,2*%
%TO.N,/Vout1*%
X83566000Y-63032000D03*
%TO.P,S1,3*%
%TO.N,Net-(S1-Pad3)*%
X83566000Y-60532000D03*
%TD*%
D25*
%TO.P,U1,1*%
%TO.N,/vin*%
X66167000Y-54356000D03*
D26*
%TO.P,U1,2*%
%TO.N,/v-*%
X68707000Y-54356000D03*
%TO.P,U1,3*%
%TO.N,/Vout1*%
X71247000Y-54356000D03*
%TD*%
D27*
%TO.N,/vin*%
X64489999Y-66828001D02*
X66040000Y-65278000D01*
X64489999Y-73633999D02*
X64489999Y-66828001D01*
X66040000Y-75184000D02*
X64489999Y-73633999D01*
X64489999Y-56033001D02*
X66167000Y-54356000D01*
X64489999Y-63727999D02*
X64489999Y-56033001D01*
X66040000Y-65278000D02*
X64489999Y-63727999D01*
X66167000Y-44069000D02*
X66167000Y-54356000D01*
%TO.N,/Vout1*%
X74803000Y-54356000D02*
X77089000Y-56642000D01*
X71247000Y-54356000D02*
X74803000Y-54356000D01*
X83479000Y-63032000D02*
X83566000Y-63032000D01*
X77089000Y-56642000D02*
X83479000Y-63032000D01*
X71247000Y-49443000D02*
X71247000Y-54356000D01*
X77764000Y-42926000D02*
X71247000Y-49443000D01*
%TO.N,Net-(D1-Pad2)*%
X84709000Y-52507998D02*
X84709000Y-52578000D01*
X81223002Y-49022000D02*
X84709000Y-52507998D01*
X77089000Y-49022000D02*
X81223002Y-49022000D01*
%TO.N,Net-(D2-Pad2)*%
X70993000Y-75184000D02*
X66040000Y-70231000D01*
X76200000Y-75184000D02*
X70993000Y-75184000D01*
X77597000Y-76581000D02*
X76200000Y-75184000D01*
X77597000Y-83947000D02*
X77597000Y-76581000D01*
%TO.N,Net-(D4-Pad2)*%
X83185000Y-75311000D02*
X84709000Y-73787000D01*
X83185000Y-80391000D02*
X83185000Y-75311000D01*
%TO.N,/Vout2*%
X91313000Y-40660000D02*
X88773000Y-40660000D01*
X86059001Y-63038999D02*
X83566000Y-65532000D01*
X86059001Y-43989997D02*
X86059001Y-63038999D01*
X88773000Y-41275998D02*
X86059001Y-43989997D01*
X88773000Y-40660000D02*
X88773000Y-41275998D01*
X87777000Y-85618000D02*
X88646000Y-85618000D01*
X83566000Y-65532000D02*
X86570087Y-68536088D01*
X86614000Y-84455000D02*
X87777000Y-85618000D01*
X86517348Y-84358348D02*
X86614000Y-84455000D01*
X86614000Y-84582000D02*
X86614000Y-84455000D01*
X83185000Y-85672196D02*
X86524098Y-82333098D01*
X83185000Y-88011000D02*
X83185000Y-85672196D01*
X86524098Y-82333098D02*
X86517348Y-84358348D01*
X86570087Y-68536088D02*
X86524098Y-82333098D01*
X91186000Y-85852000D02*
X88646000Y-85852000D01*
%TD*%
M02*
