%TF.GenerationSoftware,KiCad,Pcbnew,(5.1.9)-1*%
%TF.CreationDate,2021-04-14T15:21:08+05:30*%
%TF.ProjectId,kicadp_1,6b696361-6470-45f3-912e-6b696361645f,v1*%
%TF.SameCoordinates,Original*%
%TF.FileFunction,Legend,Top*%
%TF.FilePolarity,Positive*%
%FSLAX46Y46*%
G04 Gerber Fmt 4.6, Leading zero omitted, Abs format (unit mm)*
G04 Created by KiCad (PCBNEW (5.1.9)-1) date 2021-04-14 15:21:08*
%MOMM*%
%LPD*%
G01*
G04 APERTURE LIST*
%ADD10C,0.120000*%
%ADD11C,0.100000*%
%ADD12C,0.150000*%
G04 APERTURE END LIST*
D10*
%TO.C,C1*%
X63687354Y-40694000D02*
X63687354Y-41694000D01*
X63187354Y-41194000D02*
X64187354Y-41194000D01*
X73748000Y-43470000D02*
X73748000Y-44668000D01*
X73708000Y-43207000D02*
X73708000Y-44931000D01*
X73668000Y-43007000D02*
X73668000Y-45131000D01*
X73628000Y-42839000D02*
X73628000Y-45299000D01*
X73588000Y-42691000D02*
X73588000Y-45447000D01*
X73548000Y-42559000D02*
X73548000Y-45579000D01*
X73508000Y-42439000D02*
X73508000Y-45699000D01*
X73468000Y-42327000D02*
X73468000Y-45811000D01*
X73428000Y-42223000D02*
X73428000Y-45915000D01*
X73388000Y-42125000D02*
X73388000Y-46013000D01*
X73348000Y-42032000D02*
X73348000Y-46106000D01*
X73308000Y-41944000D02*
X73308000Y-46194000D01*
X73268000Y-41860000D02*
X73268000Y-46278000D01*
X73228000Y-41780000D02*
X73228000Y-46358000D01*
X73188000Y-41704000D02*
X73188000Y-46434000D01*
X73148000Y-41630000D02*
X73148000Y-46508000D01*
X73108000Y-41559000D02*
X73108000Y-46579000D01*
X73068000Y-41490000D02*
X73068000Y-46648000D01*
X73028000Y-41424000D02*
X73028000Y-46714000D01*
X72988000Y-41360000D02*
X72988000Y-46778000D01*
X72948000Y-41299000D02*
X72948000Y-46839000D01*
X72908000Y-41239000D02*
X72908000Y-46899000D01*
X72868000Y-41180000D02*
X72868000Y-46958000D01*
X72828000Y-41124000D02*
X72828000Y-47014000D01*
X72788000Y-41069000D02*
X72788000Y-47069000D01*
X72748000Y-41015000D02*
X72748000Y-47123000D01*
X72708000Y-40963000D02*
X72708000Y-47175000D01*
X72668000Y-40913000D02*
X72668000Y-47225000D01*
X72628000Y-40863000D02*
X72628000Y-47275000D01*
X72588000Y-40815000D02*
X72588000Y-47323000D01*
X72548000Y-40768000D02*
X72548000Y-47370000D01*
X72508000Y-40722000D02*
X72508000Y-47416000D01*
X72468000Y-40677000D02*
X72468000Y-47461000D01*
X72428000Y-40633000D02*
X72428000Y-47505000D01*
X72388000Y-45310000D02*
X72388000Y-47547000D01*
X72388000Y-40591000D02*
X72388000Y-42828000D01*
X72348000Y-45310000D02*
X72348000Y-47589000D01*
X72348000Y-40549000D02*
X72348000Y-42828000D01*
X72308000Y-45310000D02*
X72308000Y-47630000D01*
X72308000Y-40508000D02*
X72308000Y-42828000D01*
X72268000Y-45310000D02*
X72268000Y-47670000D01*
X72268000Y-40468000D02*
X72268000Y-42828000D01*
X72228000Y-45310000D02*
X72228000Y-47709000D01*
X72228000Y-40429000D02*
X72228000Y-42828000D01*
X72188000Y-45310000D02*
X72188000Y-47748000D01*
X72188000Y-40390000D02*
X72188000Y-42828000D01*
X72148000Y-45310000D02*
X72148000Y-47785000D01*
X72148000Y-40353000D02*
X72148000Y-42828000D01*
X72108000Y-45310000D02*
X72108000Y-47822000D01*
X72108000Y-40316000D02*
X72108000Y-42828000D01*
X72068000Y-45310000D02*
X72068000Y-47858000D01*
X72068000Y-40280000D02*
X72068000Y-42828000D01*
X72028000Y-45310000D02*
X72028000Y-47893000D01*
X72028000Y-40245000D02*
X72028000Y-42828000D01*
X71988000Y-45310000D02*
X71988000Y-47927000D01*
X71988000Y-40211000D02*
X71988000Y-42828000D01*
X71948000Y-45310000D02*
X71948000Y-47961000D01*
X71948000Y-40177000D02*
X71948000Y-42828000D01*
X71908000Y-45310000D02*
X71908000Y-47994000D01*
X71908000Y-40144000D02*
X71908000Y-42828000D01*
X71868000Y-45310000D02*
X71868000Y-48026000D01*
X71868000Y-40112000D02*
X71868000Y-42828000D01*
X71828000Y-45310000D02*
X71828000Y-48058000D01*
X71828000Y-40080000D02*
X71828000Y-42828000D01*
X71788000Y-45310000D02*
X71788000Y-48089000D01*
X71788000Y-40049000D02*
X71788000Y-42828000D01*
X71748000Y-45310000D02*
X71748000Y-48119000D01*
X71748000Y-40019000D02*
X71748000Y-42828000D01*
X71708000Y-45310000D02*
X71708000Y-48149000D01*
X71708000Y-39989000D02*
X71708000Y-42828000D01*
X71668000Y-45310000D02*
X71668000Y-48179000D01*
X71668000Y-39959000D02*
X71668000Y-42828000D01*
X71628000Y-45310000D02*
X71628000Y-48207000D01*
X71628000Y-39931000D02*
X71628000Y-42828000D01*
X71588000Y-45310000D02*
X71588000Y-48235000D01*
X71588000Y-39903000D02*
X71588000Y-42828000D01*
X71548000Y-45310000D02*
X71548000Y-48263000D01*
X71548000Y-39875000D02*
X71548000Y-42828000D01*
X71508000Y-45310000D02*
X71508000Y-48290000D01*
X71508000Y-39848000D02*
X71508000Y-42828000D01*
X71468000Y-45310000D02*
X71468000Y-48316000D01*
X71468000Y-39822000D02*
X71468000Y-42828000D01*
X71428000Y-45310000D02*
X71428000Y-48342000D01*
X71428000Y-39796000D02*
X71428000Y-42828000D01*
X71388000Y-45310000D02*
X71388000Y-48367000D01*
X71388000Y-39771000D02*
X71388000Y-42828000D01*
X71348000Y-45310000D02*
X71348000Y-48392000D01*
X71348000Y-39746000D02*
X71348000Y-42828000D01*
X71308000Y-45310000D02*
X71308000Y-48416000D01*
X71308000Y-39722000D02*
X71308000Y-42828000D01*
X71268000Y-45310000D02*
X71268000Y-48440000D01*
X71268000Y-39698000D02*
X71268000Y-42828000D01*
X71228000Y-45310000D02*
X71228000Y-48464000D01*
X71228000Y-39674000D02*
X71228000Y-42828000D01*
X71188000Y-45310000D02*
X71188000Y-48486000D01*
X71188000Y-39652000D02*
X71188000Y-42828000D01*
X71148000Y-45310000D02*
X71148000Y-48509000D01*
X71148000Y-39629000D02*
X71148000Y-42828000D01*
X71108000Y-45310000D02*
X71108000Y-48531000D01*
X71108000Y-39607000D02*
X71108000Y-42828000D01*
X71068000Y-45310000D02*
X71068000Y-48552000D01*
X71068000Y-39586000D02*
X71068000Y-42828000D01*
X71028000Y-45310000D02*
X71028000Y-48573000D01*
X71028000Y-39565000D02*
X71028000Y-42828000D01*
X70988000Y-45310000D02*
X70988000Y-48594000D01*
X70988000Y-39544000D02*
X70988000Y-42828000D01*
X70948000Y-45310000D02*
X70948000Y-48614000D01*
X70948000Y-39524000D02*
X70948000Y-42828000D01*
X70908000Y-45310000D02*
X70908000Y-48633000D01*
X70908000Y-39505000D02*
X70908000Y-42828000D01*
X70868000Y-45310000D02*
X70868000Y-48653000D01*
X70868000Y-39485000D02*
X70868000Y-42828000D01*
X70828000Y-45310000D02*
X70828000Y-48672000D01*
X70828000Y-39466000D02*
X70828000Y-42828000D01*
X70788000Y-45310000D02*
X70788000Y-48690000D01*
X70788000Y-39448000D02*
X70788000Y-42828000D01*
X70748000Y-45310000D02*
X70748000Y-48708000D01*
X70748000Y-39430000D02*
X70748000Y-42828000D01*
X70708000Y-45310000D02*
X70708000Y-48726000D01*
X70708000Y-39412000D02*
X70708000Y-42828000D01*
X70668000Y-45310000D02*
X70668000Y-48743000D01*
X70668000Y-39395000D02*
X70668000Y-42828000D01*
X70628000Y-45310000D02*
X70628000Y-48759000D01*
X70628000Y-39379000D02*
X70628000Y-42828000D01*
X70588000Y-45310000D02*
X70588000Y-48776000D01*
X70588000Y-39362000D02*
X70588000Y-42828000D01*
X70548000Y-45310000D02*
X70548000Y-48792000D01*
X70548000Y-39346000D02*
X70548000Y-42828000D01*
X70508000Y-45310000D02*
X70508000Y-48807000D01*
X70508000Y-39331000D02*
X70508000Y-42828000D01*
X70468000Y-45310000D02*
X70468000Y-48823000D01*
X70468000Y-39315000D02*
X70468000Y-42828000D01*
X70428000Y-45310000D02*
X70428000Y-48837000D01*
X70428000Y-39301000D02*
X70428000Y-42828000D01*
X70388000Y-45310000D02*
X70388000Y-48852000D01*
X70388000Y-39286000D02*
X70388000Y-42828000D01*
X70348000Y-45310000D02*
X70348000Y-48866000D01*
X70348000Y-39272000D02*
X70348000Y-42828000D01*
X70308000Y-45310000D02*
X70308000Y-48880000D01*
X70308000Y-39258000D02*
X70308000Y-42828000D01*
X70268000Y-45310000D02*
X70268000Y-48893000D01*
X70268000Y-39245000D02*
X70268000Y-42828000D01*
X70228000Y-45310000D02*
X70228000Y-48906000D01*
X70228000Y-39232000D02*
X70228000Y-42828000D01*
X70188000Y-45310000D02*
X70188000Y-48919000D01*
X70188000Y-39219000D02*
X70188000Y-42828000D01*
X70148000Y-45310000D02*
X70148000Y-48931000D01*
X70148000Y-39207000D02*
X70148000Y-42828000D01*
X70108000Y-45310000D02*
X70108000Y-48943000D01*
X70108000Y-39195000D02*
X70108000Y-42828000D01*
X70068000Y-45310000D02*
X70068000Y-48954000D01*
X70068000Y-39184000D02*
X70068000Y-42828000D01*
X70028000Y-45310000D02*
X70028000Y-48966000D01*
X70028000Y-39172000D02*
X70028000Y-42828000D01*
X69988000Y-45310000D02*
X69988000Y-48976000D01*
X69988000Y-39162000D02*
X69988000Y-42828000D01*
X69948000Y-45310000D02*
X69948000Y-48987000D01*
X69948000Y-39151000D02*
X69948000Y-42828000D01*
X69908000Y-39141000D02*
X69908000Y-48997000D01*
X69868000Y-39131000D02*
X69868000Y-49007000D01*
X69828000Y-39122000D02*
X69828000Y-49016000D01*
X69788000Y-39113000D02*
X69788000Y-49025000D01*
X69748000Y-39104000D02*
X69748000Y-49034000D01*
X69708000Y-39095000D02*
X69708000Y-49043000D01*
X69668000Y-39087000D02*
X69668000Y-49051000D01*
X69628000Y-39079000D02*
X69628000Y-49059000D01*
X69588000Y-39072000D02*
X69588000Y-49066000D01*
X69548000Y-39065000D02*
X69548000Y-49073000D01*
X69508000Y-39058000D02*
X69508000Y-49080000D01*
X69468000Y-39051000D02*
X69468000Y-49087000D01*
X69428000Y-39045000D02*
X69428000Y-49093000D01*
X69388000Y-39039000D02*
X69388000Y-49099000D01*
X69347000Y-39034000D02*
X69347000Y-49104000D01*
X69307000Y-39029000D02*
X69307000Y-49109000D01*
X69267000Y-39024000D02*
X69267000Y-49114000D01*
X69227000Y-39019000D02*
X69227000Y-49119000D01*
X69187000Y-39015000D02*
X69187000Y-49123000D01*
X69147000Y-39011000D02*
X69147000Y-49127000D01*
X69107000Y-39007000D02*
X69107000Y-49131000D01*
X69067000Y-39004000D02*
X69067000Y-49134000D01*
X69027000Y-39001000D02*
X69027000Y-49137000D01*
X68987000Y-38999000D02*
X68987000Y-49139000D01*
X68947000Y-38996000D02*
X68947000Y-49142000D01*
X68907000Y-38994000D02*
X68907000Y-49144000D01*
X68867000Y-38992000D02*
X68867000Y-49146000D01*
X68827000Y-38991000D02*
X68827000Y-49147000D01*
X68787000Y-38990000D02*
X68787000Y-49148000D01*
X68747000Y-38989000D02*
X68747000Y-49149000D01*
X68707000Y-38989000D02*
X68707000Y-49149000D01*
X68667000Y-38989000D02*
X68667000Y-49149000D01*
X73787000Y-44069000D02*
G75*
G03*
X73787000Y-44069000I-5120000J0D01*
G01*
%TO.C,C2*%
X75828759Y-40772000D02*
X75828759Y-41402000D01*
X75513759Y-41087000D02*
X76143759Y-41087000D01*
X82255000Y-42524000D02*
X82255000Y-43328000D01*
X82215000Y-42293000D02*
X82215000Y-43559000D01*
X82175000Y-42124000D02*
X82175000Y-43728000D01*
X82135000Y-41986000D02*
X82135000Y-43866000D01*
X82095000Y-41867000D02*
X82095000Y-43985000D01*
X82055000Y-41761000D02*
X82055000Y-44091000D01*
X82015000Y-41664000D02*
X82015000Y-44188000D01*
X81975000Y-41576000D02*
X81975000Y-44276000D01*
X81935000Y-41494000D02*
X81935000Y-44358000D01*
X81895000Y-41417000D02*
X81895000Y-44435000D01*
X81855000Y-41345000D02*
X81855000Y-44507000D01*
X81815000Y-41276000D02*
X81815000Y-44576000D01*
X81775000Y-41212000D02*
X81775000Y-44640000D01*
X81735000Y-41150000D02*
X81735000Y-44702000D01*
X81695000Y-41092000D02*
X81695000Y-44760000D01*
X81655000Y-41036000D02*
X81655000Y-44816000D01*
X81615000Y-40982000D02*
X81615000Y-44870000D01*
X81575000Y-40931000D02*
X81575000Y-44921000D01*
X81535000Y-40882000D02*
X81535000Y-44970000D01*
X81495000Y-40834000D02*
X81495000Y-45018000D01*
X81455000Y-40789000D02*
X81455000Y-45063000D01*
X81415000Y-40744000D02*
X81415000Y-45108000D01*
X81375000Y-40702000D02*
X81375000Y-45150000D01*
X81335000Y-40661000D02*
X81335000Y-45191000D01*
X81295000Y-43966000D02*
X81295000Y-45231000D01*
X81295000Y-40621000D02*
X81295000Y-41886000D01*
X81255000Y-43966000D02*
X81255000Y-45269000D01*
X81255000Y-40583000D02*
X81255000Y-41886000D01*
X81215000Y-43966000D02*
X81215000Y-45306000D01*
X81215000Y-40546000D02*
X81215000Y-41886000D01*
X81175000Y-43966000D02*
X81175000Y-45342000D01*
X81175000Y-40510000D02*
X81175000Y-41886000D01*
X81135000Y-43966000D02*
X81135000Y-45376000D01*
X81135000Y-40476000D02*
X81135000Y-41886000D01*
X81095000Y-43966000D02*
X81095000Y-45410000D01*
X81095000Y-40442000D02*
X81095000Y-41886000D01*
X81055000Y-43966000D02*
X81055000Y-45442000D01*
X81055000Y-40410000D02*
X81055000Y-41886000D01*
X81015000Y-43966000D02*
X81015000Y-45474000D01*
X81015000Y-40378000D02*
X81015000Y-41886000D01*
X80975000Y-43966000D02*
X80975000Y-45504000D01*
X80975000Y-40348000D02*
X80975000Y-41886000D01*
X80935000Y-43966000D02*
X80935000Y-45533000D01*
X80935000Y-40319000D02*
X80935000Y-41886000D01*
X80895000Y-43966000D02*
X80895000Y-45562000D01*
X80895000Y-40290000D02*
X80895000Y-41886000D01*
X80855000Y-43966000D02*
X80855000Y-45590000D01*
X80855000Y-40262000D02*
X80855000Y-41886000D01*
X80815000Y-43966000D02*
X80815000Y-45616000D01*
X80815000Y-40236000D02*
X80815000Y-41886000D01*
X80775000Y-43966000D02*
X80775000Y-45642000D01*
X80775000Y-40210000D02*
X80775000Y-41886000D01*
X80735000Y-43966000D02*
X80735000Y-45668000D01*
X80735000Y-40184000D02*
X80735000Y-41886000D01*
X80695000Y-43966000D02*
X80695000Y-45692000D01*
X80695000Y-40160000D02*
X80695000Y-41886000D01*
X80655000Y-43966000D02*
X80655000Y-45716000D01*
X80655000Y-40136000D02*
X80655000Y-41886000D01*
X80615000Y-43966000D02*
X80615000Y-45738000D01*
X80615000Y-40114000D02*
X80615000Y-41886000D01*
X80575000Y-43966000D02*
X80575000Y-45760000D01*
X80575000Y-40092000D02*
X80575000Y-41886000D01*
X80535000Y-43966000D02*
X80535000Y-45782000D01*
X80535000Y-40070000D02*
X80535000Y-41886000D01*
X80495000Y-43966000D02*
X80495000Y-45802000D01*
X80495000Y-40050000D02*
X80495000Y-41886000D01*
X80455000Y-43966000D02*
X80455000Y-45822000D01*
X80455000Y-40030000D02*
X80455000Y-41886000D01*
X80415000Y-43966000D02*
X80415000Y-45842000D01*
X80415000Y-40010000D02*
X80415000Y-41886000D01*
X80375000Y-43966000D02*
X80375000Y-45860000D01*
X80375000Y-39992000D02*
X80375000Y-41886000D01*
X80335000Y-43966000D02*
X80335000Y-45878000D01*
X80335000Y-39974000D02*
X80335000Y-41886000D01*
X80295000Y-43966000D02*
X80295000Y-45896000D01*
X80295000Y-39956000D02*
X80295000Y-41886000D01*
X80255000Y-43966000D02*
X80255000Y-45912000D01*
X80255000Y-39940000D02*
X80255000Y-41886000D01*
X80215000Y-43966000D02*
X80215000Y-45928000D01*
X80215000Y-39924000D02*
X80215000Y-41886000D01*
X80175000Y-43966000D02*
X80175000Y-45944000D01*
X80175000Y-39908000D02*
X80175000Y-41886000D01*
X80135000Y-43966000D02*
X80135000Y-45959000D01*
X80135000Y-39893000D02*
X80135000Y-41886000D01*
X80095000Y-43966000D02*
X80095000Y-45973000D01*
X80095000Y-39879000D02*
X80095000Y-41886000D01*
X80055000Y-43966000D02*
X80055000Y-45987000D01*
X80055000Y-39865000D02*
X80055000Y-41886000D01*
X80015000Y-43966000D02*
X80015000Y-46000000D01*
X80015000Y-39852000D02*
X80015000Y-41886000D01*
X79975000Y-43966000D02*
X79975000Y-46012000D01*
X79975000Y-39840000D02*
X79975000Y-41886000D01*
X79935000Y-43966000D02*
X79935000Y-46024000D01*
X79935000Y-39828000D02*
X79935000Y-41886000D01*
X79895000Y-43966000D02*
X79895000Y-46036000D01*
X79895000Y-39816000D02*
X79895000Y-41886000D01*
X79855000Y-43966000D02*
X79855000Y-46047000D01*
X79855000Y-39805000D02*
X79855000Y-41886000D01*
X79815000Y-43966000D02*
X79815000Y-46057000D01*
X79815000Y-39795000D02*
X79815000Y-41886000D01*
X79775000Y-43966000D02*
X79775000Y-46067000D01*
X79775000Y-39785000D02*
X79775000Y-41886000D01*
X79735000Y-43966000D02*
X79735000Y-46076000D01*
X79735000Y-39776000D02*
X79735000Y-41886000D01*
X79694000Y-43966000D02*
X79694000Y-46085000D01*
X79694000Y-39767000D02*
X79694000Y-41886000D01*
X79654000Y-43966000D02*
X79654000Y-46093000D01*
X79654000Y-39759000D02*
X79654000Y-41886000D01*
X79614000Y-43966000D02*
X79614000Y-46101000D01*
X79614000Y-39751000D02*
X79614000Y-41886000D01*
X79574000Y-43966000D02*
X79574000Y-46108000D01*
X79574000Y-39744000D02*
X79574000Y-41886000D01*
X79534000Y-43966000D02*
X79534000Y-46115000D01*
X79534000Y-39737000D02*
X79534000Y-41886000D01*
X79494000Y-43966000D02*
X79494000Y-46121000D01*
X79494000Y-39731000D02*
X79494000Y-41886000D01*
X79454000Y-43966000D02*
X79454000Y-46127000D01*
X79454000Y-39725000D02*
X79454000Y-41886000D01*
X79414000Y-43966000D02*
X79414000Y-46132000D01*
X79414000Y-39720000D02*
X79414000Y-41886000D01*
X79374000Y-43966000D02*
X79374000Y-46137000D01*
X79374000Y-39715000D02*
X79374000Y-41886000D01*
X79334000Y-43966000D02*
X79334000Y-46141000D01*
X79334000Y-39711000D02*
X79334000Y-41886000D01*
X79294000Y-43966000D02*
X79294000Y-46144000D01*
X79294000Y-39708000D02*
X79294000Y-41886000D01*
X79254000Y-43966000D02*
X79254000Y-46148000D01*
X79254000Y-39704000D02*
X79254000Y-41886000D01*
X79214000Y-39702000D02*
X79214000Y-46150000D01*
X79174000Y-39699000D02*
X79174000Y-46153000D01*
X79134000Y-39698000D02*
X79134000Y-46154000D01*
X79094000Y-39696000D02*
X79094000Y-46156000D01*
X79054000Y-39696000D02*
X79054000Y-46156000D01*
X79014000Y-39696000D02*
X79014000Y-46156000D01*
X82284000Y-42926000D02*
G75*
G03*
X82284000Y-42926000I-3270000J0D01*
G01*
%TO.C,D1*%
X80879000Y-51033000D02*
X80879000Y-54123000D01*
X85939000Y-52578000D02*
G75*
G03*
X85939000Y-52578000I-2500000J0D01*
G01*
X86429000Y-52578462D02*
G75*
G03*
X80879000Y-51033170I-2990000J462D01*
G01*
X86429000Y-52577538D02*
G75*
G02*
X80879000Y-54122830I-2990000J-462D01*
G01*
%TO.C,D2*%
X68400000Y-73714000D02*
X68400000Y-76654000D01*
X68400000Y-76654000D02*
X73840000Y-76654000D01*
X73840000Y-76654000D02*
X73840000Y-73714000D01*
X73840000Y-73714000D02*
X68400000Y-73714000D01*
X67380000Y-75184000D02*
X68400000Y-75184000D01*
X74860000Y-75184000D02*
X73840000Y-75184000D01*
X69300000Y-73714000D02*
X69300000Y-76654000D01*
X69420000Y-73714000D02*
X69420000Y-76654000D01*
X69180000Y-73714000D02*
X69180000Y-76654000D01*
%TO.C,D3*%
X68400000Y-63808000D02*
X68400000Y-66748000D01*
X68400000Y-66748000D02*
X73840000Y-66748000D01*
X73840000Y-66748000D02*
X73840000Y-63808000D01*
X73840000Y-63808000D02*
X68400000Y-63808000D01*
X67380000Y-65278000D02*
X68400000Y-65278000D01*
X74860000Y-65278000D02*
X73840000Y-65278000D01*
X69300000Y-63808000D02*
X69300000Y-66748000D01*
X69420000Y-63808000D02*
X69420000Y-66748000D01*
X69180000Y-63808000D02*
X69180000Y-66748000D01*
%TO.C,D4*%
X85939000Y-73787000D02*
G75*
G03*
X85939000Y-73787000I-2500000J0D01*
G01*
X80879000Y-72242000D02*
X80879000Y-75332000D01*
X86429000Y-73786538D02*
G75*
G02*
X80879000Y-75331830I-2990000J-462D01*
G01*
X86429000Y-73787462D02*
G75*
G03*
X80879000Y-72242170I-2990000J462D01*
G01*
%TO.C,D5*%
X69180000Y-68761000D02*
X69180000Y-71701000D01*
X69420000Y-68761000D02*
X69420000Y-71701000D01*
X69300000Y-68761000D02*
X69300000Y-71701000D01*
X74860000Y-70231000D02*
X73840000Y-70231000D01*
X67380000Y-70231000D02*
X68400000Y-70231000D01*
X73840000Y-68761000D02*
X68400000Y-68761000D01*
X73840000Y-71701000D02*
X73840000Y-68761000D01*
X68400000Y-71701000D02*
X73840000Y-71701000D01*
X68400000Y-68761000D02*
X68400000Y-71701000D01*
%TO.C,D6*%
X69180000Y-58982000D02*
X69180000Y-61922000D01*
X69420000Y-58982000D02*
X69420000Y-61922000D01*
X69300000Y-58982000D02*
X69300000Y-61922000D01*
X74860000Y-60452000D02*
X73840000Y-60452000D01*
X67380000Y-60452000D02*
X68400000Y-60452000D01*
X73840000Y-58982000D02*
X68400000Y-58982000D01*
X73840000Y-61922000D02*
X73840000Y-58982000D01*
X68400000Y-61922000D02*
X73840000Y-61922000D01*
X68400000Y-58982000D02*
X68400000Y-61922000D01*
%TO.C,J1*%
X78637000Y-79107000D02*
X78637000Y-80847000D01*
X76897000Y-79107000D02*
X78637000Y-79107000D01*
X78397000Y-88547000D02*
X76397000Y-88547000D01*
X78397000Y-85747000D02*
X78397000Y-88547000D01*
X78397000Y-79347000D02*
X78397000Y-82147000D01*
X63797000Y-79347000D02*
X78397000Y-79347000D01*
X63797000Y-88547000D02*
X63797000Y-79347000D01*
X72797000Y-88547000D02*
X63797000Y-88547000D01*
%TO.C,J2*%
X87316000Y-44637000D02*
X92516000Y-44637000D01*
X87316000Y-42037000D02*
X87316000Y-44637000D01*
X92516000Y-39437000D02*
X92516000Y-44637000D01*
X87316000Y-42037000D02*
X89916000Y-42037000D01*
X89916000Y-42037000D02*
X89916000Y-39437000D01*
X89916000Y-39437000D02*
X92516000Y-39437000D01*
X87316000Y-40767000D02*
X87316000Y-39437000D01*
X87316000Y-39437000D02*
X88646000Y-39437000D01*
%TO.C,J3*%
X87316000Y-84522000D02*
X88646000Y-84522000D01*
X87316000Y-85852000D02*
X87316000Y-84522000D01*
X89916000Y-84522000D02*
X92516000Y-84522000D01*
X89916000Y-87122000D02*
X89916000Y-84522000D01*
X87316000Y-87122000D02*
X89916000Y-87122000D01*
X92516000Y-84522000D02*
X92516000Y-89722000D01*
X87316000Y-87122000D02*
X87316000Y-89722000D01*
X87316000Y-89722000D02*
X92516000Y-89722000D01*
%TO.C,R1*%
X78459000Y-49562000D02*
X78129000Y-49562000D01*
X78459000Y-56102000D02*
X78459000Y-49562000D01*
X78129000Y-56102000D02*
X78459000Y-56102000D01*
X75719000Y-49562000D02*
X76049000Y-49562000D01*
X75719000Y-56102000D02*
X75719000Y-49562000D01*
X76049000Y-56102000D02*
X75719000Y-56102000D01*
%TO.C,R2*%
X82145000Y-87471000D02*
X81815000Y-87471000D01*
X81815000Y-87471000D02*
X81815000Y-80931000D01*
X81815000Y-80931000D02*
X82145000Y-80931000D01*
X84225000Y-87471000D02*
X84555000Y-87471000D01*
X84555000Y-87471000D02*
X84555000Y-80931000D01*
X84555000Y-80931000D02*
X84225000Y-80931000D01*
D11*
%TO.C,S1*%
X81466000Y-57232000D02*
X81466000Y-57732000D01*
X81466000Y-57232000D02*
X81966000Y-57232000D01*
X81466000Y-69132000D02*
X81966000Y-69132000D01*
X81466000Y-69132000D02*
X81466000Y-68632000D01*
X85666000Y-69132000D02*
X85166000Y-69132000D01*
X85666000Y-69132000D02*
X85666000Y-68632000D01*
X85666000Y-57232000D02*
X85166000Y-57232000D01*
X85666000Y-57232000D02*
X85666000Y-57732000D01*
D10*
%TO.C,U1*%
X70558000Y-51086000D02*
X70558000Y-52596000D01*
X66857000Y-51086000D02*
X66857000Y-52596000D01*
X63587000Y-52596000D02*
X73827000Y-52596000D01*
X73827000Y-51086000D02*
X73827000Y-55727000D01*
X63587000Y-51086000D02*
X63587000Y-55727000D01*
X63587000Y-55727000D02*
X73827000Y-55727000D01*
X63587000Y-51086000D02*
X73827000Y-51086000D01*
%TO.C,C1*%
D12*
X73620333Y-40616142D02*
X73572714Y-40663761D01*
X73429857Y-40711380D01*
X73334619Y-40711380D01*
X73191761Y-40663761D01*
X73096523Y-40568523D01*
X73048904Y-40473285D01*
X73001285Y-40282809D01*
X73001285Y-40139952D01*
X73048904Y-39949476D01*
X73096523Y-39854238D01*
X73191761Y-39759000D01*
X73334619Y-39711380D01*
X73429857Y-39711380D01*
X73572714Y-39759000D01*
X73620333Y-39806619D01*
X74572714Y-40711380D02*
X74001285Y-40711380D01*
X74287000Y-40711380D02*
X74287000Y-39711380D01*
X74191761Y-39854238D01*
X74096523Y-39949476D01*
X74001285Y-39997095D01*
%TO.C,C2*%
X82510333Y-40489142D02*
X82462714Y-40536761D01*
X82319857Y-40584380D01*
X82224619Y-40584380D01*
X82081761Y-40536761D01*
X81986523Y-40441523D01*
X81938904Y-40346285D01*
X81891285Y-40155809D01*
X81891285Y-40012952D01*
X81938904Y-39822476D01*
X81986523Y-39727238D01*
X82081761Y-39632000D01*
X82224619Y-39584380D01*
X82319857Y-39584380D01*
X82462714Y-39632000D01*
X82510333Y-39679619D01*
X82891285Y-39679619D02*
X82938904Y-39632000D01*
X83034142Y-39584380D01*
X83272238Y-39584380D01*
X83367476Y-39632000D01*
X83415095Y-39679619D01*
X83462714Y-39774857D01*
X83462714Y-39870095D01*
X83415095Y-40012952D01*
X82843666Y-40584380D01*
X83462714Y-40584380D01*
%TO.C,D1*%
X82700904Y-49070380D02*
X82700904Y-48070380D01*
X82939000Y-48070380D01*
X83081857Y-48118000D01*
X83177095Y-48213238D01*
X83224714Y-48308476D01*
X83272333Y-48498952D01*
X83272333Y-48641809D01*
X83224714Y-48832285D01*
X83177095Y-48927523D01*
X83081857Y-49022761D01*
X82939000Y-49070380D01*
X82700904Y-49070380D01*
X84224714Y-49070380D02*
X83653285Y-49070380D01*
X83939000Y-49070380D02*
X83939000Y-48070380D01*
X83843761Y-48213238D01*
X83748523Y-48308476D01*
X83653285Y-48356095D01*
%TO.C,D2*%
X70381904Y-73166380D02*
X70381904Y-72166380D01*
X70620000Y-72166380D01*
X70762857Y-72214000D01*
X70858095Y-72309238D01*
X70905714Y-72404476D01*
X70953333Y-72594952D01*
X70953333Y-72737809D01*
X70905714Y-72928285D01*
X70858095Y-73023523D01*
X70762857Y-73118761D01*
X70620000Y-73166380D01*
X70381904Y-73166380D01*
X71334285Y-72261619D02*
X71381904Y-72214000D01*
X71477142Y-72166380D01*
X71715238Y-72166380D01*
X71810476Y-72214000D01*
X71858095Y-72261619D01*
X71905714Y-72356857D01*
X71905714Y-72452095D01*
X71858095Y-72594952D01*
X71286666Y-73166380D01*
X71905714Y-73166380D01*
X65778095Y-73536380D02*
X65778095Y-72536380D01*
X66349523Y-73536380D02*
X65920952Y-72964952D01*
X66349523Y-72536380D02*
X65778095Y-73107809D01*
%TO.C,D3*%
X70381904Y-63260380D02*
X70381904Y-62260380D01*
X70620000Y-62260380D01*
X70762857Y-62308000D01*
X70858095Y-62403238D01*
X70905714Y-62498476D01*
X70953333Y-62688952D01*
X70953333Y-62831809D01*
X70905714Y-63022285D01*
X70858095Y-63117523D01*
X70762857Y-63212761D01*
X70620000Y-63260380D01*
X70381904Y-63260380D01*
X71286666Y-62260380D02*
X71905714Y-62260380D01*
X71572380Y-62641333D01*
X71715238Y-62641333D01*
X71810476Y-62688952D01*
X71858095Y-62736571D01*
X71905714Y-62831809D01*
X71905714Y-63069904D01*
X71858095Y-63165142D01*
X71810476Y-63212761D01*
X71715238Y-63260380D01*
X71429523Y-63260380D01*
X71334285Y-63212761D01*
X71286666Y-63165142D01*
X65778095Y-63630380D02*
X65778095Y-62630380D01*
X66349523Y-63630380D02*
X65920952Y-63058952D01*
X66349523Y-62630380D02*
X65778095Y-63201809D01*
%TO.C,D4*%
X82700904Y-70279380D02*
X82700904Y-69279380D01*
X82939000Y-69279380D01*
X83081857Y-69327000D01*
X83177095Y-69422238D01*
X83224714Y-69517476D01*
X83272333Y-69707952D01*
X83272333Y-69850809D01*
X83224714Y-70041285D01*
X83177095Y-70136523D01*
X83081857Y-70231761D01*
X82939000Y-70279380D01*
X82700904Y-70279380D01*
X84129476Y-69612714D02*
X84129476Y-70279380D01*
X83891380Y-69231761D02*
X83653285Y-69946047D01*
X84272333Y-69946047D01*
%TO.C,D5*%
X70381904Y-68213380D02*
X70381904Y-67213380D01*
X70620000Y-67213380D01*
X70762857Y-67261000D01*
X70858095Y-67356238D01*
X70905714Y-67451476D01*
X70953333Y-67641952D01*
X70953333Y-67784809D01*
X70905714Y-67975285D01*
X70858095Y-68070523D01*
X70762857Y-68165761D01*
X70620000Y-68213380D01*
X70381904Y-68213380D01*
X71858095Y-67213380D02*
X71381904Y-67213380D01*
X71334285Y-67689571D01*
X71381904Y-67641952D01*
X71477142Y-67594333D01*
X71715238Y-67594333D01*
X71810476Y-67641952D01*
X71858095Y-67689571D01*
X71905714Y-67784809D01*
X71905714Y-68022904D01*
X71858095Y-68118142D01*
X71810476Y-68165761D01*
X71715238Y-68213380D01*
X71477142Y-68213380D01*
X71381904Y-68165761D01*
X71334285Y-68118142D01*
X65778095Y-68583380D02*
X65778095Y-67583380D01*
X66349523Y-68583380D02*
X65920952Y-68011952D01*
X66349523Y-67583380D02*
X65778095Y-68154809D01*
%TO.C,D6*%
X70381904Y-58434380D02*
X70381904Y-57434380D01*
X70620000Y-57434380D01*
X70762857Y-57482000D01*
X70858095Y-57577238D01*
X70905714Y-57672476D01*
X70953333Y-57862952D01*
X70953333Y-58005809D01*
X70905714Y-58196285D01*
X70858095Y-58291523D01*
X70762857Y-58386761D01*
X70620000Y-58434380D01*
X70381904Y-58434380D01*
X71810476Y-57434380D02*
X71620000Y-57434380D01*
X71524761Y-57482000D01*
X71477142Y-57529619D01*
X71381904Y-57672476D01*
X71334285Y-57862952D01*
X71334285Y-58243904D01*
X71381904Y-58339142D01*
X71429523Y-58386761D01*
X71524761Y-58434380D01*
X71715238Y-58434380D01*
X71810476Y-58386761D01*
X71858095Y-58339142D01*
X71905714Y-58243904D01*
X71905714Y-58005809D01*
X71858095Y-57910571D01*
X71810476Y-57862952D01*
X71715238Y-57815333D01*
X71524761Y-57815333D01*
X71429523Y-57862952D01*
X71381904Y-57910571D01*
X71334285Y-58005809D01*
X65778095Y-58804380D02*
X65778095Y-57804380D01*
X66349523Y-58804380D02*
X65920952Y-58232952D01*
X66349523Y-57804380D02*
X65778095Y-58375809D01*
%TO.C,J1*%
X68813666Y-89149380D02*
X68813666Y-89863666D01*
X68766047Y-90006523D01*
X68670809Y-90101761D01*
X68527952Y-90149380D01*
X68432714Y-90149380D01*
X69813666Y-90149380D02*
X69242238Y-90149380D01*
X69527952Y-90149380D02*
X69527952Y-89149380D01*
X69432714Y-89292238D01*
X69337476Y-89387476D01*
X69242238Y-89435095D01*
%TO.C,J2*%
X85137666Y-40580380D02*
X85137666Y-41294666D01*
X85090047Y-41437523D01*
X84994809Y-41532761D01*
X84851952Y-41580380D01*
X84756714Y-41580380D01*
X85566238Y-40675619D02*
X85613857Y-40628000D01*
X85709095Y-40580380D01*
X85947190Y-40580380D01*
X86042428Y-40628000D01*
X86090047Y-40675619D01*
X86137666Y-40770857D01*
X86137666Y-40866095D01*
X86090047Y-41008952D01*
X85518619Y-41580380D01*
X86137666Y-41580380D01*
%TO.C,J3*%
X85645666Y-86935380D02*
X85645666Y-87649666D01*
X85598047Y-87792523D01*
X85502809Y-87887761D01*
X85359952Y-87935380D01*
X85264714Y-87935380D01*
X86026619Y-86935380D02*
X86645666Y-86935380D01*
X86312333Y-87316333D01*
X86455190Y-87316333D01*
X86550428Y-87363952D01*
X86598047Y-87411571D01*
X86645666Y-87506809D01*
X86645666Y-87744904D01*
X86598047Y-87840142D01*
X86550428Y-87887761D01*
X86455190Y-87935380D01*
X86169476Y-87935380D01*
X86074238Y-87887761D01*
X86026619Y-87840142D01*
%TO.C,R1*%
X75171380Y-52998666D02*
X74695190Y-53332000D01*
X75171380Y-53570095D02*
X74171380Y-53570095D01*
X74171380Y-53189142D01*
X74219000Y-53093904D01*
X74266619Y-53046285D01*
X74361857Y-52998666D01*
X74504714Y-52998666D01*
X74599952Y-53046285D01*
X74647571Y-53093904D01*
X74695190Y-53189142D01*
X74695190Y-53570095D01*
X75171380Y-52046285D02*
X75171380Y-52617714D01*
X75171380Y-52332000D02*
X74171380Y-52332000D01*
X74314238Y-52427238D01*
X74409476Y-52522476D01*
X74457095Y-52617714D01*
%TO.C,R2*%
X81267380Y-84367666D02*
X80791190Y-84701000D01*
X81267380Y-84939095D02*
X80267380Y-84939095D01*
X80267380Y-84558142D01*
X80315000Y-84462904D01*
X80362619Y-84415285D01*
X80457857Y-84367666D01*
X80600714Y-84367666D01*
X80695952Y-84415285D01*
X80743571Y-84462904D01*
X80791190Y-84558142D01*
X80791190Y-84939095D01*
X80362619Y-83986714D02*
X80315000Y-83939095D01*
X80267380Y-83843857D01*
X80267380Y-83605761D01*
X80315000Y-83510523D01*
X80362619Y-83462904D01*
X80457857Y-83415285D01*
X80553095Y-83415285D01*
X80695952Y-83462904D01*
X81267380Y-84034333D01*
X81267380Y-83415285D01*
%TO.C,S1*%
X80950761Y-63803904D02*
X80998380Y-63661047D01*
X80998380Y-63422952D01*
X80950761Y-63327714D01*
X80903142Y-63280095D01*
X80807904Y-63232476D01*
X80712666Y-63232476D01*
X80617428Y-63280095D01*
X80569809Y-63327714D01*
X80522190Y-63422952D01*
X80474571Y-63613428D01*
X80426952Y-63708666D01*
X80379333Y-63756285D01*
X80284095Y-63803904D01*
X80188857Y-63803904D01*
X80093619Y-63756285D01*
X80046000Y-63708666D01*
X79998380Y-63613428D01*
X79998380Y-63375333D01*
X80046000Y-63232476D01*
X80998380Y-62280095D02*
X80998380Y-62851523D01*
X80998380Y-62565809D02*
X79998380Y-62565809D01*
X80141238Y-62661047D01*
X80236476Y-62756285D01*
X80284095Y-62851523D01*
%TO.C,U1*%
X67945095Y-49538380D02*
X67945095Y-50347904D01*
X67992714Y-50443142D01*
X68040333Y-50490761D01*
X68135571Y-50538380D01*
X68326047Y-50538380D01*
X68421285Y-50490761D01*
X68468904Y-50443142D01*
X68516523Y-50347904D01*
X68516523Y-49538380D01*
X69516523Y-50538380D02*
X68945095Y-50538380D01*
X69230809Y-50538380D02*
X69230809Y-49538380D01*
X69135571Y-49681238D01*
X69040333Y-49776476D01*
X68945095Y-49824095D01*
%TD*%
M02*
