%TF.GenerationSoftware,KiCad,Pcbnew,(5.1.9)-1*%
%TF.CreationDate,2021-04-14T15:21:08+05:30*%
%TF.ProjectId,kicadp_1,6b696361-6470-45f3-912e-6b696361645f,v1*%
%TF.SameCoordinates,Original*%
%TF.FileFunction,Soldermask,Bot*%
%TF.FilePolarity,Negative*%
%FSLAX46Y46*%
G04 Gerber Fmt 4.6, Leading zero omitted, Abs format (unit mm)*
G04 Created by KiCad (PCBNEW (5.1.9)-1) date 2021-04-14 15:21:08*
%MOMM*%
%LPD*%
G01*
G04 APERTURE LIST*
%ADD10R,2.000000X2.000000*%
%ADD11C,2.000000*%
%ADD12R,1.600000X1.600000*%
%ADD13C,1.600000*%
%ADD14R,1.800000X1.800000*%
%ADD15C,1.800000*%
%ADD16O,2.200000X2.200000*%
%ADD17R,2.200000X2.200000*%
%ADD18R,2.600000X2.600000*%
%ADD19C,2.600000*%
%ADD20O,1.700000X1.700000*%
%ADD21R,1.700000X1.700000*%
%ADD22O,1.600000X1.600000*%
%ADD23R,1.900000X1.900000*%
%ADD24C,1.900000*%
%ADD25R,1.905000X2.000000*%
%ADD26O,1.905000X2.000000*%
G04 APERTURE END LIST*
D10*
%TO.C,C1*%
X66167000Y-44069000D03*
D11*
X71167000Y-44069000D03*
%TD*%
D12*
%TO.C,C2*%
X77764000Y-42926000D03*
D13*
X80264000Y-42926000D03*
%TD*%
D14*
%TO.C,D1*%
X82169000Y-52578000D03*
D15*
X84709000Y-52578000D03*
%TD*%
D16*
%TO.C,D2*%
X76200000Y-75184000D03*
D17*
X66040000Y-75184000D03*
%TD*%
D16*
%TO.C,D3*%
X76200000Y-65278000D03*
D17*
X66040000Y-65278000D03*
%TD*%
D15*
%TO.C,D4*%
X84709000Y-73787000D03*
D14*
X82169000Y-73787000D03*
%TD*%
D17*
%TO.C,D5*%
X66040000Y-70231000D03*
D16*
X76200000Y-70231000D03*
%TD*%
D17*
%TO.C,D6*%
X66040000Y-60452000D03*
D16*
X76200000Y-60452000D03*
%TD*%
D18*
%TO.C,J1*%
X77597000Y-83947000D03*
D19*
X71597000Y-83947000D03*
X74597000Y-88647000D03*
%TD*%
D20*
%TO.C,J2*%
X91186000Y-43307000D03*
X88646000Y-43307000D03*
X91186000Y-40767000D03*
D21*
X88646000Y-40767000D03*
%TD*%
%TO.C,J3*%
X88646000Y-85852000D03*
D20*
X91186000Y-85852000D03*
X88646000Y-88392000D03*
X91186000Y-88392000D03*
%TD*%
D13*
%TO.C,R1*%
X77089000Y-56642000D03*
D22*
X77089000Y-49022000D03*
%TD*%
%TO.C,R2*%
X83185000Y-80391000D03*
D13*
X83185000Y-88011000D03*
%TD*%
D23*
%TO.C,S1*%
X83566000Y-65532000D03*
D24*
X83566000Y-63032000D03*
X83566000Y-60532000D03*
%TD*%
D25*
%TO.C,U1*%
X66167000Y-54356000D03*
D26*
X68707000Y-54356000D03*
X71247000Y-54356000D03*
%TD*%
M02*
