M48
; DRILL file {KiCad (5.1.9)-1} date 04/14/21 15:22:49
; FORMAT={-:-/ absolute / inch / decimal}
; #@! TF.CreationDate,2021-04-14T15:22:49+05:30
; #@! TF.GenerationSoftware,Kicad,Pcbnew,(5.1.9)-1
; #@! TF.FileFunction,Plated,1,2,PTH
FMAT,2
INCH
T1C0.0315
T2C0.0354
T3C0.0394
T4C0.0433
T5C0.0630
%
G90
G05
T1
X3.035Y-1.93
X3.035Y-2.23
X3.0616Y-1.69
X3.16Y-1.69
X3.275Y-3.165
X3.275Y-3.465
T2
X3.235Y-2.07
X3.235Y-2.905
X3.29Y-2.3831
X3.29Y-2.4816
X3.29Y-2.58
X3.335Y-2.07
X3.335Y-2.905
T3
X2.605Y-1.735
X2.8019Y-1.735
X3.49Y-1.605
X3.49Y-1.705
X3.49Y-3.38
X3.49Y-3.48
X3.59Y-1.605
X3.59Y-1.705
X3.59Y-3.38
X3.59Y-3.48
T4
X2.6Y-2.38
X2.6Y-2.57
X2.6Y-2.765
X2.6Y-2.96
X2.605Y-2.14
X2.705Y-2.14
X2.805Y-2.14
X3.0Y-2.38
X3.0Y-2.57
X3.0Y-2.765
X3.0Y-2.96
T5
X2.8188Y-3.305
X2.9369Y-3.49
X3.055Y-3.305
T0
M30
